<?xml version="1.0" encoding="UTF-8"?> <svg xmlns:xlink="http://www.w3.org/1999/xlink" xmlns="http://www.w3.org/2000/svg" version="1.1" viewBox="0.0 0.0 600.0 371.0" fill="none" stroke="none" stroke-linecap="square" stroke-miterlimit="10" width="600" height="371"><path fill="#ffffff" d="M0 0L600.0 0L600.0 371.0L0 371.0L0 0Z" fill-rule="nonzero"></path><path stroke="#000000" stroke-width="1.0" stroke-linecap="butt" d="M581.5 300.5L77.5 300.5" fill-rule="nonzero"></path><path stroke="#000000" stroke-width="1.0" stroke-linecap="butt" d="M77.5 300.5L77.5 25.5" fill-rule="nonzero"></path><clipPath id="id_0"><path d="M77.55 25.55L581.45 25.55L581.45 300.45L77.55 300.45L77.55 25.55Z" clip-rule="nonzero"></path></clipPath><path stroke="#000000" stroke-width="0.0" stroke-linecap="butt" stroke-opacity="0.0" clip-path="url(#id_0)" d="M108.0 300.0L88.0 300.0L88.0 280.0C88.0 278.89542 88.89543 278.0 90.0 278.0L106.0 278.0C107.10457 278.0 108.0 278.89542 108.0 280.0Z" fill-rule="nonzero"></path><path fill="#4285f4" clip-path="url(#id_0)" d="M108.0 300.0L88.0 300.0L88.0 280.0C88.0 278.89542 88.89543 278.0 90.0 278.0L106.0 278.0C107.10457 278.0 108.0 278.89542 108.0 280.0Z" fill-rule="nonzero"></path><path stroke="#000000" stroke-width="0.0" stroke-linecap="butt" stroke-opacity="0.0" clip-path="url(#id_0)" d="M139.0 300.0L119.0 300.0L119.0 273.0C119.0 271.89542 119.89543 271.0 121.0 271.0L137.0 271.0C138.10457 271.0 139.0 271.89542 139.0 273.0Z" fill-rule="nonzero"></path><path fill="#4285f4" clip-path="url(#id_0)" d="M139.0 300.0L119.0 300.0L119.0 273.0C119.0 271.89542 119.89543 271.0 121.0 271.0L137.0 271.0C138.10457 271.0 139.0 271.89542 139.0 273.0Z" fill-rule="nonzero"></path><path stroke="#000000" stroke-width="0.0" stroke-linecap="butt" stroke-opacity="0.0" clip-path="url(#id_0)" d="M170.0 300.0L150.0 300.0L150.0 262.0C150.0 260.89542 150.89543 260.0 152.0 260.0L168.0 260.0C169.10457 260.0 170.0 260.89542 170.0 262.0Z" fill-rule="nonzero"></path><path fill="#4285f4" clip-path="url(#id_0)" d="M170.0 300.0L150.0 300.0L150.0 262.0C150.0 260.89542 150.89543 260.0 152.0 260.0L168.0 260.0C169.10457 260.0 170.0 260.89542 170.0 262.0Z" fill-rule="nonzero"></path><path stroke="#000000" stroke-width="0.0" stroke-linecap="butt" stroke-opacity="0.0" clip-path="url(#id_0)" d="M201.0 300.0L181.0 300.0L181.0 247.0C181.0 245.89543 181.89543 245.0 183.0 245.0L199.0 245.0C200.10457 245.0 201.0 245.89543 201.0 247.0Z" fill-rule="nonzero"></path><path fill="#4285f4" clip-path="url(#id_0)" d="M201.0 300.0L181.0 300.0L181.0 247.0C181.0 245.89543 181.89543 245.0 183.0 245.0L199.0 245.0C200.10457 245.0 201.0 245.89543 201.0 247.0Z" fill-rule="nonzero"></path><path stroke="#000000" stroke-width="0.0" stroke-linecap="butt" stroke-opacity="0.0" clip-path="url(#id_0)" d="M232.0 300.0L212.0 300.0L212.0 229.0C212.0 227.89543 212.89543 227.0 214.0 227.0L230.0 227.0C231.10457 227.0 232.0 227.89543 232.0 229.0Z" fill-rule="nonzero"></path><path fill="#4285f4" clip-path="url(#id_0)" d="M232.0 300.0L212.0 300.0L212.0 229.0C212.0 227.89543 212.89543 227.0 214.0 227.0L230.0 227.0C231.10457 227.0 232.0 227.89543 232.0 229.0Z" fill-rule="nonzero"></path><path stroke="#000000" stroke-width="0.0" stroke-linecap="butt" stroke-opacity="0.0" clip-path="url(#id_0)" d="M262.0 300.0L242.0 300.0L242.0 211.0C242.0 209.89543 242.89543 209.0 244.0 209.0L260.0 209.0C261.10458 209.0 262.0 209.89543 262.0 211.0Z" fill-rule="nonzero"></path><path fill="#4285f4" clip-path="url(#id_0)" d="M262.0 300.0L242.0 300.0L242.0 211.0C242.0 209.89543 242.89543 209.0 244.0 209.0L260.0 209.0C261.10458 209.0 262.0 209.89543 262.0 211.0Z" fill-rule="nonzero"></path><path stroke="#000000" stroke-width="0.0" stroke-linecap="butt" stroke-opacity="0.0" clip-path="url(#id_0)" d="M293.0 300.0L273.0 300.0L273.0 185.0C273.0 183.89543 273.89542 183.0 275.0 183.0L291.0 183.0C292.10458 183.0 293.0 183.89543 293.0 185.0Z" fill-rule="nonzero"></path><path fill="#4285f4" clip-path="url(#id_0)" d="M293.0 300.0L273.0 300.0L273.0 185.0C273.0 183.89543 273.89542 183.0 275.0 183.0L291.0 183.0C292.10458 183.0 293.0 183.89543 293.0 185.0Z" fill-rule="nonzero"></path><path stroke="#000000" stroke-width="0.0" stroke-linecap="butt" stroke-opacity="0.0" clip-path="url(#id_0)" d="M324.0 300.0L304.0 300.0L304.0 160.0C304.0 158.89543 304.89542 158.0 306.0 158.0L322.0 158.0C323.10458 158.0 324.0 158.89543 324.0 160.0Z" fill-rule="nonzero"></path><path fill="#4285f4" clip-path="url(#id_0)" d="M324.0 300.0L304.0 300.0L304.0 160.0C304.0 158.89543 304.89542 158.0 306.0 158.0L322.0 158.0C323.10458 158.0 324.0 158.89543 324.0 160.0Z" fill-rule="nonzero"></path><path stroke="#000000" stroke-width="0.0" stroke-linecap="butt" stroke-opacity="0.0" clip-path="url(#id_0)" d="M355.0 300.0L335.0 300.0L335.0 130.0C335.0 128.89543 335.89542 128.0 337.0 128.0L353.0 128.0C354.10458 128.0 355.0 128.89543 355.0 130.0Z" fill-rule="nonzero"></path><path fill="#4285f4" clip-path="url(#id_0)" d="M355.0 300.0L335.0 300.0L335.0 130.0C335.0 128.89543 335.89542 128.0 337.0 128.0L353.0 128.0C354.10458 128.0 355.0 128.89543 355.0 130.0Z" fill-rule="nonzero"></path><path stroke="#000000" stroke-width="0.0" stroke-linecap="butt" stroke-opacity="0.0" clip-path="url(#id_0)" d="M386.0 300.0L366.0 300.0L366.0 101.0C366.0 99.89543 366.89542 99.0 368.0 99.0L384.0 99.0C385.10458 99.0 386.0 99.89543 386.0 101.0Z" fill-rule="nonzero"></path><path fill="#4285f4" clip-path="url(#id_0)" d="M386.0 300.0L366.0 300.0L366.0 101.0C366.0 99.89543 366.89542 99.0 368.0 99.0L384.0 99.0C385.10458 99.0 386.0 99.89543 386.0 101.0Z" fill-rule="nonzero"></path><path stroke="#000000" stroke-width="0.0" stroke-linecap="butt" stroke-opacity="0.0" clip-path="url(#id_0)" d="M417.0 300.0L397.0 300.0L397.0 90.0C397.0 88.89543 397.89542 88.0 399.0 88.0L415.0 88.0C416.10458 88.0 417.0 88.89543 417.0 90.0Z" fill-rule="nonzero"></path><path fill="#4285f4" clip-path="url(#id_0)" d="M417.0 300.0L397.0 300.0L397.0 90.0C397.0 88.89543 397.89542 88.0 399.0 88.0L415.0 88.0C416.10458 88.0 417.0 88.89543 417.0 90.0Z" fill-rule="nonzero"></path><path stroke="#000000" stroke-width="0.0" stroke-linecap="butt" stroke-opacity="0.0" clip-path="url(#id_0)" d="M447.0 300.0L427.0 300.0L427.0 138.0C427.0 136.89543 427.89542 136.0 429.0 136.0L445.0 136.0C446.10458 136.0 447.0 136.89543 447.0 138.0Z" fill-rule="nonzero"></path><path fill="#4285f4" clip-path="url(#id_0)" d="M447.0 300.0L427.0 300.0L427.0 138.0C427.0 136.89543 427.89542 136.0 429.0 136.0L445.0 136.0C446.10458 136.0 447.0 136.89543 447.0 138.0Z" fill-rule="nonzero"></path><path stroke="#000000" stroke-width="0.0" stroke-linecap="butt" stroke-opacity="0.0" clip-path="url(#id_0)" d="M478.0 300.0L458.0 300.0L458.0 200.0C458.0 198.89543 458.89542 198.0 460.0 198.0L476.0 198.0C477.10458 198.0 478.0 198.89543 478.0 200.0Z" fill-rule="nonzero"></path><path fill="#4285f4" clip-path="url(#id_0)" d="M478.0 300.0L458.0 300.0L458.0 200.0C458.0 198.89543 458.89542 198.0 460.0 198.0L476.0 198.0C477.10458 198.0 478.0 198.89543 478.0 200.0Z" fill-rule="nonzero"></path><path stroke="#000000" stroke-width="0.0" stroke-linecap="butt" stroke-opacity="0.0" clip-path="url(#id_0)" d="M509.0 300.0L489.0 300.0L489.0 247.0C489.0 245.89543 489.89542 245.0 491.0 245.0L507.0 245.0C508.10458 245.0 509.0 245.89543 509.0 247.0Z" fill-rule="nonzero"></path><path fill="#4285f4" clip-path="url(#id_0)" d="M509.0 300.0L489.0 300.0L489.0 247.0C489.0 245.89543 489.89542 245.0 491.0 245.0L507.0 245.0C508.10458 245.0 509.0 245.89543 509.0 247.0Z" fill-rule="nonzero"></path><path stroke="#000000" stroke-width="0.0" stroke-linecap="butt" stroke-opacity="0.0" clip-path="url(#id_0)" d="M540.0 300.0L520.0 300.0L520.0 288.0C520.0 286.89542 520.89545 286.0 522.0 286.0L538.0 286.0C539.10455 286.0 540.0 286.89542 540.0 288.0Z" fill-rule="nonzero"></path><path fill="#4285f4" clip-path="url(#id_0)" d="M540.0 300.0L520.0 300.0L520.0 288.0C520.0 286.89542 520.89545 286.0 522.0 286.0L538.0 286.0C539.10455 286.0 540.0 286.89542 540.0 288.0Z" fill-rule="nonzero"></path><path stroke="#000000" stroke-width="0.0" stroke-linecap="butt" stroke-opacity="0.0" clip-path="url(#id_0)" d="M571.0 300.0L551.0 300.0L551.0 295.0C551.0 293.89542 551.89545 293.0 553.0 293.0L569.0 293.0C570.10455 293.0 571.0 293.89542 571.0 295.0Z" fill-rule="nonzero"></path><path fill="#4285f4" clip-path="url(#id_0)" d="M571.0 300.0L551.0 300.0L551.0 295.0C551.0 293.89542 551.89545 293.0 553.0 293.0L569.0 293.0C570.10455 293.0 571.0 293.89542 571.0 295.0Z" fill-rule="nonzero"></path><path stroke="#6aa84f" stroke-width="3.0" stroke-linecap="butt" clip-path="url(#id_0)" d="M98.35321 278.458C98.35321 278.458 118.89959 274.18176 129.17278 271.12732C139.44597 268.07288 149.71916 264.40756 159.99236 260.13135C170.26555 255.85512 180.53874 250.968 190.81192 245.47C201.08511 239.972 211.3583 233.25223 221.6315 227.14333C231.9047 221.03444 242.17789 216.14734 252.45107 208.81667C262.72427 201.486 272.99744 191.71178 283.27063 183.15933C293.54382 174.60689 303.81702 166.66533 314.0902 157.502C324.3634 148.33867 334.6366 137.95355 344.9098 128.17934C355.18298 118.40511 365.45618 105.57645 375.72937 98.85667C386.00256 92.13689 396.27573 81.75178 406.54892 87.860664C416.8221 93.96956 427.0953 117.183334 437.3685 135.51C447.6417 153.83667 457.9149 179.494 468.18808 197.82066C478.46127 216.14734 488.73447 230.80867 499.00766 245.47C509.28082 260.13135 519.554 277.8471 529.8272 285.78867C540.1004 293.73022 560.6468 293.11932 560.6468 293.11932" fill-rule="nonzero"></path><path fill="#000000" fill-opacity="0.0" clip-path="url(#id_0)" d="M101.35321 278.458C101.35321 280.11487 100.01006 281.458 98.35321 281.458C96.69636 281.458 95.35321 280.11487 95.35321 278.458C95.35321 276.80115 96.69636 275.458 98.35321 275.458C100.01006 275.458 101.35321 276.80115 101.35321 278.458Z" fill-rule="nonzero"></path><path fill="#000000" fill-opacity="0.0" clip-path="url(#id_0)" d="M132.17278 271.12732C132.17278 272.78418 130.82964 274.12732 129.17278 274.12732C127.51593 274.12732 126.17278 272.78418 126.17278 271.12732C126.17278 269.4705 127.51593 268.12732 129.17278 268.12732C130.82964 268.12732 132.17278 269.4705 132.17278 271.12732Z" fill-rule="nonzero"></path><path fill="#000000" fill-opacity="0.0" clip-path="url(#id_0)" d="M162.99236 260.13135C162.99236 261.78818 161.64922 263.13135 159.99236 263.13135C158.3355 263.13135 156.99236 261.78818 156.99236 260.13135C156.99236 258.4745 158.3355 257.13135 159.99236 257.13135C161.64922 257.13135 162.99236 258.4745 162.99236 260.13135Z" fill-rule="nonzero"></path><path fill="#000000" fill-opacity="0.0" clip-path="url(#id_0)" d="M193.81192 245.47C193.81192 247.12686 192.46878 248.47 190.81192 248.47C189.15508 248.47 187.81192 247.12686 187.81192 245.47C187.81192 243.81314 189.15508 242.47 190.81192 242.47C192.46878 242.47 193.81192 243.81314 193.81192 245.47Z" fill-rule="nonzero"></path><path fill="#000000" fill-opacity="0.0" clip-path="url(#id_0)" d="M224.6315 227.14333C224.6315 228.80019 223.28835 230.14333 221.6315 230.14333C219.97464 230.14333 218.6315 228.80019 218.6315 227.14333C218.6315 225.48648 219.97464 224.14333 221.6315 224.14333C223.28835 224.14333 224.6315 225.48648 224.6315 227.14333Z" fill-rule="nonzero"></path><path fill="#000000" fill-opacity="0.0" clip-path="url(#id_0)" d="M255.45107 208.81667C255.45107 210.47353 254.10793 211.81667 252.45107 211.81667C250.79422 211.81667 249.45107 210.47353 249.45107 208.81667C249.45107 207.1598 250.79422 205.81667 252.45107 205.81667C254.10793 205.81667 255.45107 207.1598 255.45107 208.81667Z" fill-rule="nonzero"></path><path fill="#000000" fill-opacity="0.0" clip-path="url(#id_0)" d="M286.27063 183.15933C286.27063 184.8162 284.9275 186.15933 283.27063 186.15933C281.6138 186.15933 280.27063 184.8162 280.27063 183.15933C280.27063 181.50247 281.6138 180.15933 283.27063 180.15933C284.9275 180.15933 286.27063 181.50247 286.27063 183.15933Z" fill-rule="nonzero"></path><path fill="#000000" fill-opacity="0.0" clip-path="url(#id_0)" d="M317.0902 157.502C317.0902 159.15886 315.74707 160.502 314.0902 160.502C312.43335 160.502 311.0902 159.15886 311.0902 157.502C311.0902 155.84514 312.43335 154.502 314.0902 154.502C315.74707 154.502 317.0902 155.84514 317.0902 157.502Z" fill-rule="nonzero"></path><path fill="#000000" fill-opacity="0.0" clip-path="url(#id_0)" d="M347.9098 128.17934C347.9098 129.83618 346.56665 131.17934 344.9098 131.17934C343.25293 131.17934 341.9098 129.83618 341.9098 128.17934C341.9098 126.52248 343.25293 125.17934 344.9098 125.17934C346.56665 125.17934 347.9098 126.52248 347.9098 128.17934Z" fill-rule="nonzero"></path><path fill="#000000" fill-opacity="0.0" clip-path="url(#id_0)" d="M378.72937 98.85667C378.72937 100.51352 377.3862 101.85667 375.72937 101.85667C374.0725 101.85667 372.72937 100.51352 372.72937 98.85667C372.72937 97.199814 374.0725 95.85667 375.72937 95.85667C377.3862 95.85667 378.72937 97.199814 378.72937 98.85667Z" fill-rule="nonzero"></path><path fill="#000000" fill-opacity="0.0" clip-path="url(#id_0)" d="M409.54892 87.860664C409.54892 89.517525 408.20578 90.860664 406.54892 90.860664C404.8921 90.860664 403.54892 89.517525 403.54892 87.860664C403.54892 86.20381 404.8921 84.860664 406.54892 84.860664C408.20578 84.860664 409.54892 86.20381 409.54892 87.860664Z" fill-rule="nonzero"></path><path fill="#000000" fill-opacity="0.0" clip-path="url(#id_0)" d="M440.3685 135.51C440.3685 137.16685 439.02536 138.51 437.3685 138.51C435.71164 138.51 434.3685 137.16685 434.3685 135.51C434.3685 133.85315 435.71164 132.51 437.3685 132.51C439.02536 132.51 440.3685 133.85315 440.3685 135.51Z" fill-rule="nonzero"></path><path fill="#000000" fill-opacity="0.0" clip-path="url(#id_0)" d="M471.18808 197.82066C471.18808 199.47752 469.84494 200.82066 468.18808 200.82066C466.53122 200.82066 465.18808 199.47752 465.18808 197.82066C465.18808 196.16382 466.53122 194.82066 468.18808 194.82066C469.84494 194.82066 471.18808 196.16382 471.18808 197.82066Z" fill-rule="nonzero"></path><path fill="#000000" fill-opacity="0.0" clip-path="url(#id_0)" d="M502.00766 245.47C502.00766 247.12686 500.6645 248.47 499.00766 248.47C497.3508 248.47 496.00766 247.12686 496.00766 245.47C496.00766 243.81314 497.3508 242.47 499.00766 242.47C500.6645 242.47 502.00766 243.81314 502.00766 245.47Z" fill-rule="nonzero"></path><path fill="#000000" fill-opacity="0.0" clip-path="url(#id_0)" d="M532.8272 285.78867C532.8272 287.44553 531.4841 288.78867 529.8272 288.78867C528.17035 288.78867 526.8272 287.44553 526.8272 285.78867C526.8272 284.1318 528.17035 282.78867 529.8272 282.78867C531.4841 282.78867 532.8272 284.1318 532.8272 285.78867Z" fill-rule="nonzero"></path><path fill="#000000" fill-opacity="0.0" clip-path="url(#id_0)" d="M563.6468 293.11932C563.6468 294.77618 562.30365 296.11932 560.6468 296.11932C558.9899 296.11932 557.6468 294.77618 557.6468 293.11932C557.6468 291.4625 558.9899 290.11932 560.6468 290.11932C562.30365 290.11932 563.6468 291.4625 563.6468 293.11932Z" fill-rule="nonzero"></path><path fill="#ffffff" clip-path="url(#id_0)" d="M344.9098 80.53C344.9098 80.53 344.9098 80.53 344.9098 80.53C344.9098 80.53 344.9098 80.53 344.9098 80.53C344.9098 80.53 344.9098 80.53 344.9098 80.53C344.9098 80.53 344.9098 80.53 344.9098 80.53Z" fill-rule="nonzero"></path><path fill="#ffffff" clip-path="url(#id_0)" d="M375.72937 80.53C375.72937 80.53 375.72937 80.53 375.72937 80.53C375.72937 80.53 375.72937 80.53 375.72937 80.53C375.72937 80.53 375.72937 80.53 375.72937 80.53C375.72937 80.53 375.72937 80.53 375.72937 80.53Z" fill-rule="nonzero"></path><path fill="#ffffff" clip-path="url(#id_0)" d="M406.54892 80.53C406.54892 80.53 406.54892 80.53 406.54892 80.53C406.54892 80.53 406.54892 80.53 406.54892 80.53C406.54892 80.53 406.54892 80.53 406.54892 80.53C406.54892 80.53 406.54892 80.53 406.54892 80.53Z" fill-rule="nonzero"></path><path stroke="#ffffff" stroke-width="3.0" stroke-linejoin="round" stroke-linecap="round" d="M332.44415 86.35588L335.24103 93.309006L338.02228 86.35588L339.49103 86.35588L339.49103 94.88713L338.36603 94.88713L338.36603 91.559006L338.4754 87.98088L335.6629 94.88713L334.80353 94.88713L332.00665 87.996506L332.11603 91.559006L332.11603 94.88713L330.99103 94.88713L330.99103 86.35588L332.44415 86.35588ZM343.45978 95.01213Q342.1629 95.01213 341.3504 94.16838Q340.55353 93.309006 340.55353 91.88713L340.55353 91.69963Q340.55353 90.746506 340.9129 90.01213Q341.27228 89.26213 341.9129 88.85588Q342.56915 88.434006 343.31915 88.434006Q344.55353 88.434006 345.24103 89.246506Q345.92853 90.059006 345.92853 91.57463L345.92853 92.027756L341.63165 92.027756Q341.6629 92.965256 342.17853 93.54338Q342.70978 94.121506 343.52228 94.121506Q344.08478 94.121506 344.4754 93.88713Q344.88165 93.652756 345.19415 93.26213L345.8504 93.777756Q345.05353 95.01213 343.45978 95.01213ZM343.31915 89.32463Q342.6629 89.32463 342.20978 89.809006Q341.77228 90.277756 341.67853 91.13713L344.8504 91.13713L344.8504 91.059006Q344.80353 90.23088 344.39728 89.777756Q344.00665 89.32463 343.31915 89.32463ZM350.74103 94.88713Q350.64728 94.69963 350.58478 94.215256Q349.83478 95.01213 348.7879 95.01213Q347.8504 95.01213 347.24103 94.48088Q346.64728 93.94963 346.64728 93.121506Q346.64728 92.13713 347.39728 91.590256Q348.14728 91.04338 349.52228 91.04338L350.56915 91.04338L350.56915 90.54338Q350.56915 89.98088 350.2254 89.652756Q349.89728 89.309006 349.2254 89.309006Q348.64728 89.309006 348.25665 89.60588Q347.86603 89.88713 347.86603 90.309006L346.77228 90.309006Q346.77228 89.82463 347.1004 89.38713Q347.44415 88.94963 348.02228 88.69963Q348.6004 88.434006 349.2879 88.434006Q350.39728 88.434006 351.00665 88.98088Q351.63165 89.527756 351.6629 90.48088L351.6629 93.402756Q351.6629 94.277756 351.88165 94.79338L351.88165 94.88713L350.74103 94.88713ZM348.94415 94.059006Q349.45978 94.059006 349.9129 93.79338Q350.36603 93.527756 350.56915 93.10588L350.56915 91.809006L349.7254 91.809006Q347.7254 91.809006 347.7254 92.98088Q347.7254 93.48088 348.06915 93.777756Q348.4129 94.059006 348.94415 94.059006ZM354.8504 88.54338L354.88165 89.340256Q355.61603 88.434006 356.7879 88.434006Q358.80353 88.434006 358.81915 90.69963L358.81915 94.88713L357.7254 94.88713L357.7254 90.684006Q357.7254 90.01213 357.4129 89.684006Q357.11603 89.35588 356.45978 89.35588Q355.92853 89.35588 355.52228 89.63713Q355.13165 89.91838 354.9129 90.371506L354.9129 94.88713L353.83478 94.88713L353.83478 88.54338L354.8504 88.54338Z" fill-rule="nonzero"></path><path fill="#000000" d="M332.44415 86.35588L335.24103 93.309006L338.02228 86.35588L339.49103 86.35588L339.49103 94.88713L338.36603 94.88713L338.36603 91.559006L338.4754 87.98088L335.6629 94.88713L334.80353 94.88713L332.00665 87.996506L332.11603 91.559006L332.11603 94.88713L330.99103 94.88713L330.99103 86.35588L332.44415 86.35588ZM343.45978 95.01213Q342.1629 95.01213 341.3504 94.16838Q340.55353 93.309006 340.55353 91.88713L340.55353 91.69963Q340.55353 90.746506 340.9129 90.01213Q341.27228 89.26213 341.9129 88.85588Q342.56915 88.434006 343.31915 88.434006Q344.55353 88.434006 345.24103 89.246506Q345.92853 90.059006 345.92853 91.57463L345.92853 92.027756L341.63165 92.027756Q341.6629 92.965256 342.17853 93.54338Q342.70978 94.121506 343.52228 94.121506Q344.08478 94.121506 344.4754 93.88713Q344.88165 93.652756 345.19415 93.26213L345.8504 93.777756Q345.05353 95.01213 343.45978 95.01213ZM343.31915 89.32463Q342.6629 89.32463 342.20978 89.809006Q341.77228 90.277756 341.67853 91.13713L344.8504 91.13713L344.8504 91.059006Q344.80353 90.23088 344.39728 89.777756Q344.00665 89.32463 343.31915 89.32463ZM350.74103 94.88713Q350.64728 94.69963 350.58478 94.215256Q349.83478 95.01213 348.7879 95.01213Q347.8504 95.01213 347.24103 94.48088Q346.64728 93.94963 346.64728 93.121506Q346.64728 92.13713 347.39728 91.590256Q348.14728 91.04338 349.52228 91.04338L350.56915 91.04338L350.56915 90.54338Q350.56915 89.98088 350.2254 89.652756Q349.89728 89.309006 349.2254 89.309006Q348.64728 89.309006 348.25665 89.60588Q347.86603 89.88713 347.86603 90.309006L346.77228 90.309006Q346.77228 89.82463 347.1004 89.38713Q347.44415 88.94963 348.02228 88.69963Q348.6004 88.434006 349.2879 88.434006Q350.39728 88.434006 351.00665 88.98088Q351.63165 89.527756 351.6629 90.48088L351.6629 93.402756Q351.6629 94.277756 351.88165 94.79338L351.88165 94.88713L350.74103 94.88713ZM348.94415 94.059006Q349.45978 94.059006 349.9129 93.79338Q350.36603 93.527756 350.56915 93.10588L350.56915 91.809006L349.7254 91.809006Q347.7254 91.809006 347.7254 92.98088Q347.7254 93.48088 348.06915 93.777756Q348.4129 94.059006 348.94415 94.059006ZM354.8504 88.54338L354.88165 89.340256Q355.61603 88.434006 356.7879 88.434006Q358.80353 88.434006 358.81915 90.69963L358.81915 94.88713L357.7254 94.88713L357.7254 90.684006Q357.7254 90.01213 357.4129 89.684006Q357.11603 89.35588 356.45978 89.35588Q355.92853 89.35588 355.52228 89.63713Q355.13165 89.91838 354.9129 90.371506L354.9129 94.88713L353.83478 94.88713L353.83478 88.54338L354.8504 88.54338Z" fill-rule="nonzero"></path><path stroke="#ffffff" stroke-width="3.0" stroke-linejoin="round" stroke-linecap="round" d="M358.45233 61.802467L361.2492 68.75559L364.03046 61.802467L365.4992 61.802467L365.4992 70.33372L364.3742 70.33372L364.3742 67.00559L364.48358 63.427467L361.67108 70.33372L360.8117 70.33372L358.01483 63.443092L358.1242 67.00559L358.1242 70.33372L356.9992 70.33372L356.9992 61.802467L358.45233 61.802467ZM369.46796 70.45872Q368.17108 70.45872 367.35858 69.61497Q366.5617 68.75559 366.5617 67.33372L366.5617 67.14622Q366.5617 66.19309 366.92108 65.45872Q367.28046 64.70872 367.92108 64.30247Q368.57733 63.880592 369.32733 63.880592Q370.5617 63.880592 371.2492 64.69309Q371.9367 65.50559 371.9367 67.02122L371.9367 67.47434L367.63983 67.47434Q367.67108 68.41184 368.1867 68.98997Q368.71796 69.56809 369.53046 69.56809Q370.09296 69.56809 370.48358 69.33372Q370.88983 69.09934 371.20233 68.70872L371.85858 69.22434Q371.0617 70.45872 369.46796 70.45872ZM369.32733 64.77122Q368.67108 64.77122 368.21796 65.25559Q367.78046 65.72434 367.6867 66.58372L370.85858 66.58372L370.85858 66.50559Q370.8117 65.67747 370.40546 65.22434Q370.01483 64.77122 369.32733 64.77122ZM372.57733 67.11497Q372.57733 65.64622 373.26483 64.77122Q373.95233 63.880592 375.07733 63.880592Q376.1867 63.880592 376.84296 64.63059L376.84296 61.333717L377.92108 61.333717L377.92108 70.33372L376.92108 70.33372L376.8742 69.64622Q376.21796 70.45872 375.0617 70.45872Q373.96796 70.45872 373.26483 69.55247Q372.57733 68.64622 372.57733 67.19309L372.57733 67.11497ZM373.65546 67.23997Q373.65546 68.31809 374.09296 68.92747Q374.54608 69.53684 375.32733 69.53684Q376.35858 69.53684 376.84296 68.59934L376.84296 65.69309Q376.35858 64.80247 375.34296 64.80247Q374.54608 64.80247 374.09296 65.41184Q373.65546 66.02122 373.65546 67.23997ZM381.01483 70.33372L379.9367 70.33372L379.9367 63.989967L381.01483 63.989967L381.01483 70.33372ZM379.84296 62.318092Q379.84296 62.052467 379.9992 61.864967Q380.17108 61.677467 380.48358 61.677467Q380.79608 61.677467 380.95233 61.864967Q381.1242 62.052467 381.1242 62.318092Q381.1242 62.568092 380.95233 62.755592Q380.79608 62.927467 380.48358 62.927467Q380.17108 62.927467 379.9992 62.755592Q379.84296 62.568092 379.84296 62.318092ZM386.7492 70.33372Q386.65546 70.14622 386.59296 69.66184Q385.84296 70.45872 384.79608 70.45872Q383.85858 70.45872 383.2492 69.92747Q382.65546 69.39622 382.65546 68.56809Q382.65546 67.58372 383.40546 67.03684Q384.15546 66.48997 385.53046 66.48997L386.57733 66.48997L386.57733 65.98997Q386.57733 65.42747 386.23358 65.09934Q385.90546 64.75559 385.23358 64.75559Q384.65546 64.75559 384.26483 65.05247Q383.8742 65.33372 383.8742 65.75559L382.78046 65.75559Q382.78046 65.27122 383.10858 64.83372Q383.45233 64.39622 384.03046 64.14622Q384.60858 63.880592 385.29608 63.880592Q386.40546 63.880592 387.01483 64.42747Q387.63983 64.97434 387.67108 65.92747L387.67108 68.84934Q387.67108 69.72434 387.88983 70.23997L387.88983 70.33372L386.7492 70.33372ZM384.95233 69.50559Q385.46796 69.50559 385.92108 69.23997Q386.3742 68.97434 386.57733 68.55247L386.57733 67.25559L385.73358 67.25559Q383.73358 67.25559 383.73358 68.42747Q383.73358 68.92747 384.07733 69.22434Q384.42108 69.50559 384.95233 69.50559ZM390.85858 63.989967L390.88983 64.78684Q391.6242 63.880592 392.79608 63.880592Q394.8117 63.880592 394.82733 66.14622L394.82733 70.33372L393.73358 70.33372L393.73358 66.13059Q393.73358 65.45872 393.42108 65.13059Q393.1242 64.80247 392.46796 64.80247Q391.9367 64.80247 391.53046 65.08372Q391.13983 65.36497 390.92108 65.81809L390.92108 70.33372L389.84296 70.33372L389.84296 63.989967L390.85858 63.989967Z" fill-rule="nonzero"></path><path fill="#000000" d="M358.45233 61.802467L361.2492 68.75559L364.03046 61.802467L365.4992 61.802467L365.4992 70.33372L364.3742 70.33372L364.3742 67.00559L364.48358 63.427467L361.67108 70.33372L360.8117 70.33372L358.01483 63.443092L358.1242 67.00559L358.1242 70.33372L356.9992 70.33372L356.9992 61.802467L358.45233 61.802467ZM369.46796 70.45872Q368.17108 70.45872 367.35858 69.61497Q366.5617 68.75559 366.5617 67.33372L366.5617 67.14622Q366.5617 66.19309 366.92108 65.45872Q367.28046 64.70872 367.92108 64.30247Q368.57733 63.880592 369.32733 63.880592Q370.5617 63.880592 371.2492 64.69309Q371.9367 65.50559 371.9367 67.02122L371.9367 67.47434L367.63983 67.47434Q367.67108 68.41184 368.1867 68.98997Q368.71796 69.56809 369.53046 69.56809Q370.09296 69.56809 370.48358 69.33372Q370.88983 69.09934 371.20233 68.70872L371.85858 69.22434Q371.0617 70.45872 369.46796 70.45872ZM369.32733 64.77122Q368.67108 64.77122 368.21796 65.25559Q367.78046 65.72434 367.6867 66.58372L370.85858 66.58372L370.85858 66.50559Q370.8117 65.67747 370.40546 65.22434Q370.01483 64.77122 369.32733 64.77122ZM372.57733 67.11497Q372.57733 65.64622 373.26483 64.77122Q373.95233 63.880592 375.07733 63.880592Q376.1867 63.880592 376.84296 64.63059L376.84296 61.333717L377.92108 61.333717L377.92108 70.33372L376.92108 70.33372L376.8742 69.64622Q376.21796 70.45872 375.0617 70.45872Q373.96796 70.45872 373.26483 69.55247Q372.57733 68.64622 372.57733 67.19309L372.57733 67.11497ZM373.65546 67.23997Q373.65546 68.31809 374.09296 68.92747Q374.54608 69.53684 375.32733 69.53684Q376.35858 69.53684 376.84296 68.59934L376.84296 65.69309Q376.35858 64.80247 375.34296 64.80247Q374.54608 64.80247 374.09296 65.41184Q373.65546 66.02122 373.65546 67.23997ZM381.01483 70.33372L379.9367 70.33372L379.9367 63.989967L381.01483 63.989967L381.01483 70.33372ZM379.84296 62.318092Q379.84296 62.052467 379.9992 61.864967Q380.17108 61.677467 380.48358 61.677467Q380.79608 61.677467 380.95233 61.864967Q381.1242 62.052467 381.1242 62.318092Q381.1242 62.568092 380.95233 62.755592Q380.79608 62.927467 380.48358 62.927467Q380.17108 62.927467 379.9992 62.755592Q379.84296 62.568092 379.84296 62.318092ZM386.7492 70.33372Q386.65546 70.14622 386.59296 69.66184Q385.84296 70.45872 384.79608 70.45872Q383.85858 70.45872 383.2492 69.92747Q382.65546 69.39622 382.65546 68.56809Q382.65546 67.58372 383.40546 67.03684Q384.15546 66.48997 385.53046 66.48997L386.57733 66.48997L386.57733 65.98997Q386.57733 65.42747 386.23358 65.09934Q385.90546 64.75559 385.23358 64.75559Q384.65546 64.75559 384.26483 65.05247Q383.8742 65.33372 383.8742 65.75559L382.78046 65.75559Q382.78046 65.27122 383.10858 64.83372Q383.45233 64.39622 384.03046 64.14622Q384.60858 63.880592 385.29608 63.880592Q386.40546 63.880592 387.01483 64.42747Q387.63983 64.97434 387.67108 65.92747L387.67108 68.84934Q387.67108 69.72434 387.88983 70.23997L387.88983 70.33372L386.7492 70.33372ZM384.95233 69.50559Q385.46796 69.50559 385.92108 69.23997Q386.3742 68.97434 386.57733 68.55247L386.57733 67.25559L385.73358 67.25559Q383.73358 67.25559 383.73358 68.42747Q383.73358 68.92747 384.07733 69.22434Q384.42108 69.50559 384.95233 69.50559ZM390.85858 63.989967L390.88983 64.78684Q391.6242 63.880592 392.79608 63.880592Q394.8117 63.880592 394.82733 66.14622L394.82733 70.33372L393.73358 70.33372L393.73358 66.13059Q393.73358 65.45872 393.42108 65.13059Q393.1242 64.80247 392.46796 64.80247Q391.9367 64.80247 391.53046 65.08372Q391.13983 65.36497 390.92108 65.81809L390.92108 70.33372L389.84296 70.33372L389.84296 63.989967L390.85858 63.989967Z" fill-rule="nonzero"></path><path stroke="#ffffff" stroke-width="3.0" stroke-linejoin="round" stroke-linecap="round" d="M393.8532 37.249054L396.6501 44.20218L399.43134 37.249054L400.9001 37.249054L400.9001 45.780304L399.7751 45.780304L399.7751 42.45218L399.88446 38.874054L397.07196 45.780304L396.2126 45.780304L393.4157 38.88968L393.5251 42.45218L393.5251 45.780304L392.4001 45.780304L392.4001 37.249054L393.8532 37.249054ZM401.94696 42.54593Q401.94696 41.624054 402.30634 40.874054Q402.68134 40.124054 403.3376 39.73343Q403.99384 39.32718 404.82196 39.32718Q406.11884 39.32718 406.9157 40.217804Q407.7282 41.10843 407.7282 42.60843L407.7282 42.686554Q407.7282 43.60843 407.36884 44.342804Q407.00946 45.07718 406.3532 45.499054Q405.69696 45.905304 404.8376 45.905304Q403.55634 45.905304 402.74384 45.01468Q401.94696 44.10843 401.94696 42.624054L401.94696 42.54593ZM403.0407 42.686554Q403.0407 43.73343 403.5251 44.374054Q404.0251 45.01468 404.8376 45.01468Q405.6657 45.01468 406.1501 44.374054Q406.63446 43.717804 406.63446 42.54593Q406.63446 41.51468 406.13446 40.874054Q405.6501 40.217804 404.82196 40.217804Q404.0251 40.217804 403.5251 40.85843Q403.0407 41.48343 403.0407 42.686554ZM408.9782 42.561554Q408.9782 41.092804 409.6657 40.217804Q410.3532 39.32718 411.4782 39.32718Q412.5876 39.32718 413.24384 40.07718L413.24384 36.780304L414.32196 36.780304L414.32196 45.780304L413.32196 45.780304L413.2751 45.092804Q412.61884 45.905304 411.4626 45.905304Q410.36884 45.905304 409.6657 44.999054Q408.9782 44.092804 408.9782 42.63968L408.9782 42.561554ZM410.05634 42.686554Q410.05634 43.76468 410.49384 44.374054Q410.94696 44.98343 411.7282 44.98343Q412.75946 44.98343 413.24384 44.04593L413.24384 41.13968Q412.75946 40.249054 411.74384 40.249054Q410.94696 40.249054 410.49384 40.85843Q410.05634 41.467804 410.05634 42.686554ZM418.86884 45.905304Q417.57196 45.905304 416.75946 45.061554Q415.9626 44.20218 415.9626 42.780304L415.9626 42.592804Q415.9626 41.63968 416.32196 40.905304Q416.68134 40.155304 417.32196 39.749054Q417.9782 39.32718 418.7282 39.32718Q419.9626 39.32718 420.6501 40.13968Q421.3376 40.95218 421.3376 42.467804L421.3376 42.92093L417.0407 42.92093Q417.07196 43.85843 417.5876 44.436554Q418.11884 45.01468 418.93134 45.01468Q419.49384 45.01468 419.88446 44.780304Q420.2907 44.54593 420.6032 44.155304L421.25946 44.67093Q420.4626 45.905304 418.86884 45.905304ZM418.7282 40.217804Q418.07196 40.217804 417.61884 40.70218Q417.18134 41.17093 417.0876 42.030304L420.25946 42.030304L420.25946 41.95218Q420.2126 41.124054 419.80634 40.67093Q419.4157 40.217804 418.7282 40.217804Z" fill-rule="nonzero"></path><path fill="#000000" d="M393.8532 37.249054L396.6501 44.20218L399.43134 37.249054L400.9001 37.249054L400.9001 45.780304L399.7751 45.780304L399.7751 42.45218L399.88446 38.874054L397.07196 45.780304L396.2126 45.780304L393.4157 38.88968L393.5251 42.45218L393.5251 45.780304L392.4001 45.780304L392.4001 37.249054L393.8532 37.249054ZM401.94696 42.54593Q401.94696 41.624054 402.30634 40.874054Q402.68134 40.124054 403.3376 39.73343Q403.99384 39.32718 404.82196 39.32718Q406.11884 39.32718 406.9157 40.217804Q407.7282 41.10843 407.7282 42.60843L407.7282 42.686554Q407.7282 43.60843 407.36884 44.342804Q407.00946 45.07718 406.3532 45.499054Q405.69696 45.905304 404.8376 45.905304Q403.55634 45.905304 402.74384 45.01468Q401.94696 44.10843 401.94696 42.624054L401.94696 42.54593ZM403.0407 42.686554Q403.0407 43.73343 403.5251 44.374054Q404.0251 45.01468 404.8376 45.01468Q405.6657 45.01468 406.1501 44.374054Q406.63446 43.717804 406.63446 42.54593Q406.63446 41.51468 406.13446 40.874054Q405.6501 40.217804 404.82196 40.217804Q404.0251 40.217804 403.5251 40.85843Q403.0407 41.48343 403.0407 42.686554ZM408.9782 42.561554Q408.9782 41.092804 409.6657 40.217804Q410.3532 39.32718 411.4782 39.32718Q412.5876 39.32718 413.24384 40.07718L413.24384 36.780304L414.32196 36.780304L414.32196 45.780304L413.32196 45.780304L413.2751 45.092804Q412.61884 45.905304 411.4626 45.905304Q410.36884 45.905304 409.6657 44.999054Q408.9782 44.092804 408.9782 42.63968L408.9782 42.561554ZM410.05634 42.686554Q410.05634 43.76468 410.49384 44.374054Q410.94696 44.98343 411.7282 44.98343Q412.75946 44.98343 413.24384 44.04593L413.24384 41.13968Q412.75946 40.249054 411.74384 40.249054Q410.94696 40.249054 410.49384 40.85843Q410.05634 41.467804 410.05634 42.686554ZM418.86884 45.905304Q417.57196 45.905304 416.75946 45.061554Q415.9626 44.20218 415.9626 42.780304L415.9626 42.592804Q415.9626 41.63968 416.32196 40.905304Q416.68134 40.155304 417.32196 39.749054Q417.9782 39.32718 418.7282 39.32718Q419.9626 39.32718 420.6501 40.13968Q421.3376 40.95218 421.3376 42.467804L421.3376 42.92093L417.0407 42.92093Q417.07196 43.85843 417.5876 44.436554Q418.11884 45.01468 418.93134 45.01468Q419.49384 45.01468 419.88446 44.780304Q420.2907 44.54593 420.6032 44.155304L421.25946 44.67093Q420.4626 45.905304 418.86884 45.905304ZM418.7282 40.217804Q418.07196 40.217804 417.61884 40.70218Q417.18134 41.17093 417.0876 42.030304L420.25946 42.030304L420.25946 41.95218Q420.2126 41.124054 419.80634 40.67093Q419.4157 40.217804 418.7282 40.217804Z" fill-rule="nonzero"></path><path fill="#000000" d="M228.92188 349.45L228.92188 340.85626L230.07812 340.85626L234.59375 347.60626L234.59375 340.85626L235.6875 340.85626L235.6875 349.45L234.51562 349.45L230.0 342.7L230.0 349.45L228.92188 349.45ZM241.875 349.45L241.875 348.52814Q241.14062 349.59064 239.89062 349.59064Q239.34375 349.59064 238.85938 349.3875Q238.39062 349.16876 238.15625 348.85626Q237.92188 348.52814 237.82812 348.0594Q237.76562 347.7625 237.76562 347.075L237.76562 343.23126L238.82812 343.23126L238.82812 346.6844Q238.82812 347.4969 238.89062 347.79376Q238.98438 348.2 239.29688 348.45Q239.625 348.6844 240.10938 348.6844Q240.57812 348.6844 240.98438 348.45Q241.40625 348.2 241.57812 347.77814Q241.76562 347.35626 241.76562 346.5594L241.76562 343.23126L242.8125 343.23126L242.8125 349.45L241.875 349.45ZM244.79688 349.45L244.79688 343.23126L245.73438 343.23126L245.73438 344.10626Q246.03125 343.6375 246.51562 343.3719Q247.0 343.09064 247.625 343.09064Q248.3125 343.09064 248.75 343.3719Q249.20312 343.65314 249.375 344.16876Q250.125 343.09064 251.29688 343.09064Q252.23438 343.09064 252.71875 343.60626Q253.21875 344.10626 253.21875 345.1844L253.21875 349.45L252.17188 349.45L252.17188 345.52814Q252.17188 344.90314 252.0625 344.6219Q251.96875 344.34064 251.70312 344.16876Q251.4375 343.9969 251.0625 343.9969Q250.40625 343.9969 249.96875 344.4344Q249.54688 344.8719 249.54688 345.84064L249.54688 349.45L248.48438 349.45L248.48438 345.40314Q248.48438 344.7 248.21875 344.35626Q247.96875 343.9969 247.39062 343.9969Q246.9375 343.9969 246.5625 344.23126Q246.1875 344.46564 246.01562 344.91876Q245.84375 345.3719 245.84375 346.21564L245.84375 349.45L244.79688 349.45ZM255.76562 349.45L254.78125 349.45L254.78125 340.85626L255.84375 340.85626L255.84375 343.91876Q256.51562 343.09064 257.54688 343.09064Q258.125 343.09064 258.625 343.325Q259.14062 343.54376 259.46875 343.96564Q259.8125 344.3875 260.0 344.98126Q260.1875 345.575 260.1875 346.2469Q260.1875 347.84064 259.39062 348.71564Q258.59375 349.59064 257.5 349.59064Q256.39062 349.59064 255.76562 348.66876L255.76562 349.45ZM255.75 346.29376Q255.75 347.40314 256.0625 347.90314Q256.5625 348.71564 257.40625 348.71564Q258.09375 348.71564 258.59375 348.1219Q259.10938 347.52814 259.10938 346.325Q259.10938 345.10626 258.625 344.52814Q258.14062 343.95 257.45312 343.95Q256.76562 343.95 256.25 344.5594Q255.75 345.15314 255.75 346.29376ZM266.04688 347.45L267.14062 347.575Q266.89062 348.52814 266.1875 349.0594Q265.48438 349.59064 264.40625 349.59064Q263.04688 349.59064 262.23438 348.7469Q261.4375 347.90314 261.4375 346.3875Q261.4375 344.825 262.25 343.96564Q263.0625 343.09064 264.34375 343.09064Q265.59375 343.09064 266.375 343.9344Q267.17188 344.77814 267.17188 346.325Q267.17188 346.41876 267.17188 346.60626L262.53125 346.60626Q262.59375 347.6375 263.10938 348.1844Q263.625 348.71564 264.40625 348.71564Q264.98438 348.71564 265.39062 348.41876Q265.8125 348.10626 266.04688 347.45ZM262.59375 345.7469L266.0625 345.7469Q266.0 344.95 265.67188 344.5594Q265.15625 343.95 264.35938 343.95Q263.625 343.95 263.125 344.4344Q262.64062 344.91876 262.59375 345.7469ZM268.78125 349.45L268.78125 343.23126L269.73438 343.23126L269.73438 344.16876Q270.09375 343.5125 270.39062 343.3094Q270.70312 343.09064 271.07812 343.09064Q271.60938 343.09064 272.15625 343.41876L271.79688 344.40314Q271.40625 344.16876 271.03125 344.16876Q270.67188 344.16876 270.39062 344.3875Q270.125 344.59064 270.01562 344.96564Q269.82812 345.52814 269.82812 346.1844L269.82812 349.45L268.78125 349.45ZM275.40625 346.34064Q275.40625 344.60626 276.35938 343.77814Q277.15625 343.09064 278.3125 343.09064Q279.59375 343.09064 280.40625 343.9344Q281.23438 344.7625 281.23438 346.2469Q281.23438 347.45 280.875 348.1375Q280.51562 348.825 279.8125 349.21564Q279.125 349.59064 278.3125 349.59064Q277.01562 349.59064 276.20312 348.7625Q275.40625 347.91876 275.40625 346.34064ZM276.48438 346.34064Q276.48438 347.52814 277.0 348.1219Q277.53125 348.71564 278.3125 348.71564Q279.10938 348.71564 279.625 348.1219Q280.14062 347.52814 280.14062 346.3094Q280.14062 345.15314 279.60938 344.5594Q279.09375 343.96564 278.3125 343.96564Q277.53125 343.96564 277.0 344.5594Q276.48438 345.1375 276.48438 346.34064ZM283.04688 349.45L283.04688 344.04376L282.10938 344.04376L282.10938 343.23126L283.04688 343.23126L283.04688 342.5594Q283.04688 341.9344 283.15625 341.6375Q283.3125 341.21564 283.6875 340.96564Q284.07812 340.71564 284.76562 340.71564Q285.21875 340.71564 285.75 340.825L285.59375 341.73126Q285.26562 341.6844 284.96875 341.6844Q284.48438 341.6844 284.28125 341.8875Q284.09375 342.09064 284.09375 342.65314L284.09375 343.23126L285.3125 343.23126L285.3125 344.04376L284.09375 344.04376L284.09375 349.45L283.04688 349.45ZM289.76562 349.45L288.78125 349.45L288.78125 340.85626L289.84375 340.85626L289.84375 343.91876Q290.51562 343.09064 291.54688 343.09064Q292.125 343.09064 292.625 343.325Q293.14062 343.54376 293.46875 343.96564Q293.8125 344.3875 294.0 344.98126Q294.1875 345.575 294.1875 346.2469Q294.1875 347.84064 293.39062 348.71564Q292.59375 349.59064 291.5 349.59064Q290.39062 349.59064 289.76562 348.66876L289.76562 349.45ZM289.75 346.29376Q289.75 347.40314 290.0625 347.90314Q290.5625 348.71564 291.40625 348.71564Q292.09375 348.71564 292.59375 348.1219Q293.10938 347.52814 293.10938 346.325Q293.10938 345.10626 292.625 344.52814Q292.14062 343.95 291.45312 343.95Q290.76562 343.95 290.25 344.5594Q289.75 345.15314 289.75 346.29376ZM295.40625 346.34064Q295.40625 344.60626 296.35938 343.77814Q297.15625 343.09064 298.3125 343.09064Q299.59375 343.09064 300.40625 343.9344Q301.23438 344.7625 301.23438 346.2469Q301.23438 347.45 300.875 348.1375Q300.51562 348.825 299.8125 349.21564Q299.125 349.59064 298.3125 349.59064Q297.01562 349.59064 296.20312 348.7625Q295.40625 347.91876 295.40625 346.34064ZM296.48438 346.34064Q296.48438 347.52814 297.0 348.1219Q297.53125 348.71564 298.3125 348.71564Q299.10938 348.71564 299.625 348.1219Q300.14062 347.52814 300.14062 346.3094Q300.14062 345.15314 299.60938 344.5594Q299.09375 343.96564 298.3125 343.96564Q297.53125 343.96564 297.0 344.5594Q296.48438 345.1375 296.48438 346.34064ZM302.40625 346.34064Q302.40625 344.60626 303.35938 343.77814Q304.15625 343.09064 305.3125 343.09064Q306.59375 343.09064 307.40625 343.9344Q308.23438 344.7625 308.23438 346.2469Q308.23438 347.45 307.875 348.1375Q307.51562 348.825 306.8125 349.21564Q306.125 349.59064 305.3125 349.59064Q304.01562 349.59064 303.20312 348.7625Q302.40625 347.91876 302.40625 346.34064ZM303.48438 346.34064Q303.48438 347.52814 304.0 348.1219Q304.53125 348.71564 305.3125 348.71564Q306.10938 348.71564 306.625 348.1219Q307.14062 347.52814 307.14062 346.3094Q307.14062 345.15314 306.60938 344.5594Q306.09375 343.96564 305.3125 343.96564Q304.53125 343.96564 304.0 344.5594Q303.48438 345.1375 303.48438 346.34064ZM309.79688 349.45L309.79688 340.85626L310.85938 340.85626L310.85938 345.7625L313.34375 343.23126L314.71875 343.23126L312.32812 345.52814L314.95312 349.45L313.65625 349.45L311.59375 346.2625L310.85938 346.98126L310.85938 349.45L309.79688 349.45ZM315.375 347.59064L316.40625 347.4344Q316.5 348.0594 316.89062 348.3875Q317.29688 348.71564 318.03125 348.71564Q318.75 348.71564 319.09375 348.4344Q319.45312 348.1375 319.45312 347.73126Q319.45312 347.3719 319.14062 347.16876Q318.92188 347.02814 318.0625 346.8094Q316.90625 346.5125 316.45312 346.3094Q316.01562 346.09064 315.78125 345.71564Q315.54688 345.34064 315.54688 344.8719Q315.54688 344.46564 315.73438 344.10626Q315.92188 343.7469 316.25 343.5125Q316.5 343.34064 316.92188 343.21564Q317.34375 343.09064 317.84375 343.09064Q318.5625 343.09064 319.10938 343.3094Q319.67188 343.5125 319.9375 343.8719Q320.20312 344.23126 320.29688 344.825L319.26562 344.96564Q319.20312 344.4969 318.85938 344.23126Q318.53125 343.95 317.90625 343.95Q317.1875 343.95 316.875 344.2Q316.5625 344.4344 316.5625 344.7625Q316.5625 344.96564 316.6875 345.1219Q316.82812 345.29376 317.09375 345.40314Q317.25 345.46564 318.03125 345.66876Q319.15625 345.98126 319.59375 346.16876Q320.03125 346.35626 320.28125 346.71564Q320.53125 347.075 320.53125 347.6219Q320.53125 348.15314 320.21875 348.6219Q319.92188 349.075 319.34375 349.34064Q318.76562 349.59064 318.03125 349.59064Q316.8125 349.59064 316.17188 349.09064Q315.54688 348.575 315.375 347.59064ZM324.78125 349.45L324.78125 343.23126L325.73438 343.23126L325.73438 344.16876Q326.09375 343.5125 326.39062 343.3094Q326.70312 343.09064 327.07812 343.09064Q327.60938 343.09064 328.15625 343.41876L327.79688 344.40314Q327.40625 344.16876 327.03125 344.16876Q326.67188 344.16876 326.39062 344.3875Q326.125 344.59064 326.01562 344.96564Q325.82812 345.52814 325.82812 346.1844L325.82812 349.45L324.78125 349.45ZM333.04688 347.45L334.14062 347.575Q333.89062 348.52814 333.1875 349.0594Q332.48438 349.59064 331.40625 349.59064Q330.04688 349.59064 329.23438 348.7469Q328.4375 347.90314 328.4375 346.3875Q328.4375 344.825 329.25 343.96564Q330.0625 343.09064 331.34375 343.09064Q332.59375 343.09064 333.375 343.9344Q334.17188 344.77814 334.17188 346.325Q334.17188 346.41876 334.17188 346.60626L329.53125 346.60626Q329.59375 347.6375 330.10938 348.1844Q330.625 348.71564 331.40625 348.71564Q331.98438 348.71564 332.39062 348.41876Q332.8125 348.10626 333.04688 347.45ZM329.59375 345.7469L333.0625 345.7469Q333.0 344.95 332.67188 344.5594Q332.15625 343.95 331.35938 343.95Q330.625 343.95 330.125 344.4344Q329.64062 344.91876 329.59375 345.7469ZM339.85938 348.6844Q339.26562 349.1844 338.71875 349.3875Q338.1875 349.59064 337.5625 349.59064Q336.53125 349.59064 335.98438 349.09064Q335.4375 348.59064 335.4375 347.8094Q335.4375 347.35626 335.64062 346.98126Q335.84375 346.59064 336.1875 346.3719Q336.53125 346.1375 336.95312 346.02814Q337.25 345.9344 337.89062 345.85626Q339.15625 345.71564 339.76562 345.4969Q339.76562 345.27814 339.76562 345.23126Q339.76562 344.575 339.46875 344.3094Q339.0625 343.96564 338.26562 343.96564Q337.53125 343.96564 337.17188 344.23126Q336.8125 344.48126 336.64062 345.1375L335.60938 344.9969Q335.75 344.34064 336.07812 343.9344Q336.40625 343.52814 337.01562 343.3094Q337.625 343.09064 338.42188 343.09064Q339.21875 343.09064 339.71875 343.27814Q340.21875 343.46564 340.45312 343.7469Q340.6875 344.02814 340.78125 344.46564Q340.82812 344.73126 340.82812 345.4344L340.82812 346.84064Q340.82812 348.3094 340.89062 348.7Q340.96875 349.09064 341.17188 349.45L340.0625 349.45Q339.90625 349.1219 339.85938 348.6844ZM339.76562 346.325Q339.1875 346.5594 338.04688 346.73126Q337.39062 346.825 337.125 346.95Q336.85938 347.0594 336.70312 347.27814Q336.5625 347.4969 336.5625 347.77814Q336.5625 348.2 336.875 348.48126Q337.20312 348.7625 337.8125 348.7625Q338.42188 348.7625 338.89062 348.4969Q339.375 348.23126 339.59375 347.7625Q339.76562 347.40314 339.76562 346.71564L339.76562 346.325ZM346.82812 349.45L346.82812 348.66876Q346.23438 349.59064 345.09375 349.59064Q344.34375 349.59064 343.71875 349.1844Q343.09375 348.7625 342.75 348.02814Q342.40625 347.29376 342.40625 346.34064Q342.40625 345.41876 342.71875 344.65314Q343.03125 343.8875 343.65625 343.4969Q344.28125 343.09064 345.04688 343.09064Q345.60938 343.09064 346.04688 343.325Q346.48438 343.5594 346.76562 343.9344L346.76562 340.85626L347.8125 340.85626L347.8125 349.45L346.82812 349.45ZM343.5 346.34064Q343.5 347.54376 344.0 348.1375Q344.5 348.71564 345.1875 348.71564Q345.875 348.71564 346.35938 348.15314Q346.84375 347.59064 346.84375 346.4344Q346.84375 345.15314 346.34375 344.5594Q345.85938 343.96564 345.14062 343.96564Q344.4375 343.96564 343.96875 344.54376Q343.5 345.10626 343.5 346.34064ZM352.79688 342.075L352.79688 340.85626L353.85938 340.85626L353.85938 342.075L352.79688 342.075ZM352.79688 349.45L352.79688 343.23126L353.85938 343.23126L353.85938 349.45L352.79688 349.45ZM355.79688 349.45L355.79688 343.23126L356.73438 343.23126L356.73438 344.10626Q357.42188 343.09064 358.71875 343.09064Q359.28125 343.09064 359.75 343.29376Q360.23438 343.4969 360.46875 343.825Q360.70312 344.15314 360.79688 344.59064Q360.84375 344.8875 360.84375 345.6219L360.84375 349.45L359.79688 349.45L359.79688 345.66876Q359.79688 345.0125 359.67188 344.7Q359.54688 344.3875 359.23438 344.2Q358.92188 343.9969 358.5 343.9969Q357.82812 343.9969 357.32812 344.4344Q356.84375 344.85626 356.84375 346.04376L356.84375 349.45L355.79688 349.45ZM368.09375 348.5125L368.25 349.4344Q367.79688 349.52814 367.45312 349.52814Q366.875 349.52814 366.5625 349.35626Q366.25 349.16876 366.10938 348.8719Q365.98438 348.575 365.98438 347.6219L365.98438 344.04376L365.21875 344.04376L365.21875 343.23126L365.98438 343.23126L365.98438 341.6844L367.03125 341.0594L367.03125 343.23126L368.09375 343.23126L368.09375 344.04376L367.03125 344.04376L367.03125 347.6844Q367.03125 348.1375 367.07812 348.2625Q367.14062 348.3875 367.26562 348.46564Q367.39062 348.54376 367.625 348.54376Q367.8125 348.54376 368.09375 348.5125ZM368.79688 349.45L368.79688 340.85626L369.84375 340.85626L369.84375 343.9344Q370.57812 343.09064 371.70312 343.09064Q372.40625 343.09064 372.90625 343.3719Q373.42188 343.6375 373.64062 344.1219Q373.85938 344.59064 373.85938 345.5125L373.85938 349.45L372.8125 349.45L372.8125 345.5125Q372.8125 344.71564 372.46875 344.35626Q372.125 343.9969 371.5 343.9969Q371.03125 343.9969 370.60938 344.2469Q370.20312 344.48126 370.01562 344.90314Q369.84375 345.3094 369.84375 346.04376L369.84375 349.45L368.79688 349.45ZM380.04688 347.45L381.14062 347.575Q380.89062 348.52814 380.1875 349.0594Q379.48438 349.59064 378.40625 349.59064Q377.04688 349.59064 376.23438 348.7469Q375.4375 347.90314 375.4375 346.3875Q375.4375 344.825 376.25 343.96564Q377.0625 343.09064 378.34375 343.09064Q379.59375 343.09064 380.375 343.9344Q381.17188 344.77814 381.17188 346.325Q381.17188 346.41876 381.17188 346.60626L376.53125 346.60626Q376.59375 347.6375 377.10938 348.1844Q377.625 348.71564 378.40625 348.71564Q378.98438 348.71564 379.39062 348.41876Q379.8125 348.10626 380.04688 347.45ZM376.59375 345.7469L380.0625 345.7469Q380.0 344.95 379.67188 344.5594Q379.15625 343.95 378.35938 343.95Q377.625 343.95 377.125 344.4344Q376.64062 344.91876 376.59375 345.7469ZM385.76562 349.45L385.76562 340.85626L386.82812 340.85626L386.82812 349.45L385.76562 349.45ZM392.85938 348.6844Q392.26562 349.1844 391.71875 349.3875Q391.1875 349.59064 390.5625 349.59064Q389.53125 349.59064 388.98438 349.09064Q388.4375 348.59064 388.4375 347.8094Q388.4375 347.35626 388.64062 346.98126Q388.84375 346.59064 389.1875 346.3719Q389.53125 346.1375 389.95312 346.02814Q390.25 345.9344 390.89062 345.85626Q392.15625 345.71564 392.76562 345.4969Q392.76562 345.27814 392.76562 345.23126Q392.76562 344.575 392.46875 344.3094Q392.0625 343.96564 391.26562 343.96564Q390.53125 343.96564 390.17188 344.23126Q389.8125 344.48126 389.64062 345.1375L388.60938 344.9969Q388.75 344.34064 389.07812 343.9344Q389.40625 343.52814 390.01562 343.3094Q390.625 343.09064 391.42188 343.09064Q392.21875 343.09064 392.71875 343.27814Q393.21875 343.46564 393.45312 343.7469Q393.6875 344.02814 393.78125 344.46564Q393.82812 344.73126 393.82812 345.4344L393.82812 346.84064Q393.82812 348.3094 393.89062 348.7Q393.96875 349.09064 394.17188 349.45L393.0625 349.45Q392.90625 349.1219 392.85938 348.6844ZM392.76562 346.325Q392.1875 346.5594 391.04688 346.73126Q390.39062 346.825 390.125 346.95Q389.85938 347.0594 389.70312 347.27814Q389.5625 347.4969 389.5625 347.77814Q389.5625 348.2 389.875 348.48126Q390.20312 348.7625 390.8125 348.7625Q391.42188 348.7625 391.89062 348.4969Q392.375 348.23126 392.59375 347.7625Q392.76562 347.40314 392.76562 346.71564L392.76562 346.325ZM395.375 347.59064L396.40625 347.4344Q396.5 348.0594 396.89062 348.3875Q397.29688 348.71564 398.03125 348.71564Q398.75 348.71564 399.09375 348.4344Q399.45312 348.1375 399.45312 347.73126Q399.45312 347.3719 399.14062 347.16876Q398.92188 347.02814 398.0625 346.8094Q396.90625 346.5125 396.45312 346.3094Q396.01562 346.09064 395.78125 345.71564Q395.54688 345.34064 395.54688 344.8719Q395.54688 344.46564 395.73438 344.10626Q395.92188 343.7469 396.25 343.5125Q396.5 343.34064 396.92188 343.21564Q397.34375 343.09064 397.84375 343.09064Q398.5625 343.09064 399.10938 343.3094Q399.67188 343.5125 399.9375 343.8719Q400.20312 344.23126 400.29688 344.825L399.26562 344.96564Q399.20312 344.4969 398.85938 344.23126Q398.53125 343.95 397.90625 343.95Q397.1875 343.95 396.875 344.2Q396.5625 344.4344 396.5625 344.7625Q396.5625 344.96564 396.6875 345.1219Q396.82812 345.29376 397.09375 345.40314Q397.25 345.46564 398.03125 345.66876Q399.15625 345.98126 399.59375 346.16876Q400.03125 346.35626 400.28125 346.71564Q400.53125 347.075 400.53125 347.6219Q400.53125 348.15314 400.21875 348.6219Q399.92188 349.075 399.34375 349.34064Q398.76562 349.59064 398.03125 349.59064Q396.8125 349.59064 396.17188 349.09064Q395.54688 348.575 395.375 347.59064ZM404.09375 348.5125L404.25 349.4344Q403.79688 349.52814 403.45312 349.52814Q402.875 349.52814 402.5625 349.35626Q402.25 349.16876 402.10938 348.8719Q401.98438 348.575 401.98438 347.6219L401.98438 344.04376L401.21875 344.04376L401.21875 343.23126L401.98438 343.23126L401.98438 341.6844L403.03125 341.0594L403.03125 343.23126L404.09375 343.23126L404.09375 344.04376L403.03125 344.04376L403.03125 347.6844Q403.03125 348.1375 403.07812 348.2625Q403.14062 348.3875 403.26562 348.46564Q403.39062 348.54376 403.625 348.54376Q403.8125 348.54376 404.09375 348.5125ZM407.75 351.84064L407.625 350.85626Q407.96875 350.95 408.23438 350.95Q408.57812 350.95 408.78125 350.825Q409.0 350.71564 409.14062 350.5125Q409.23438 350.34064 409.46875 349.71564Q409.48438 349.6375 409.5625 349.46564L407.1875 343.23126L408.32812 343.23126L409.625 346.825Q409.875 347.5125 410.07812 348.27814Q410.26562 347.54376 410.51562 346.85626L411.84375 343.23126L412.89062 343.23126L410.53125 349.5594Q410.14062 350.575 409.9375 350.96564Q409.65625 351.4969 409.28125 351.73126Q408.92188 351.98126 408.42188 351.98126Q408.125 351.98126 407.75 351.84064ZM418.04688 347.45L419.14062 347.575Q418.89062 348.52814 418.1875 349.0594Q417.48438 349.59064 416.40625 349.59064Q415.04688 349.59064 414.23438 348.7469Q413.4375 347.90314 413.4375 346.3875Q413.4375 344.825 414.25 343.96564Q415.0625 343.09064 416.34375 343.09064Q417.59375 343.09064 418.375 343.9344Q419.17188 344.77814 419.17188 346.325Q419.17188 346.41876 419.17188 346.60626L414.53125 346.60626Q414.59375 347.6375 415.10938 348.1844Q415.625 348.71564 416.40625 348.71564Q416.98438 348.71564 417.39062 348.41876Q417.8125 348.10626 418.04688 347.45ZM414.59375 345.7469L418.0625 345.7469Q418.0 344.95 417.67188 344.5594Q417.15625 343.95 416.35938 343.95Q415.625 343.95 415.125 344.4344Q414.64062 344.91876 414.59375 345.7469ZM424.85938 348.6844Q424.26562 349.1844 423.71875 349.3875Q423.1875 349.59064 422.5625 349.59064Q421.53125 349.59064 420.98438 349.09064Q420.4375 348.59064 420.4375 347.8094Q420.4375 347.35626 420.64062 346.98126Q420.84375 346.59064 421.1875 346.3719Q421.53125 346.1375 421.95312 346.02814Q422.25 345.9344 422.89062 345.85626Q424.15625 345.71564 424.76562 345.4969Q424.76562 345.27814 424.76562 345.23126Q424.76562 344.575 424.46875 344.3094Q424.0625 343.96564 423.26562 343.96564Q422.53125 343.96564 422.17188 344.23126Q421.8125 344.48126 421.64062 345.1375L420.60938 344.9969Q420.75 344.34064 421.07812 343.9344Q421.40625 343.52814 422.01562 343.3094Q422.625 343.09064 423.42188 343.09064Q424.21875 343.09064 424.71875 343.27814Q425.21875 343.46564 425.45312 343.7469Q425.6875 344.02814 425.78125 344.46564Q425.82812 344.73126 425.82812 345.4344L425.82812 346.84064Q425.82812 348.3094 425.89062 348.7Q425.96875 349.09064 426.17188 349.45L425.0625 349.45Q424.90625 349.1219 424.85938 348.6844ZM424.76562 346.325Q424.1875 346.5594 423.04688 346.73126Q422.39062 346.825 422.125 346.95Q421.85938 347.0594 421.70312 347.27814Q421.5625 347.4969 421.5625 347.77814Q421.5625 348.2 421.875 348.48126Q422.20312 348.7625 422.8125 348.7625Q423.42188 348.7625 423.89062 348.4969Q424.375 348.23126 424.59375 347.7625Q424.76562 347.40314 424.76562 346.71564L424.76562 346.325ZM427.78125 349.45L427.78125 343.23126L428.73438 343.23126L428.73438 344.16876Q429.09375 343.5125 429.39062 343.3094Q429.70312 343.09064 430.07812 343.09064Q430.60938 343.09064 431.15625 343.41876L430.79688 344.40314Q430.40625 344.16876 430.03125 344.16876Q429.67188 344.16876 429.39062 344.3875Q429.125 344.59064 429.01562 344.96564Q428.82812 345.52814 428.82812 346.1844L428.82812 349.45L427.78125 349.45Z" fill-rule="nonzero"></path><path fill="#000000" d="M29.550013 197.51562L20.956263 197.51562L20.956263 191.71875L21.971888 191.71875L21.971888 196.375L24.628138 196.375L24.628138 192.34375L25.643763 192.34375L25.643763 196.375L29.550013 196.375L29.550013 197.51562ZM29.550013 190.71875L23.331263 190.71875L23.331263 189.76562L24.268763 189.76562Q23.612513 189.40625 23.409388 189.10938Q23.190638 188.79688 23.190638 188.42188Q23.190638 187.89062 23.518763 187.34375L24.503138 187.70312Q24.268763 188.09375 24.268763 188.46875Q24.268763 188.82812 24.487513 189.10938Q24.690638 189.375 25.065638 189.48438Q25.628138 189.67188 26.284388 189.67188L29.550013 189.67188L29.550013 190.71875ZM27.550013 182.45312L27.675013 181.35938Q28.628138 181.60938 29.159388 182.3125Q29.690638 183.01562 29.690638 184.09375Q29.690638 185.45312 28.846888 186.26562Q28.003138 187.0625 26.487513 187.0625Q24.925013 187.0625 24.065638 186.25Q23.190638 185.4375 23.190638 184.15625Q23.190638 182.90625 24.034388 182.125Q24.878138 181.32812 26.425013 181.32812Q26.518763 181.32812 26.706263 181.32812L26.706263 185.96875Q27.737513 185.90625 28.284388 185.39062Q28.815638 184.875 28.815638 184.09375Q28.815638 183.51562 28.518763 183.10938Q28.206263 182.6875 27.550013 182.45312ZM25.846888 185.90625L25.846888 182.4375Q25.050013 182.5 24.659388 182.82812Q24.050013 183.34375 24.050013 184.14062Q24.050013 184.875 24.534388 185.375Q25.018763 185.85938 25.846888 185.90625ZM31.940638 175.73438L28.893763 175.73438Q29.237513 175.98438 29.471888 176.4375Q29.690638 176.875 29.690638 177.375Q29.690638 178.48438 28.815638 179.28125Q27.925013 180.07812 26.378138 180.07812Q25.440638 180.07812 24.706263 179.75Q23.956263 179.42188 23.581263 178.8125Q23.190638 178.1875 23.190638 177.45312Q23.190638 176.29688 24.159388 175.64062L23.331263 175.64062L23.331263 174.6875L31.940638 174.6875L31.940638 175.73438ZM26.425013 179.0Q27.628138 179.0 28.221888 178.5Q28.815638 177.98438 28.815638 177.28125Q28.815638 176.60938 28.253138 176.125Q27.675013 175.64062 26.518763 175.64062Q25.268763 175.64062 24.643763 176.15625Q24.018763 176.65625 24.018763 177.35938Q24.018763 178.03125 24.612513 178.51562Q25.190638 179.0 26.425013 179.0ZM29.550013 168.625L28.628138 168.625Q29.690638 169.35938 29.690638 170.60938Q29.690638 171.15625 29.487513 171.64062Q29.268763 172.10938 28.956263 172.34375Q28.628138 172.57812 28.159388 172.67188Q27.862513 172.73438 27.175013 172.73438L23.331263 172.73438L23.331263 171.67188L26.784388 171.67188Q27.596888 171.67188 27.893763 171.60938Q28.300013 171.51562 28.550013 171.20312Q28.784388 170.875 28.784388 170.39062Q28.784388 169.92188 28.550013 169.51562Q28.300013 169.09375 27.878138 168.92188Q27.456263 168.73438 26.659388 168.73438L23.331263 168.73438L23.331263 167.6875L29.550013 167.6875L29.550013 168.625ZM27.550013 161.45312L27.675013 160.35938Q28.628138 160.60938 29.159388 161.3125Q29.690638 162.01562 29.690638 163.09375Q29.690638 164.45312 28.846888 165.26562Q28.003138 166.0625 26.487513 166.0625Q24.925013 166.0625 24.065638 165.25Q23.190638 164.4375 23.190638 163.15625Q23.190638 161.90625 24.034388 161.125Q24.878138 160.32812 26.425013 160.32812Q26.518763 160.32812 26.706263 160.32812L26.706263 164.96875Q27.737513 164.90625 28.284388 164.39062Q28.815638 163.875 28.815638 163.09375Q28.815638 162.51562 28.518763 162.10938Q28.206263 161.6875 27.550013 161.45312ZM25.846888 164.90625L25.846888 161.4375Q25.050013 161.5 24.659388 161.82812Q24.050013 162.34375 24.050013 163.14062Q24.050013 163.875 24.534388 164.375Q25.018763 164.85938 25.846888 164.90625ZM29.550013 158.70312L23.331263 158.70312L23.331263 157.76562L24.206263 157.76562Q23.190638 157.07812 23.190638 155.78125Q23.190638 155.21875 23.393763 154.75Q23.596888 154.26562 23.925013 154.03125Q24.253138 153.79688 24.690638 153.70312Q24.987513 153.65625 25.721888 153.65625L29.550013 153.65625L29.550013 154.70312L25.768763 154.70312Q25.112513 154.70312 24.800013 154.82812Q24.487513 154.95312 24.300013 155.26562Q24.096888 155.57812 24.096888 156.0Q24.096888 156.67188 24.534388 157.17188Q24.956263 157.65625 26.143763 157.65625L29.550013 157.65625L29.550013 158.70312ZM27.268763 147.64062L27.409388 146.60938Q28.471888 146.78125 29.081263 147.48438Q29.690638 148.1875 29.690638 149.20312Q29.690638 150.48438 28.862513 151.26562Q28.018763 152.03125 26.456263 152.03125Q25.456263 152.03125 24.706263 151.70312Q23.940638 151.35938 23.565638 150.6875Q23.190638 150.0 23.190638 149.1875Q23.190638 148.1875 23.706263 147.54688Q24.206263 146.89062 25.159388 146.70312L25.315638 147.73438Q24.690638 147.875 24.378138 148.25Q24.050013 148.625 24.050013 149.15625Q24.050013 149.95312 24.628138 150.45312Q25.190638 150.95312 26.425013 150.95312Q27.690638 150.95312 28.253138 150.46875Q28.815638 149.98438 28.815638 149.21875Q28.815638 148.59375 28.440638 148.1875Q28.065638 147.76562 27.268763 147.64062ZM31.940638 145.75L30.956263 145.875Q31.050013 145.53125 31.050013 145.26562Q31.050013 144.92188 30.925013 144.71875Q30.815638 144.5 30.612513 144.35938Q30.440638 144.26562 29.815638 144.03125Q29.737513 144.01562 29.565638 143.9375L23.331263 146.3125L23.331263 145.17188L26.925013 143.875Q27.612513 143.625 28.378138 143.42188Q27.643763 143.23438 26.956263 142.98438L23.331263 141.65625L23.331263 140.60938L29.659388 142.96875Q30.675013 143.35938 31.065638 143.5625Q31.596888 143.84375 31.831263 144.21875Q32.08126 144.57812 32.08126 145.07812Q32.08126 145.375 31.940638 145.75Z" fill-rule="nonzero"></path><path fill="#000000" d="M65.05 300.21564Q65.05 298.6844 65.3625 297.7625Q65.675 296.825 66.28438 296.325Q66.90938 295.825 67.84688 295.825Q68.53438 295.825 69.05 296.10626Q69.58125 296.3875 69.925 296.91876Q70.26875 297.4344 70.45625 298.1844Q70.64375 298.9344 70.64375 300.21564Q70.64375 301.73126 70.33125 302.65314Q70.03438 303.575 69.40938 304.09064Q68.8 304.59064 67.84688 304.59064Q66.6125 304.59064 65.89375 303.7Q65.05 302.6375 65.05 300.21564ZM66.12813 300.21564Q66.12813 302.325 66.62813 303.02814Q67.12813 303.73126 67.84688 303.73126Q68.58125 303.73126 69.06563 303.02814Q69.56563 302.325 69.56563 300.21564Q69.56563 298.09064 69.06563 297.40314Q68.58125 296.7 67.83125 296.7Q67.1125 296.7 66.675 297.3094Q66.12813 298.09064 66.12813 300.21564Z" fill-rule="nonzero"></path><path fill="#000000" d="M63.596874 211.80104L63.596874 212.81667L57.909374 212.81667Q57.909374 212.44167 58.034374 212.08229Q58.253124 211.50417 58.721874 210.94167Q59.20625 210.37917 60.1125 209.64479Q61.51875 208.48854 62.003124 207.81667Q62.503124 207.14479 62.503124 206.55104Q62.503124 205.92604 62.05 205.50417Q61.596874 205.06667 60.878124 205.06667Q60.1125 205.06667 59.659374 205.51979Q59.20625 205.97292 59.190624 206.78542L58.1125 206.67604Q58.221874 205.45729 58.940624 204.83229Q59.675 204.19167 60.909374 204.19167Q62.14375 204.19167 62.8625 204.87917Q63.58125 205.56667 63.58125 206.58229Q63.58125 207.09792 63.3625 207.59792Q63.159374 208.08229 62.659374 208.64479Q62.175 209.19167 61.05 210.14479Q60.096874 210.94167 59.815624 211.23854Q59.55 211.51979 59.378124 211.80104L63.596874 211.80104ZM65.05 210.56667L66.15938 210.47292Q66.28438 211.28542 66.72188 211.69167Q67.175 212.09792 67.81563 212.09792Q68.56563 212.09792 69.09688 211.51979Q69.62813 210.94167 69.62813 210.00417Q69.62813 209.09792 69.1125 208.58229Q68.6125 208.05104 67.78438 208.05104Q67.28438 208.05104 66.8625 208.28542Q66.45625 208.51979 66.22188 208.87917L65.2375 208.75417L66.06563 204.34792L70.34688 204.34792L70.34688 205.34792L66.90938 205.34792L66.45625 207.66042Q67.22188 207.11354 68.06563 207.11354Q69.19063 207.11354 69.95625 207.89479Q70.7375 208.67604 70.7375 209.91042Q70.7375 211.06667 70.06563 211.92604Q69.2375 212.95729 67.81563 212.95729Q66.64375 212.95729 65.89375 212.30104Q65.15938 211.64479 65.05 210.56667Z" fill-rule="nonzero"></path><path fill="#000000" d="M58.05 118.933334L59.159374 118.839584Q59.284374 119.652084 59.721874 120.058334Q60.175 120.464584 60.815624 120.464584Q61.565624 120.464584 62.096874 119.88646Q62.628124 119.308334 62.628124 118.370834Q62.628124 117.464584 62.1125 116.94896Q61.6125 116.41771 60.784374 116.41771Q60.284374 116.41771 59.8625 116.652084Q59.45625 116.88646 59.221874 117.245834L58.2375 117.120834L59.065624 112.714584L63.346874 112.714584L63.346874 113.714584L59.909374 113.714584L59.45625 116.027084Q60.221874 115.48021 61.065624 115.48021Q62.190624 115.48021 62.95625 116.26146Q63.7375 117.04271 63.7375 118.277084Q63.7375 119.433334 63.065624 120.29271Q62.2375 121.32396 60.815624 121.32396Q59.64375 121.32396 58.89375 120.66771Q58.159374 120.01146 58.05 118.933334ZM65.05 116.94896Q65.05 115.41771 65.3625 114.495834Q65.675 113.558334 66.28438 113.058334Q66.90938 112.558334 67.84688 112.558334Q68.53438 112.558334 69.05 112.839584Q69.58125 113.120834 69.925 113.652084Q70.26875 114.16771 70.45625 114.91771Q70.64375 115.66771 70.64375 116.94896Q70.64375 118.464584 70.33125 119.38646Q70.03438 120.308334 69.40938 120.82396Q68.8 121.32396 67.84688 121.32396Q66.6125 121.32396 65.89375 120.433334Q65.05 119.370834 65.05 116.94896ZM66.12813 116.94896Q66.12813 119.058334 66.62813 119.76146Q67.12813 120.464584 67.84688 120.464584Q68.58125 120.464584 69.06563 119.76146Q69.56563 119.058334 69.56563 116.94896Q69.56563 114.82396 69.06563 114.13646Q68.58125 113.433334 67.83125 113.433334Q67.1125 113.433334 66.675 114.04271Q66.12813 114.82396 66.12813 116.94896Z" fill-rule="nonzero"></path><path fill="#000000" d="M58.1125 22.08125L58.1125 21.065624L63.675 21.065624L63.675 21.89375Q62.8625 22.76875 62.05 24.221874Q61.253124 25.659374 60.815624 27.190624Q60.4875 28.26875 60.409374 29.55L59.315624 29.55Q59.33125 28.534374 59.70625 27.096874Q60.096874 25.659374 60.8 24.33125Q61.51875 23.003124 62.33125 22.08125L58.1125 22.08125ZM65.05 27.3L66.15938 27.20625Q66.28438 28.01875 66.72188 28.425Q67.175 28.83125 67.81563 28.83125Q68.56563 28.83125 69.09688 28.253124Q69.62813 27.675 69.62813 26.7375Q69.62813 25.83125 69.1125 25.315624Q68.6125 24.784374 67.78438 24.784374Q67.28438 24.784374 66.8625 25.01875Q66.45625 25.253124 66.22188 25.6125L65.2375 25.4875L66.06563 21.08125L70.34688 21.08125L70.34688 22.08125L66.90938 22.08125L66.45625 24.39375Q67.22188 23.846874 68.06563 23.846874Q69.19063 23.846874 69.95625 24.628124Q70.7375 25.409374 70.7375 26.64375Q70.7375 27.8 70.06563 28.659374Q69.2375 29.690624 67.81563 29.690624Q66.64375 29.690624 65.89375 29.034374Q65.15938 28.378124 65.05 27.3Z" fill-rule="nonzero"></path><path fill="#000000" d="M99.32196 317.45L98.275085 317.45L98.275085 310.73126Q97.88446 311.09064 97.25946 311.46564Q96.650085 311.825 96.16571 311.9969L96.16571 310.98126Q97.04071 310.5594 97.69696 309.98126Q98.368835 309.3875 98.650085 308.825L99.32196 308.825L99.32196 317.45Z" fill-rule="nonzero"></path><path fill="#000000" d="M131.71967 316.4344L131.71967 317.45L126.03216 317.45Q126.03216 317.075 126.15716 316.71564Q126.37591 316.1375 126.84466 315.575Q127.32903 315.0125 128.23529 314.27814Q129.64154 313.1219 130.12592 312.45Q130.62592 311.77814 130.62592 311.1844Q130.62592 310.5594 130.17279 310.1375Q129.71967 309.7 129.00092 309.7Q128.23529 309.7 127.78216 310.15314Q127.32903 310.60626 127.31341 311.41876L126.23528 311.3094Q126.34466 310.09064 127.06341 309.46564Q127.79778 308.825 129.03217 308.825Q130.26654 308.825 130.98529 309.5125Q131.70404 310.2 131.70404 311.21564Q131.70404 311.73126 131.48529 312.23126Q131.28217 312.71564 130.78217 313.27814Q130.29779 313.825 129.17279 314.77814Q128.21967 315.575 127.93841 315.8719Q127.67278 316.15314 127.50091 316.4344L131.71967 316.4344Z" fill-rule="nonzero"></path><path fill="#000000" d="M156.99236 315.1844L158.05486 315.04376Q158.22673 315.9344 158.66423 316.34064Q159.10173 316.73126 159.72673 316.73126Q160.47673 316.73126 160.99236 316.21564Q161.50798 315.7 161.50798 314.9344Q161.50798 314.21564 161.0236 313.7469Q160.55486 313.2625 159.82048 313.2625Q159.5236 313.2625 159.07048 313.3875L159.19548 312.45Q159.30486 312.46564 159.36736 312.46564Q160.03923 312.46564 160.57048 312.1219Q161.11736 311.7625 161.11736 311.02814Q161.11736 310.45 160.72673 310.075Q160.3361 309.6844 159.7111 309.6844Q159.10173 309.6844 158.67986 310.075Q158.2736 310.46564 158.16423 311.23126L157.10173 311.04376Q157.28923 309.9969 157.97673 309.41876Q158.66423 308.825 159.67986 308.825Q160.38298 308.825 160.97673 309.1375Q161.57048 309.4344 161.88298 309.95Q162.19548 310.46564 162.19548 311.0594Q162.19548 311.60626 161.8986 312.075Q161.60173 312.52814 161.0236 312.79376Q161.7736 312.96564 162.19548 313.52814Q162.61736 314.075 162.61736 314.91876Q162.61736 316.04376 161.78923 316.825Q160.97673 317.60626 159.72673 317.60626Q158.60173 317.60626 157.85173 316.9344Q157.10173 316.2469 156.99236 315.1844Z" fill-rule="nonzero"></path><path fill="#000000" d="M191.18692 317.45L191.18692 315.3875L187.46817 315.3875L187.46817 314.41876L191.39005 308.85626L192.24942 308.85626L192.24942 314.41876L193.40567 314.41876L193.40567 315.3875L192.24942 315.3875L192.24942 317.45L191.18692 317.45ZM191.18692 314.41876L191.18692 310.5594L188.49942 314.41876L191.18692 314.41876Z" fill-rule="nonzero"></path><path fill="#000000" d="M218.6315 315.2L219.74088 315.10626Q219.86588 315.91876 220.30338 316.325Q220.7565 316.73126 221.39713 316.73126Q222.14713 316.73126 222.67838 316.15314Q223.20963 315.575 223.20963 314.6375Q223.20963 313.73126 222.694 313.21564Q222.194 312.6844 221.36588 312.6844Q220.86588 312.6844 220.444 312.91876Q220.03775 313.15314 219.80338 313.5125L218.819 313.3875L219.64713 308.98126L223.92838 308.98126L223.92838 309.98126L220.49088 309.98126L220.03775 312.29376Q220.80338 311.7469 221.64713 311.7469Q222.77213 311.7469 223.53775 312.52814Q224.319 313.3094 224.319 314.54376Q224.319 315.7 223.64713 316.5594Q222.819 317.59064 221.39713 317.59064Q220.22525 317.59064 219.47525 316.9344Q218.74088 316.27814 218.6315 315.2Z" fill-rule="nonzero"></path><path fill="#000000" d="M254.91982 310.96564L253.87294 311.04376Q253.73232 310.41876 253.48232 310.1375Q253.04482 309.6844 252.41982 309.6844Q251.91982 309.6844 251.52919 309.96564Q251.04482 310.34064 250.74794 311.04376Q250.46669 311.73126 250.45107 313.0125Q250.82607 312.4344 251.37294 312.15314Q251.93544 311.8719 252.54482 311.8719Q253.59169 311.8719 254.32607 312.65314Q255.07607 313.4344 255.07607 314.65314Q255.07607 315.46564 254.71669 316.16876Q254.37294 316.85626 253.76357 317.23126Q253.15419 317.59064 252.38857 317.59064Q251.06044 317.59064 250.23232 316.6219Q249.40419 315.65314 249.40419 313.4344Q249.40419 310.9344 250.32607 309.8094Q251.12294 308.825 252.48232 308.825Q253.49794 308.825 254.13857 309.40314Q254.79482 309.96564 254.91982 310.96564ZM250.62294 314.66876Q250.62294 315.21564 250.84169 315.71564Q251.07607 316.2 251.48232 316.46564Q251.90419 316.73126 252.37294 316.73126Q253.02919 316.73126 253.51357 316.2Q253.99794 315.65314 253.99794 314.73126Q253.99794 313.84064 253.51357 313.325Q253.04482 312.8094 252.32607 312.8094Q251.60732 312.8094 251.10732 313.325Q250.62294 313.84064 250.62294 314.66876Z" fill-rule="nonzero"></path><path fill="#000000" d="M280.33313 309.98126L280.33313 308.96564L285.89563 308.96564L285.89563 309.79376Q285.08313 310.66876 284.27063 312.1219Q283.47375 313.5594 283.03625 315.09064Q282.70813 316.16876 282.63 317.45L281.53625 317.45Q281.55188 316.4344 281.92688 314.9969Q282.3175 313.5594 283.02063 312.23126Q283.73938 310.90314 284.55188 309.98126L280.33313 309.98126Z" fill-rule="nonzero"></path><path fill="#000000" d="M312.7152 312.79376Q312.05896 312.54376 311.73083 312.10626Q311.41833 311.65314 311.41833 311.04376Q311.41833 310.10626 312.0902 309.46564Q312.7777 308.825 313.8871 308.825Q315.0121 308.825 315.6996 309.48126Q316.3871 310.1375 316.3871 311.075Q316.3871 311.66876 316.0746 312.10626Q315.7621 312.54376 315.12146 312.79376Q315.91833 313.04376 316.3246 313.6219Q316.73083 314.2 316.73083 314.9969Q316.73083 316.09064 315.9496 316.84064Q315.18396 317.59064 313.9027 317.59064Q312.6371 317.59064 311.85583 316.84064Q311.0746 316.09064 311.0746 314.96564Q311.0746 314.1219 311.49646 313.5594Q311.93396 312.9969 312.7152 312.79376ZM312.49646 310.9969Q312.49646 311.60626 312.8871 311.9969Q313.29333 312.3875 313.91833 312.3875Q314.5277 312.3875 314.91833 312.0125Q315.30896 311.6219 315.30896 311.0594Q315.30896 310.48126 314.9027 310.09064Q314.49646 309.6844 313.9027 309.6844Q313.29333 309.6844 312.8871 310.075Q312.49646 310.46564 312.49646 310.9969ZM312.16833 314.96564Q312.16833 315.41876 312.37146 315.84064Q312.5902 316.2625 313.0121 316.4969Q313.43396 316.73126 313.91833 316.73126Q314.66833 316.73126 315.1527 316.2469Q315.6527 315.7625 315.6527 315.0125Q315.6527 314.2469 315.1527 313.7469Q314.6527 313.2469 313.8871 313.2469Q313.1371 313.2469 312.6527 313.7469Q312.16833 314.23126 312.16833 314.96564Z" fill-rule="nonzero"></path><path fill="#000000" d="M342.06604 315.46564L343.08167 315.3719Q343.20667 316.09064 343.56604 316.41876Q343.94104 316.73126 344.50354 316.73126Q344.9879 316.73126 345.3473 316.5125Q345.7223 316.27814 345.95667 315.91876Q346.19104 315.54376 346.3473 314.91876Q346.50354 314.27814 346.50354 313.6219Q346.50354 313.54376 346.50354 313.40314Q346.19104 313.90314 345.64417 314.23126Q345.0973 314.54376 344.45667 314.54376Q343.37854 314.54376 342.64417 313.77814Q341.9098 312.9969 341.9098 311.73126Q341.9098 310.41876 342.6754 309.6219Q343.45667 308.825 344.6129 308.825Q345.44104 308.825 346.12854 309.27814Q346.83167 309.73126 347.19104 310.575Q347.5504 311.40314 347.5504 312.98126Q347.5504 314.6219 347.19104 315.60626Q346.8473 316.575 346.12854 317.09064Q345.4254 317.59064 344.4879 317.59064Q343.4723 317.59064 342.83167 317.04376Q342.19104 316.48126 342.06604 315.46564ZM346.37854 311.66876Q346.37854 310.7625 345.89417 310.23126Q345.4254 309.7 344.7379 309.7Q344.0348 309.7 343.50354 310.27814Q342.9879 310.84064 342.9879 311.7625Q342.9879 312.575 343.4879 313.09064Q343.9879 313.60626 344.70667 313.60626Q345.44104 313.60626 345.9098 313.09064Q346.37854 312.575 346.37854 311.66876Z" fill-rule="nonzero"></path><path fill="#000000" d="M373.19812 317.45L372.15125 317.45L372.15125 310.73126Q371.76062 311.09064 371.13562 311.46564Q370.52625 311.825 370.04187 311.9969L370.04187 310.98126Q370.91687 310.5594 371.57312 309.98126Q372.245 309.3875 372.52625 308.825L373.19812 308.825L373.19812 317.45ZM376.22937 313.21564Q376.22937 311.6844 376.54187 310.7625Q376.85437 309.825 377.46375 309.325Q378.08875 308.825 379.02625 308.825Q379.71375 308.825 380.22937 309.10626Q380.76062 309.3875 381.10437 309.91876Q381.44812 310.4344 381.63562 311.1844Q381.82312 311.9344 381.82312 313.21564Q381.82312 314.73126 381.51062 315.65314Q381.21375 316.575 380.58875 317.09064Q379.97937 317.59064 379.02625 317.59064Q377.79187 317.59064 377.07312 316.7Q376.22937 315.6375 376.22937 313.21564ZM377.3075 313.21564Q377.3075 315.325 377.8075 316.02814Q378.3075 316.73126 379.02625 316.73126Q379.76062 316.73126 380.245 316.02814Q380.745 315.325 380.745 313.21564Q380.745 311.09064 380.245 310.40314Q379.76062 309.7 379.01062 309.7Q378.29187 309.7 377.85437 310.3094Q377.3075 311.09064 377.3075 313.21564Z" fill-rule="nonzero"></path><path fill="#000000" d="M404.01767 317.45L402.9708 317.45L402.9708 310.73126Q402.58017 311.09064 401.95517 311.46564Q401.3458 311.825 400.86142 311.9969L400.86142 310.98126Q401.73642 310.5594 402.39267 309.98126Q403.06454 309.3875 403.3458 308.825L404.01767 308.825L404.01767 317.45ZM411.01767 317.45L409.9708 317.45L409.9708 310.73126Q409.58017 311.09064 408.95517 311.46564Q408.3458 311.825 407.86142 311.9969L407.86142 310.98126Q408.73642 310.5594 409.39267 309.98126Q410.06454 309.3875 410.3458 308.825L411.01767 308.825L411.01767 317.45Z" fill-rule="nonzero"></path><path fill="#000000" d="M434.83725 317.45L433.79037 317.45L433.79037 310.73126Q433.39975 311.09064 432.77475 311.46564Q432.16537 311.825 431.681 311.9969L431.681 310.98126Q432.556 310.5594 433.21225 309.98126Q433.88412 309.3875 434.16537 308.825L434.83725 308.825L434.83725 317.45ZM443.41537 316.4344L443.41537 317.45L437.72787 317.45Q437.72787 317.075 437.85287 316.71564Q438.07162 316.1375 438.54037 315.575Q439.02475 315.0125 439.931 314.27814Q441.33725 313.1219 441.82162 312.45Q442.32162 311.77814 442.32162 311.1844Q442.32162 310.5594 441.8685 310.1375Q441.41537 309.7 440.69662 309.7Q439.931 309.7 439.47787 310.15314Q439.02475 310.60626 439.00912 311.41876L437.931 311.3094Q438.04037 310.09064 438.75912 309.46564Q439.4935 308.825 440.72787 308.825Q441.96225 308.825 442.681 309.5125Q443.39975 310.2 443.39975 311.21564Q443.39975 311.73126 443.181 312.23126Q442.97787 312.71564 442.47787 313.27814Q441.9935 313.825 440.8685 314.77814Q439.91537 315.575 439.63412 315.8719Q439.3685 316.15314 439.19662 316.4344L443.41537 316.4344Z" fill-rule="nonzero"></path><path fill="#000000" d="M465.65683 317.45L464.60995 317.45L464.60995 310.73126Q464.21933 311.09064 463.59433 311.46564Q462.98495 311.825 462.50058 311.9969L462.50058 310.98126Q463.37558 310.5594 464.03183 309.98126Q464.7037 309.3875 464.98495 308.825L465.65683 308.825L465.65683 317.45ZM468.68808 315.1844L469.75058 315.04376Q469.92245 315.9344 470.35995 316.34064Q470.79745 316.73126 471.42245 316.73126Q472.17245 316.73126 472.68808 316.21564Q473.2037 315.7 473.2037 314.9344Q473.2037 314.21564 472.71933 313.7469Q472.25058 313.2625 471.5162 313.2625Q471.21933 313.2625 470.7662 313.3875L470.8912 312.45Q471.00058 312.46564 471.06308 312.46564Q471.73495 312.46564 472.2662 312.1219Q472.81308 311.7625 472.81308 311.02814Q472.81308 310.45 472.42245 310.075Q472.03183 309.6844 471.40683 309.6844Q470.79745 309.6844 470.37558 310.075Q469.96933 310.46564 469.85995 311.23126L468.79745 311.04376Q468.98495 309.9969 469.67245 309.41876Q470.35995 308.825 471.37558 308.825Q472.0787 308.825 472.67245 309.1375Q473.2662 309.4344 473.5787 309.95Q473.8912 310.46564 473.8912 311.0594Q473.8912 311.60626 473.59433 312.075Q473.29745 312.52814 472.71933 312.79376Q473.46933 312.96564 473.8912 313.52814Q474.31308 314.075 474.31308 314.91876Q474.31308 316.04376 473.48495 316.825Q472.67245 317.60626 471.42245 317.60626Q470.29745 317.60626 469.54745 316.9344Q468.79745 316.2469 468.68808 315.1844Z" fill-rule="nonzero"></path><path fill="#000000" d="M496.4764 317.45L495.42953 317.45L495.42953 310.73126Q495.0389 311.09064 494.4139 311.46564Q493.80453 311.825 493.32016 311.9969L493.32016 310.98126Q494.19516 310.5594 494.8514 309.98126Q495.5233 309.3875 495.80453 308.825L496.4764 308.825L496.4764 317.45ZM502.88266 317.45L502.88266 315.3875L499.1639 315.3875L499.1639 314.41876L503.0858 308.85626L503.94516 308.85626L503.94516 314.41876L505.1014 314.41876L505.1014 315.3875L503.94516 315.3875L503.94516 317.45L502.88266 317.45ZM502.88266 314.41876L502.88266 310.5594L500.19516 314.41876L502.88266 314.41876Z" fill-rule="nonzero"></path><path fill="#000000" d="M527.29596 317.45L526.2491 317.45L526.2491 310.73126Q525.85846 311.09064 525.23346 311.46564Q524.6241 311.825 524.1397 311.9969L524.1397 310.98126Q525.0147 310.5594 525.67096 309.98126Q526.34283 309.3875 526.6241 308.825L527.29596 308.825L527.29596 317.45ZM530.3272 315.2L531.4366 315.10626Q531.5616 315.91876 531.9991 316.325Q532.4522 316.73126 533.09283 316.73126Q533.84283 316.73126 534.3741 316.15314Q534.90533 315.575 534.90533 314.6375Q534.90533 313.73126 534.3897 313.21564Q533.8897 312.6844 533.0616 312.6844Q532.5616 312.6844 532.1397 312.91876Q531.73346 313.15314 531.4991 313.5125L530.5147 313.3875L531.34283 308.98126L535.6241 308.98126L535.6241 309.98126L532.1866 309.98126L531.73346 312.29376Q532.4991 311.7469 533.34283 311.7469Q534.46783 311.7469 535.23346 312.52814Q536.0147 313.3094 536.0147 314.54376Q536.0147 315.7 535.34283 316.5594Q534.5147 317.59064 533.09283 317.59064Q531.92096 317.59064 531.17096 316.9344Q530.4366 316.27814 530.3272 315.2Z" fill-rule="nonzero"></path><path fill="#000000" d="M558.11554 317.45L557.06866 317.45L557.06866 310.73126Q556.67804 311.09064 556.05304 311.46564Q555.44366 311.825 554.9593 311.9969L554.9593 310.98126Q555.8343 310.5594 556.49054 309.98126Q557.1624 309.3875 557.44366 308.825L558.11554 308.825L558.11554 317.45ZM566.61554 310.96564L565.56866 311.04376Q565.42804 310.41876 565.17804 310.1375Q564.74054 309.6844 564.11554 309.6844Q563.61554 309.6844 563.2249 309.96564Q562.74054 310.34064 562.44366 311.04376Q562.1624 311.73126 562.1468 313.0125Q562.5218 312.4344 563.06866 312.15314Q563.63116 311.8719 564.24054 311.8719Q565.2874 311.8719 566.0218 312.65314Q566.7718 313.4344 566.7718 314.65314Q566.7718 315.46564 566.4124 316.16876Q566.06866 316.85626 565.4593 317.23126Q564.8499 317.59064 564.0843 317.59064Q562.75616 317.59064 561.92804 316.6219Q561.0999 315.65314 561.0999 313.4344Q561.0999 310.9344 562.0218 309.8094Q562.81866 308.825 564.17804 308.825Q565.19366 308.825 565.8343 309.40314Q566.49054 309.96564 566.61554 310.96564ZM562.31866 314.66876Q562.31866 315.21564 562.5374 315.71564Q562.7718 316.2 563.17804 316.46564Q563.5999 316.73126 564.06866 316.73126Q564.7249 316.73126 565.2093 316.2Q565.69366 315.65314 565.69366 314.73126Q565.69366 313.84064 565.2093 313.325Q564.74054 312.8094 564.0218 312.8094Q563.30304 312.8094 562.80304 313.325Q562.31866 313.84064 562.31866 314.66876Z" fill-rule="nonzero"></path></svg> 