<?xml version="1.0" encoding="UTF-8"?> <svg xmlns:xlink="http://www.w3.org/1999/xlink" xmlns="http://www.w3.org/2000/svg" version="1.1" viewBox="0.0 0.0 600.0 371.0" fill="none" stroke="none" stroke-linecap="square" stroke-miterlimit="10" width="600" height="371"><path fill="#ffffff" d="M0 0L600.0 0L600.0 371.0L0 371.0L0 0Z" fill-rule="nonzero"></path><path stroke="#333333" stroke-width="1.0" stroke-linecap="butt" d="M77.5 300.5L551.5 300.5" fill-rule="nonzero"></path><path stroke="#ffffff" stroke-width="1.0" stroke-linecap="butt" d="M77.5 269.5L551.5 269.5" fill-rule="nonzero"></path><path stroke="#ffffff" stroke-width="1.0" stroke-linecap="butt" d="M77.5 239.5L551.5 239.5" fill-rule="nonzero"></path><path stroke="#ffffff" stroke-width="1.0" stroke-linecap="butt" d="M77.5 208.5L551.5 208.5" fill-rule="nonzero"></path><path stroke="#ffffff" stroke-width="1.0" stroke-linecap="butt" d="M77.5 178.5L551.5 178.5" fill-rule="nonzero"></path><path stroke="#ffffff" stroke-width="1.0" stroke-linecap="butt" d="M77.5 147.5L551.5 147.5" fill-rule="nonzero"></path><path stroke="#ffffff" stroke-width="1.0" stroke-linecap="butt" d="M77.5 117.5L551.5 117.5" fill-rule="nonzero"></path><path stroke="#ffffff" stroke-width="1.0" stroke-linecap="butt" d="M77.5 86.5L551.5 86.5" fill-rule="nonzero"></path><path stroke="#ffffff" stroke-width="1.0" stroke-linecap="butt" d="M77.5 56.5L551.5 56.5" fill-rule="nonzero"></path><path stroke="#ffffff" stroke-width="1.0" stroke-linecap="butt" d="M77.5 25.5L551.5 25.5" fill-rule="nonzero"></path><path stroke="#000000" stroke-width="1.0" stroke-linecap="butt" d="M77.5 300.5L77.5 25.5" fill-rule="nonzero"></path><clipPath id="id_0"><path d="M77.55 25.55L551.45 25.55L551.45 300.45L77.55 300.45L77.55 25.55Z" clip-rule="nonzero"></path></clipPath><path stroke="#000000" stroke-width="0.0" stroke-linecap="butt" stroke-opacity="0.0" clip-path="url(#id_0)" d="M120.0 300.0L93.0 300.0L93.0 299.5C93.0 299.22385 93.223854 299.0 93.5 299.0L119.5 299.0C119.776146 299.0 120.0 299.22385 120.0 299.5Z" fill-rule="nonzero"></path><path fill="#4285f4" clip-path="url(#id_0)" d="M120.0 300.0L93.0 300.0L93.0 299.5C93.0 299.22385 93.223854 299.0 93.5 299.0L119.5 299.0C119.776146 299.0 120.0 299.22385 120.0 299.5Z" fill-rule="nonzero"></path><path stroke="#000000" stroke-width="0.0" stroke-linecap="butt" stroke-opacity="0.0" clip-path="url(#id_0)" d="M161.0 300.0L134.0 300.0L134.0 295.0C134.0 293.89542 134.89543 293.0 136.0 293.0L159.0 293.0C160.10457 293.0 161.0 293.89542 161.0 295.0Z" fill-rule="nonzero"></path><path fill="#4285f4" clip-path="url(#id_0)" d="M161.0 300.0L134.0 300.0L134.0 295.0C134.0 293.89542 134.89543 293.0 136.0 293.0L159.0 293.0C160.10457 293.0 161.0 293.89542 161.0 295.0Z" fill-rule="nonzero"></path><path stroke="#000000" stroke-width="0.0" stroke-linecap="butt" stroke-opacity="0.0" clip-path="url(#id_0)" d="M203.0 300.0L176.0 300.0L176.0 267.0C176.0 265.89542 176.89543 265.0 178.0 265.0L201.0 265.0C202.10457 265.0 203.0 265.89542 203.0 267.0Z" fill-rule="nonzero"></path><path fill="#4285f4" clip-path="url(#id_0)" d="M203.0 300.0L176.0 300.0L176.0 267.0C176.0 265.89542 176.89543 265.0 178.0 265.0L201.0 265.0C202.10457 265.0 203.0 265.89542 203.0 267.0Z" fill-rule="nonzero"></path><path stroke="#000000" stroke-width="0.0" stroke-linecap="butt" stroke-opacity="0.0" clip-path="url(#id_0)" d="M245.0 300.0L218.0 300.0L218.0 212.0C218.0 210.89543 218.89543 210.0 220.0 210.0L243.0 210.0C244.10457 210.0 245.0 210.89543 245.0 212.0Z" fill-rule="nonzero"></path><path fill="#4285f4" clip-path="url(#id_0)" d="M245.0 300.0L218.0 300.0L218.0 212.0C218.0 210.89543 218.89543 210.0 220.0 210.0L243.0 210.0C244.10457 210.0 245.0 210.89543 245.0 212.0Z" fill-rule="nonzero"></path><path stroke="#000000" stroke-width="0.0" stroke-linecap="butt" stroke-opacity="0.0" clip-path="url(#id_0)" d="M287.0 300.0L260.0 300.0L260.0 151.0C260.0 149.89543 260.89542 149.0 262.0 149.0L285.0 149.0C286.10458 149.0 287.0 149.89543 287.0 151.0Z" fill-rule="nonzero"></path><path fill="#4285f4" clip-path="url(#id_0)" d="M287.0 300.0L260.0 300.0L260.0 151.0C260.0 149.89543 260.89542 149.0 262.0 149.0L285.0 149.0C286.10458 149.0 287.0 149.89543 287.0 151.0Z" fill-rule="nonzero"></path><path stroke="#000000" stroke-width="0.0" stroke-linecap="butt" stroke-opacity="0.0" clip-path="url(#id_0)" d="M329.0 300.0L302.0 300.0L302.0 96.0C302.0 94.89543 302.89542 94.0 304.0 94.0L327.0 94.0C328.10458 94.0 329.0 94.89543 329.0 96.0Z" fill-rule="nonzero"></path><path fill="#4285f4" clip-path="url(#id_0)" d="M329.0 300.0L302.0 300.0L302.0 96.0C302.0 94.89543 302.89542 94.0 304.0 94.0L327.0 94.0C328.10458 94.0 329.0 94.89543 329.0 96.0Z" fill-rule="nonzero"></path><path stroke="#000000" stroke-width="0.0" stroke-linecap="butt" stroke-opacity="0.0" clip-path="url(#id_0)" d="M370.0 300.0L343.0 300.0L343.0 144.0C343.0 142.89543 343.89542 142.0 345.0 142.0L368.0 142.0C369.10458 142.0 370.0 142.89543 370.0 144.0Z" fill-rule="nonzero"></path><path fill="#4285f4" clip-path="url(#id_0)" d="M370.0 300.0L343.0 300.0L343.0 144.0C343.0 142.89543 343.89542 142.0 345.0 142.0L368.0 142.0C369.10458 142.0 370.0 142.89543 370.0 144.0Z" fill-rule="nonzero"></path><path stroke="#000000" stroke-width="0.0" stroke-linecap="butt" stroke-opacity="0.0" clip-path="url(#id_0)" d="M412.0 300.0L385.0 300.0L385.0 218.0C385.0 216.89543 385.89542 216.0 387.0 216.0L410.0 216.0C411.10458 216.0 412.0 216.89543 412.0 218.0Z" fill-rule="nonzero"></path><path fill="#4285f4" clip-path="url(#id_0)" d="M412.0 300.0L385.0 300.0L385.0 218.0C385.0 216.89543 385.89542 216.0 387.0 216.0L410.0 216.0C411.10458 216.0 412.0 216.89543 412.0 218.0Z" fill-rule="nonzero"></path><path stroke="#000000" stroke-width="0.0" stroke-linecap="butt" stroke-opacity="0.0" clip-path="url(#id_0)" d="M454.0 300.0L427.0 300.0L427.0 272.0C427.0 270.89542 427.89542 270.0 429.0 270.0L452.0 270.0C453.10458 270.0 454.0 270.89542 454.0 272.0Z" fill-rule="nonzero"></path><path fill="#4285f4" clip-path="url(#id_0)" d="M454.0 300.0L427.0 300.0L427.0 272.0C427.0 270.89542 427.89542 270.0 429.0 270.0L452.0 270.0C453.10458 270.0 454.0 270.89542 454.0 272.0Z" fill-rule="nonzero"></path><path stroke="#000000" stroke-width="0.0" stroke-linecap="butt" stroke-opacity="0.0" clip-path="url(#id_0)" d="M496.0 300.0L469.0 300.0L469.0 296.0C469.0 294.89542 469.89542 294.0 471.0 294.0L494.0 294.0C495.10458 294.0 496.0 294.89542 496.0 296.0Z" fill-rule="nonzero"></path><path fill="#4285f4" clip-path="url(#id_0)" d="M496.0 300.0L469.0 300.0L469.0 296.0C469.0 294.89542 469.89542 294.0 471.0 294.0L494.0 294.0C495.10458 294.0 496.0 294.89542 496.0 296.0Z" fill-rule="nonzero"></path><path stroke="#000000" stroke-width="0.0" stroke-linecap="butt" stroke-opacity="0.0" clip-path="url(#id_0)" d="M537.0 300.0L510.0 300.0L510.0 299.5C510.0 299.22385 510.22385 299.0 510.5 299.0L536.5 299.0C536.7761 299.0 537.0 299.22385 537.0 299.5Z" fill-rule="nonzero"></path><path fill="#4285f4" clip-path="url(#id_0)" d="M537.0 300.0L510.0 300.0L510.0 299.5C510.0 299.22385 510.22385 299.0 510.5 299.0L536.5 299.0C536.7761 299.0 537.0 299.22385 537.0 299.5Z" fill-rule="nonzero"></path><path stroke="#424242" stroke-width="1.0" stroke-linecap="butt" stroke-opacity="0.0" clip-path="url(#id_0)" d="M272.7467 300.45L272.7467 300.45" fill-rule="nonzero"></path><path stroke="#424242" stroke-width="1.0" stroke-linecap="butt" stroke-opacity="0.0" clip-path="url(#id_0)" d="M266.7467 300.45L278.7467 300.45" fill-rule="nonzero"></path><path stroke="#424242" stroke-width="1.0" stroke-linecap="butt" stroke-opacity="0.0" clip-path="url(#id_0)" d="M266.7467 300.45L278.7467 300.45" fill-rule="nonzero"></path><path stroke="#424242" stroke-width="1.0" stroke-linecap="butt" stroke-opacity="0.0" clip-path="url(#id_0)" d="M314.5 300.45L314.5 -249.35" fill-rule="nonzero"></path><path stroke="#424242" stroke-width="1.0" stroke-linecap="butt" stroke-opacity="0.0" clip-path="url(#id_0)" d="M308.5 300.45L320.5 300.45" fill-rule="nonzero"></path><path stroke="#424242" stroke-width="1.0" stroke-linecap="butt" stroke-opacity="0.0" clip-path="url(#id_0)" d="M308.5 -249.35L320.5 -249.35" fill-rule="nonzero"></path><path stroke="#424242" stroke-width="1.0" stroke-linecap="butt" stroke-opacity="0.0" clip-path="url(#id_0)" d="M356.2533 300.45L356.2533 300.45" fill-rule="nonzero"></path><path stroke="#424242" stroke-width="1.0" stroke-linecap="butt" stroke-opacity="0.0" clip-path="url(#id_0)" d="M350.2533 300.45L362.2533 300.45" fill-rule="nonzero"></path><path stroke="#424242" stroke-width="1.0" stroke-linecap="butt" stroke-opacity="0.0" clip-path="url(#id_0)" d="M350.2533 300.45L362.2533 300.45" fill-rule="nonzero"></path><path stroke="#6aa84f" stroke-width="3.0" stroke-linecap="butt" clip-path="url(#id_0)" d="M105.73348 298.9228C105.73348 298.9228 133.56902 298.4137 147.48679 292.8139C161.40456 287.21408 175.32233 279.06888 189.24008 265.32388C203.15785 251.57889 217.07562 229.6887 230.9934 210.34389C244.91116 190.99907 258.82892 168.59981 272.7467 149.255C286.66446 129.91019 300.58224 95.54768 314.5 94.275C328.41776 93.00231 342.33554 121.25593 356.2533 141.6189C370.17108 161.98186 384.08884 195.07167 398.00662 216.45277C411.92438 237.8339 425.84213 256.92416 439.75992 269.90555C453.67767 282.88693 467.59546 289.5049 481.5132 294.34113C495.43097 299.1773 523.26654 298.9228 523.26654 298.9228" fill-rule="nonzero"></path><path fill="#6aa84f" clip-path="url(#id_0)" d="M105.73348 298.9228C105.73348 298.9228 105.73348 298.9228 105.73348 298.9228C105.73348 298.9228 105.73348 298.9228 105.73348 298.9228C105.73348 298.9228 105.73348 298.9228 105.73348 298.9228C105.73348 298.9228 105.73348 298.9228 105.73348 298.9228Z" fill-rule="nonzero"></path><path fill="#6aa84f" clip-path="url(#id_0)" d="M147.48679 292.8139C147.48679 292.8139 147.48679 292.8139 147.48679 292.8139C147.48679 292.8139 147.48679 292.8139 147.48679 292.8139C147.48679 292.8139 147.48679 292.8139 147.48679 292.8139C147.48679 292.8139 147.48679 292.8139 147.48679 292.8139Z" fill-rule="nonzero"></path><path fill="#6aa84f" clip-path="url(#id_0)" d="M189.24008 265.32388C189.24008 265.32388 189.24008 265.32388 189.24008 265.32388C189.24008 265.32388 189.24008 265.32388 189.24008 265.32388C189.24008 265.32388 189.24008 265.32388 189.24008 265.32388C189.24008 265.32388 189.24008 265.32388 189.24008 265.32388Z" fill-rule="nonzero"></path><path fill="#6aa84f" clip-path="url(#id_0)" d="M230.9934 210.34389C230.9934 210.34389 230.9934 210.34389 230.9934 210.34389C230.9934 210.34389 230.9934 210.34389 230.9934 210.34389C230.9934 210.34389 230.9934 210.34389 230.9934 210.34389C230.9934 210.34389 230.9934 210.34389 230.9934 210.34389Z" fill-rule="nonzero"></path><path fill="#ea4335" clip-path="url(#id_0)" d="M272.7467 149.255C272.7467 149.255 272.7467 149.255 272.7467 149.255C272.7467 149.255 272.7467 149.255 272.7467 149.255C272.7467 149.255 272.7467 149.255 272.7467 149.255C272.7467 149.255 272.7467 149.255 272.7467 149.255Z" fill-rule="nonzero"></path><path fill="#6aa84f" clip-path="url(#id_0)" d="M314.5 94.275C314.5 94.275 314.5 94.275 314.5 94.275C314.5 94.275 314.5 94.275 314.5 94.275C314.5 94.275 314.5 94.275 314.5 94.275C314.5 94.275 314.5 94.275 314.5 94.275Z" fill-rule="nonzero"></path><path fill="#6aa84f" clip-path="url(#id_0)" d="M356.2533 141.6189C356.2533 141.6189 356.2533 141.6189 356.2533 141.6189C356.2533 141.6189 356.2533 141.6189 356.2533 141.6189C356.2533 141.6189 356.2533 141.6189 356.2533 141.6189C356.2533 141.6189 356.2533 141.6189 356.2533 141.6189Z" fill-rule="nonzero"></path><path fill="#6aa84f" clip-path="url(#id_0)" d="M398.00662 216.45277C398.00662 216.45277 398.00662 216.45277 398.00662 216.45277C398.00662 216.45277 398.00662 216.45277 398.00662 216.45277C398.00662 216.45277 398.00662 216.45277 398.00662 216.45277C398.00662 216.45277 398.00662 216.45277 398.00662 216.45277Z" fill-rule="nonzero"></path><path fill="#6aa84f" clip-path="url(#id_0)" d="M439.75992 269.90555C439.75992 269.90555 439.75992 269.90555 439.75992 269.90555C439.75992 269.90555 439.75992 269.90555 439.75992 269.90555C439.75992 269.90555 439.75992 269.90555 439.75992 269.90555C439.75992 269.90555 439.75992 269.90555 439.75992 269.90555Z" fill-rule="nonzero"></path><path fill="#6aa84f" clip-path="url(#id_0)" d="M481.5132 294.34113C481.5132 294.34113 481.5132 294.34113 481.5132 294.34113C481.5132 294.34113 481.5132 294.34113 481.5132 294.34113C481.5132 294.34113 481.5132 294.34113 481.5132 294.34113C481.5132 294.34113 481.5132 294.34113 481.5132 294.34113Z" fill-rule="nonzero"></path><path fill="#6aa84f" clip-path="url(#id_0)" d="M523.26654 298.9228C523.26654 298.9228 523.26654 298.9228 523.26654 298.9228C523.26654 298.9228 523.26654 298.9228 523.26654 298.9228C523.26654 298.9228 523.26654 298.9228 523.26654 298.9228C523.26654 298.9228 523.26654 298.9228 523.26654 298.9228Z" fill-rule="nonzero"></path><path fill="#000000" fill-opacity="0.0" clip-path="url(#id_0)" d="M272.7467 300.45C272.7467 300.45 272.7467 300.45 272.7467 300.45C272.7467 300.45 272.7467 300.45 272.7467 300.45C272.7467 300.45 272.7467 300.45 272.7467 300.45C272.7467 300.45 272.7467 300.45 272.7467 300.45Z" fill-rule="nonzero"></path><path fill="#000000" fill-opacity="0.0" clip-path="url(#id_0)" d="M314.5 25.55C314.5 25.55 314.5 25.55 314.5 25.55C314.5 25.55 314.5 25.55 314.5 25.55C314.5 25.55 314.5 25.55 314.5 25.55C314.5 25.55 314.5 25.55 314.5 25.55Z" fill-rule="nonzero"></path><path fill="#000000" fill-opacity="0.0" clip-path="url(#id_0)" d="M356.2533 300.45C356.2533 300.45 356.2533 300.45 356.2533 300.45C356.2533 300.45 356.2533 300.45 356.2533 300.45C356.2533 300.45 356.2533 300.45 356.2533 300.45C356.2533 300.45 356.2533 300.45 356.2533 300.45Z" fill-rule="nonzero"></path><path stroke="#ffffff" stroke-width="3.0" stroke-linejoin="round" stroke-linecap="round" d="M300.00323 27.054478L302.8001 34.007603L305.58136 27.054478L307.0501 27.054478L307.0501 35.585728L305.9251 35.585728L305.9251 32.257603L306.0345 28.679478L303.222 35.585728L302.3626 35.585728L299.56573 28.695103L299.6751 32.257603L299.6751 35.585728L298.5501 35.585728L298.5501 27.054478L300.00323 27.054478ZM311.01886 35.710728Q309.722 35.710728 308.9095 34.866978Q308.1126 34.007603 308.1126 32.585728L308.1126 32.398228Q308.1126 31.445103 308.472 30.710728Q308.83136 29.960728 309.472 29.554478Q310.12823 29.132603 310.87823 29.132603Q312.1126 29.132603 312.8001 29.945103Q313.4876 30.757603 313.4876 32.273228L313.4876 32.726353L309.19073 32.726353Q309.222 33.663853 309.7376 34.241978Q310.26886 34.820103 311.08136 34.820103Q311.64386 34.820103 312.0345 34.585728Q312.44073 34.351353 312.75323 33.960728L313.4095 34.476353Q312.6126 35.710728 311.01886 35.710728ZM310.87823 30.023228Q310.222 30.023228 309.76886 30.507603Q309.33136 30.976353 309.2376 31.835728L312.4095 31.835728L312.4095 31.757603Q312.3626 30.929478 311.95636 30.476353Q311.56573 30.023228 310.87823 30.023228ZM318.3001 35.585728Q318.20636 35.398228 318.14386 34.913853Q317.39386 35.710728 316.347 35.710728Q315.4095 35.710728 314.8001 35.179478Q314.20636 34.648228 314.20636 33.820103Q314.20636 32.835728 314.95636 32.288853Q315.70636 31.741978 317.08136 31.741978L318.12823 31.741978L318.12823 31.241978Q318.12823 30.679478 317.7845 30.351353Q317.45636 30.007603 316.7845 30.007603Q316.20636 30.007603 315.81573 30.304478Q315.4251 30.585728 315.4251 31.007603L314.33136 31.007603Q314.33136 30.523228 314.6595 30.085728Q315.00323 29.648228 315.58136 29.398228Q316.1595 29.132603 316.847 29.132603Q317.95636 29.132603 318.56573 29.679478Q319.19073 30.226353 319.222 31.179478L319.222 34.101353Q319.222 34.976353 319.44073 35.491978L319.44073 35.585728L318.3001 35.585728ZM316.50323 34.757603Q317.01886 34.757603 317.472 34.491978Q317.9251 34.226353 318.12823 33.804478L318.12823 32.507603L317.2845 32.507603Q315.2845 32.507603 315.2845 33.679478Q315.2845 34.179478 315.62823 34.476353Q315.972 34.757603 316.50323 34.757603ZM322.4095 29.241978L322.44073 30.038853Q323.1751 29.132603 324.347 29.132603Q326.3626 29.132603 326.37823 31.398228L326.37823 35.585728L325.2845 35.585728L325.2845 31.382603Q325.2845 30.710728 324.972 30.382603Q324.6751 30.054478 324.01886 30.054478Q323.4876 30.054478 323.08136 30.335728Q322.69073 30.616978 322.472 31.070103L322.472 35.585728L321.39386 35.585728L321.39386 29.241978L322.4095 29.241978Z" fill-rule="nonzero"></path><path fill="#000000" d="M300.00323 27.054478L302.8001 34.007603L305.58136 27.054478L307.0501 27.054478L307.0501 35.585728L305.9251 35.585728L305.9251 32.257603L306.0345 28.679478L303.222 35.585728L302.3626 35.585728L299.56573 28.695103L299.6751 32.257603L299.6751 35.585728L298.5501 35.585728L298.5501 27.054478L300.00323 27.054478ZM311.01886 35.710728Q309.722 35.710728 308.9095 34.866978Q308.1126 34.007603 308.1126 32.585728L308.1126 32.398228Q308.1126 31.445103 308.472 30.710728Q308.83136 29.960728 309.472 29.554478Q310.12823 29.132603 310.87823 29.132603Q312.1126 29.132603 312.8001 29.945103Q313.4876 30.757603 313.4876 32.273228L313.4876 32.726353L309.19073 32.726353Q309.222 33.663853 309.7376 34.241978Q310.26886 34.820103 311.08136 34.820103Q311.64386 34.820103 312.0345 34.585728Q312.44073 34.351353 312.75323 33.960728L313.4095 34.476353Q312.6126 35.710728 311.01886 35.710728ZM310.87823 30.023228Q310.222 30.023228 309.76886 30.507603Q309.33136 30.976353 309.2376 31.835728L312.4095 31.835728L312.4095 31.757603Q312.3626 30.929478 311.95636 30.476353Q311.56573 30.023228 310.87823 30.023228ZM318.3001 35.585728Q318.20636 35.398228 318.14386 34.913853Q317.39386 35.710728 316.347 35.710728Q315.4095 35.710728 314.8001 35.179478Q314.20636 34.648228 314.20636 33.820103Q314.20636 32.835728 314.95636 32.288853Q315.70636 31.741978 317.08136 31.741978L318.12823 31.741978L318.12823 31.241978Q318.12823 30.679478 317.7845 30.351353Q317.45636 30.007603 316.7845 30.007603Q316.20636 30.007603 315.81573 30.304478Q315.4251 30.585728 315.4251 31.007603L314.33136 31.007603Q314.33136 30.523228 314.6595 30.085728Q315.00323 29.648228 315.58136 29.398228Q316.1595 29.132603 316.847 29.132603Q317.95636 29.132603 318.56573 29.679478Q319.19073 30.226353 319.222 31.179478L319.222 34.101353Q319.222 34.976353 319.44073 35.491978L319.44073 35.585728L318.3001 35.585728ZM316.50323 34.757603Q317.01886 34.757603 317.472 34.491978Q317.9251 34.226353 318.12823 33.804478L318.12823 32.507603L317.2845 32.507603Q315.2845 32.507603 315.2845 33.679478Q315.2845 34.179478 315.62823 34.476353Q315.972 34.757603 316.50323 34.757603ZM322.4095 29.241978L322.44073 30.038853Q323.1751 29.132603 324.347 29.132603Q326.3626 29.132603 326.37823 31.398228L326.37823 35.585728L325.2845 35.585728L325.2845 31.382603Q325.2845 30.710728 324.972 30.382603Q324.6751 30.054478 324.01886 30.054478Q323.4876 30.054478 323.08136 30.335728Q322.69073 30.616978 322.472 31.070103L322.472 35.585728L321.39386 35.585728L321.39386 29.241978L322.4095 29.241978Z" fill-rule="nonzero"></path><path stroke="#ffffff" stroke-width="3.0" stroke-linejoin="round" stroke-linecap="round" d="M297.2569 51.607887L300.05377 58.561012L302.83502 51.607887L304.30377 51.607887L304.30377 60.139137L303.17877 60.139137L303.17877 56.811012L303.28815 53.232887L300.47565 60.139137L299.61627 60.139137L296.8194 53.248512L296.92877 56.811012L296.92877 60.139137L295.80377 60.139137L295.80377 51.607887L297.2569 51.607887ZM308.27252 60.264137Q306.97565 60.264137 306.16315 59.420387Q305.36627 58.561012 305.36627 57.139137L305.36627 56.951637Q305.36627 55.998512 305.72565 55.264137Q306.08502 54.514137 306.72565 54.107887Q307.3819 53.686012 308.1319 53.686012Q309.36627 53.686012 310.05377 54.498512Q310.74127 55.311012 310.74127 56.826637L310.74127 57.279762L306.4444 57.279762Q306.47565 58.217262 306.99127 58.795387Q307.52252 59.373512 308.33502 59.373512Q308.89752 59.373512 309.28815 59.139137Q309.6944 58.904762 310.0069 58.514137L310.66315 59.029762Q309.86627 60.264137 308.27252 60.264137ZM308.1319 54.576637Q307.47565 54.576637 307.02252 55.061012Q306.58502 55.529762 306.49127 56.389137L309.66315 56.389137L309.66315 56.311012Q309.61627 55.482887 309.21002 55.029762Q308.8194 54.576637 308.1319 54.576637ZM311.3819 56.920387Q311.3819 55.451637 312.0694 54.576637Q312.7569 53.686012 313.8819 53.686012Q314.99127 53.686012 315.64752 54.436012L315.64752 51.139137L316.72565 51.139137L316.72565 60.139137L315.72565 60.139137L315.67877 59.451637Q315.02252 60.264137 313.86627 60.264137Q312.77252 60.264137 312.0694 59.357887Q311.3819 58.451637 311.3819 56.998512L311.3819 56.920387ZM312.46002 57.045387Q312.46002 58.123512 312.89752 58.732887Q313.35065 59.342262 314.1319 59.342262Q315.16315 59.342262 315.64752 58.404762L315.64752 55.498512Q315.16315 54.607887 314.14752 54.607887Q313.35065 54.607887 312.89752 55.217262Q312.46002 55.826637 312.46002 57.045387ZM319.8194 60.139137L318.74127 60.139137L318.74127 53.795387L319.8194 53.795387L319.8194 60.139137ZM318.64752 52.123512Q318.64752 51.857887 318.80377 51.670387Q318.97565 51.482887 319.28815 51.482887Q319.60065 51.482887 319.7569 51.670387Q319.92877 51.857887 319.92877 52.123512Q319.92877 52.373512 319.7569 52.561012Q319.60065 52.732887 319.28815 52.732887Q318.97565 52.732887 318.80377 52.561012Q318.64752 52.373512 318.64752 52.123512ZM325.55377 60.139137Q325.46002 59.951637 325.39752 59.467262Q324.64752 60.264137 323.60065 60.264137Q322.66315 60.264137 322.05377 59.732887Q321.46002 59.201637 321.46002 58.373512Q321.46002 57.389137 322.21002 56.842262Q322.96002 56.295387 324.33502 56.295387L325.3819 56.295387L325.3819 55.795387Q325.3819 55.232887 325.03815 54.904762Q324.71002 54.561012 324.03815 54.561012Q323.46002 54.561012 323.0694 54.857887Q322.67877 55.139137 322.67877 55.561012L321.58502 55.561012Q321.58502 55.076637 321.91315 54.639137Q322.2569 54.201637 322.83502 53.951637Q323.41315 53.686012 324.10065 53.686012Q325.21002 53.686012 325.8194 54.232887Q326.4444 54.779762 326.47565 55.732887L326.47565 58.654762Q326.47565 59.529762 326.6944 60.045387L326.6944 60.139137L325.55377 60.139137ZM323.7569 59.311012Q324.27252 59.311012 324.72565 59.045387Q325.17877 58.779762 325.3819 58.357887L325.3819 57.061012L324.53815 57.061012Q322.53815 57.061012 322.53815 58.232887Q322.53815 58.732887 322.8819 59.029762Q323.22565 59.311012 323.7569 59.311012ZM329.66315 53.795387L329.6944 54.592262Q330.42877 53.686012 331.60065 53.686012Q333.61627 53.686012 333.6319 55.951637L333.6319 60.139137L332.53815 60.139137L332.53815 55.936012Q332.53815 55.264137 332.22565 54.936012Q331.92877 54.607887 331.27252 54.607887Q330.74127 54.607887 330.33502 54.889137Q329.9444 55.170387 329.72565 55.623512L329.72565 60.139137L328.64752 60.139137L328.64752 53.795387L329.66315 53.795387Z" fill-rule="nonzero"></path><path fill="#000000" d="M297.2569 51.607887L300.05377 58.561012L302.83502 51.607887L304.30377 51.607887L304.30377 60.139137L303.17877 60.139137L303.17877 56.811012L303.28815 53.232887L300.47565 60.139137L299.61627 60.139137L296.8194 53.248512L296.92877 56.811012L296.92877 60.139137L295.80377 60.139137L295.80377 51.607887L297.2569 51.607887ZM308.27252 60.264137Q306.97565 60.264137 306.16315 59.420387Q305.36627 58.561012 305.36627 57.139137L305.36627 56.951637Q305.36627 55.998512 305.72565 55.264137Q306.08502 54.514137 306.72565 54.107887Q307.3819 53.686012 308.1319 53.686012Q309.36627 53.686012 310.05377 54.498512Q310.74127 55.311012 310.74127 56.826637L310.74127 57.279762L306.4444 57.279762Q306.47565 58.217262 306.99127 58.795387Q307.52252 59.373512 308.33502 59.373512Q308.89752 59.373512 309.28815 59.139137Q309.6944 58.904762 310.0069 58.514137L310.66315 59.029762Q309.86627 60.264137 308.27252 60.264137ZM308.1319 54.576637Q307.47565 54.576637 307.02252 55.061012Q306.58502 55.529762 306.49127 56.389137L309.66315 56.389137L309.66315 56.311012Q309.61627 55.482887 309.21002 55.029762Q308.8194 54.576637 308.1319 54.576637ZM311.3819 56.920387Q311.3819 55.451637 312.0694 54.576637Q312.7569 53.686012 313.8819 53.686012Q314.99127 53.686012 315.64752 54.436012L315.64752 51.139137L316.72565 51.139137L316.72565 60.139137L315.72565 60.139137L315.67877 59.451637Q315.02252 60.264137 313.86627 60.264137Q312.77252 60.264137 312.0694 59.357887Q311.3819 58.451637 311.3819 56.998512L311.3819 56.920387ZM312.46002 57.045387Q312.46002 58.123512 312.89752 58.732887Q313.35065 59.342262 314.1319 59.342262Q315.16315 59.342262 315.64752 58.404762L315.64752 55.498512Q315.16315 54.607887 314.14752 54.607887Q313.35065 54.607887 312.89752 55.217262Q312.46002 55.826637 312.46002 57.045387ZM319.8194 60.139137L318.74127 60.139137L318.74127 53.795387L319.8194 53.795387L319.8194 60.139137ZM318.64752 52.123512Q318.64752 51.857887 318.80377 51.670387Q318.97565 51.482887 319.28815 51.482887Q319.60065 51.482887 319.7569 51.670387Q319.92877 51.857887 319.92877 52.123512Q319.92877 52.373512 319.7569 52.561012Q319.60065 52.732887 319.28815 52.732887Q318.97565 52.732887 318.80377 52.561012Q318.64752 52.373512 318.64752 52.123512ZM325.55377 60.139137Q325.46002 59.951637 325.39752 59.467262Q324.64752 60.264137 323.60065 60.264137Q322.66315 60.264137 322.05377 59.732887Q321.46002 59.201637 321.46002 58.373512Q321.46002 57.389137 322.21002 56.842262Q322.96002 56.295387 324.33502 56.295387L325.3819 56.295387L325.3819 55.795387Q325.3819 55.232887 325.03815 54.904762Q324.71002 54.561012 324.03815 54.561012Q323.46002 54.561012 323.0694 54.857887Q322.67877 55.139137 322.67877 55.561012L321.58502 55.561012Q321.58502 55.076637 321.91315 54.639137Q322.2569 54.201637 322.83502 53.951637Q323.41315 53.686012 324.10065 53.686012Q325.21002 53.686012 325.8194 54.232887Q326.4444 54.779762 326.47565 55.732887L326.47565 58.654762Q326.47565 59.529762 326.6944 60.045387L326.6944 60.139137L325.55377 60.139137ZM323.7569 59.311012Q324.27252 59.311012 324.72565 59.045387Q325.17877 58.779762 325.3819 58.357887L325.3819 57.061012L324.53815 57.061012Q322.53815 57.061012 322.53815 58.232887Q322.53815 58.732887 322.8819 59.029762Q323.22565 59.311012 323.7569 59.311012ZM329.66315 53.795387L329.6944 54.592262Q330.42877 53.686012 331.60065 53.686012Q333.61627 53.686012 333.6319 55.951637L333.6319 60.139137L332.53815 60.139137L332.53815 55.936012Q332.53815 55.264137 332.22565 54.936012Q331.92877 54.607887 331.27252 54.607887Q330.74127 54.607887 330.33502 54.889137Q329.9444 55.170387 329.72565 55.623512L329.72565 60.139137L328.64752 60.139137L328.64752 53.795387L329.66315 53.795387Z" fill-rule="nonzero"></path><path stroke="#ffffff" stroke-width="3.0" stroke-linejoin="round" stroke-linecap="round" d="M298.92508 76.1613L301.72195 83.114426L304.5032 76.1613L305.97195 76.1613L305.97195 84.69255L304.84695 84.69255L304.84695 81.364426L304.95633 77.7863L302.14383 84.69255L301.28445 84.69255L298.48758 77.801926L298.59695 81.364426L298.59695 84.69255L297.47195 84.69255L297.47195 76.1613L298.92508 76.1613ZM307.01883 81.458176Q307.01883 80.5363 307.3782 79.7863Q307.7532 79.0363 308.40945 78.645676Q309.0657 78.239426 309.89383 78.239426Q311.1907 78.239426 311.98758 79.13005Q312.80008 80.020676 312.80008 81.520676L312.80008 81.5988Q312.80008 82.520676 312.4407 83.25505Q312.08133 83.989426 311.42508 84.4113Q310.76883 84.81755 309.90945 84.81755Q308.6282 84.81755 307.8157 83.926926Q307.01883 83.020676 307.01883 81.5363L307.01883 81.458176ZM308.11258 81.5988Q308.11258 82.645676 308.59695 83.2863Q309.09695 83.926926 309.90945 83.926926Q310.73758 83.926926 311.22195 83.2863Q311.70633 82.63005 311.70633 81.458176Q311.70633 80.426926 311.20633 79.7863Q310.72195 79.13005 309.89383 79.13005Q309.09695 79.13005 308.59695 79.770676Q308.11258 80.395676 308.11258 81.5988ZM314.05008 81.4738Q314.05008 80.00505 314.73758 79.13005Q315.42508 78.239426 316.55008 78.239426Q317.65945 78.239426 318.3157 78.989426L318.3157 75.69255L319.39383 75.69255L319.39383 84.69255L318.39383 84.69255L318.34695 84.00505Q317.6907 84.81755 316.53445 84.81755Q315.4407 84.81755 314.73758 83.9113Q314.05008 83.00505 314.05008 81.551926L314.05008 81.4738ZM315.1282 81.5988Q315.1282 82.676926 315.5657 83.2863Q316.01883 83.895676 316.80008 83.895676Q317.83133 83.895676 318.3157 82.958176L318.3157 80.051926Q317.83133 79.1613 316.8157 79.1613Q316.01883 79.1613 315.5657 79.770676Q315.1282 80.38005 315.1282 81.5988ZM323.9407 84.81755Q322.64383 84.81755 321.83133 83.9738Q321.03445 83.114426 321.03445 81.69255L321.03445 81.50505Q321.03445 80.551926 321.39383 79.81755Q321.7532 79.06755 322.39383 78.6613Q323.05008 78.239426 323.80008 78.239426Q325.03445 78.239426 325.72195 79.051926Q326.40945 79.864426 326.40945 81.38005L326.40945 81.833176L322.11258 81.833176Q322.14383 82.770676 322.65945 83.3488Q323.1907 83.926926 324.0032 83.926926Q324.5657 83.926926 324.95633 83.69255Q325.36258 83.458176 325.67508 83.06755L326.33133 83.583176Q325.53445 84.81755 323.9407 84.81755ZM323.80008 79.13005Q323.14383 79.13005 322.6907 79.614426Q322.2532 80.083176 322.15945 80.94255L325.33133 80.94255L325.33133 80.864426Q325.28445 80.0363 324.8782 79.583176Q324.48758 79.13005 323.80008 79.13005Z" fill-rule="nonzero"></path><path fill="#000000" d="M298.92508 76.1613L301.72195 83.114426L304.5032 76.1613L305.97195 76.1613L305.97195 84.69255L304.84695 84.69255L304.84695 81.364426L304.95633 77.7863L302.14383 84.69255L301.28445 84.69255L298.48758 77.801926L298.59695 81.364426L298.59695 84.69255L297.47195 84.69255L297.47195 76.1613L298.92508 76.1613ZM307.01883 81.458176Q307.01883 80.5363 307.3782 79.7863Q307.7532 79.0363 308.40945 78.645676Q309.0657 78.239426 309.89383 78.239426Q311.1907 78.239426 311.98758 79.13005Q312.80008 80.020676 312.80008 81.520676L312.80008 81.5988Q312.80008 82.520676 312.4407 83.25505Q312.08133 83.989426 311.42508 84.4113Q310.76883 84.81755 309.90945 84.81755Q308.6282 84.81755 307.8157 83.926926Q307.01883 83.020676 307.01883 81.5363L307.01883 81.458176ZM308.11258 81.5988Q308.11258 82.645676 308.59695 83.2863Q309.09695 83.926926 309.90945 83.926926Q310.73758 83.926926 311.22195 83.2863Q311.70633 82.63005 311.70633 81.458176Q311.70633 80.426926 311.20633 79.7863Q310.72195 79.13005 309.89383 79.13005Q309.09695 79.13005 308.59695 79.770676Q308.11258 80.395676 308.11258 81.5988ZM314.05008 81.4738Q314.05008 80.00505 314.73758 79.13005Q315.42508 78.239426 316.55008 78.239426Q317.65945 78.239426 318.3157 78.989426L318.3157 75.69255L319.39383 75.69255L319.39383 84.69255L318.39383 84.69255L318.34695 84.00505Q317.6907 84.81755 316.53445 84.81755Q315.4407 84.81755 314.73758 83.9113Q314.05008 83.00505 314.05008 81.551926L314.05008 81.4738ZM315.1282 81.5988Q315.1282 82.676926 315.5657 83.2863Q316.01883 83.895676 316.80008 83.895676Q317.83133 83.895676 318.3157 82.958176L318.3157 80.051926Q317.83133 79.1613 316.8157 79.1613Q316.01883 79.1613 315.5657 79.770676Q315.1282 80.38005 315.1282 81.5988ZM323.9407 84.81755Q322.64383 84.81755 321.83133 83.9738Q321.03445 83.114426 321.03445 81.69255L321.03445 81.50505Q321.03445 80.551926 321.39383 79.81755Q321.7532 79.06755 322.39383 78.6613Q323.05008 78.239426 323.80008 78.239426Q325.03445 78.239426 325.72195 79.051926Q326.40945 79.864426 326.40945 81.38005L326.40945 81.833176L322.11258 81.833176Q322.14383 82.770676 322.65945 83.3488Q323.1907 83.926926 324.0032 83.926926Q324.5657 83.926926 324.95633 83.69255Q325.36258 83.458176 325.67508 83.06755L326.33133 83.583176Q325.53445 84.81755 323.9407 84.81755ZM323.80008 79.13005Q323.14383 79.13005 322.6907 79.614426Q322.2532 80.083176 322.15945 80.94255L325.33133 80.94255L325.33133 80.864426Q325.28445 80.0363 324.8782 79.583176Q324.48758 79.13005 323.80008 79.13005Z" fill-rule="nonzero"></path><path fill="#000000" d="M213.92188 349.45L213.92188 340.85626L215.07812 340.85626L219.59375 347.60626L219.59375 340.85626L220.6875 340.85626L220.6875 349.45L219.51562 349.45L215.0 342.7L215.0 349.45L213.92188 349.45ZM226.875 349.45L226.875 348.52814Q226.14062 349.59064 224.89062 349.59064Q224.34375 349.59064 223.85938 349.3875Q223.39062 349.16876 223.15625 348.85626Q222.92188 348.52814 222.82812 348.0594Q222.76562 347.7625 222.76562 347.075L222.76562 343.23126L223.82812 343.23126L223.82812 346.6844Q223.82812 347.4969 223.89062 347.79376Q223.98438 348.2 224.29688 348.45Q224.625 348.6844 225.10938 348.6844Q225.57812 348.6844 225.98438 348.45Q226.40625 348.2 226.57812 347.77814Q226.76562 347.35626 226.76562 346.5594L226.76562 343.23126L227.8125 343.23126L227.8125 349.45L226.875 349.45ZM229.79688 349.45L229.79688 343.23126L230.73438 343.23126L230.73438 344.10626Q231.03125 343.6375 231.51562 343.3719Q232.0 343.09064 232.625 343.09064Q233.3125 343.09064 233.75 343.3719Q234.20312 343.65314 234.375 344.16876Q235.125 343.09064 236.29688 343.09064Q237.23438 343.09064 237.71875 343.60626Q238.21875 344.10626 238.21875 345.1844L238.21875 349.45L237.17188 349.45L237.17188 345.52814Q237.17188 344.90314 237.0625 344.6219Q236.96875 344.34064 236.70312 344.16876Q236.4375 343.9969 236.0625 343.9969Q235.40625 343.9969 234.96875 344.4344Q234.54688 344.8719 234.54688 345.84064L234.54688 349.45L233.48438 349.45L233.48438 345.40314Q233.48438 344.7 233.21875 344.35626Q232.96875 343.9969 232.39062 343.9969Q231.9375 343.9969 231.5625 344.23126Q231.1875 344.46564 231.01562 344.91876Q230.84375 345.3719 230.84375 346.21564L230.84375 349.45L229.79688 349.45ZM240.76562 349.45L239.78125 349.45L239.78125 340.85626L240.84375 340.85626L240.84375 343.91876Q241.51562 343.09064 242.54688 343.09064Q243.125 343.09064 243.625 343.325Q244.14062 343.54376 244.46875 343.96564Q244.8125 344.3875 245.0 344.98126Q245.1875 345.575 245.1875 346.2469Q245.1875 347.84064 244.39062 348.71564Q243.59375 349.59064 242.5 349.59064Q241.39062 349.59064 240.76562 348.66876L240.76562 349.45ZM240.75 346.29376Q240.75 347.40314 241.0625 347.90314Q241.5625 348.71564 242.40625 348.71564Q243.09375 348.71564 243.59375 348.1219Q244.10938 347.52814 244.10938 346.325Q244.10938 345.10626 243.625 344.52814Q243.14062 343.95 242.45312 343.95Q241.76562 343.95 241.25 344.5594Q240.75 345.15314 240.75 346.29376ZM251.04688 347.45L252.14062 347.575Q251.89062 348.52814 251.1875 349.0594Q250.48438 349.59064 249.40625 349.59064Q248.04688 349.59064 247.23438 348.7469Q246.4375 347.90314 246.4375 346.3875Q246.4375 344.825 247.25 343.96564Q248.0625 343.09064 249.34375 343.09064Q250.59375 343.09064 251.375 343.9344Q252.17188 344.77814 252.17188 346.325Q252.17188 346.41876 252.17188 346.60626L247.53125 346.60626Q247.59375 347.6375 248.10938 348.1844Q248.625 348.71564 249.40625 348.71564Q249.98438 348.71564 250.39062 348.41876Q250.8125 348.10626 251.04688 347.45ZM247.59375 345.7469L251.0625 345.7469Q251.0 344.95 250.67188 344.5594Q250.15625 343.95 249.35938 343.95Q248.625 343.95 248.125 344.4344Q247.64062 344.91876 247.59375 345.7469ZM253.78125 349.45L253.78125 343.23126L254.73438 343.23126L254.73438 344.16876Q255.09375 343.5125 255.39062 343.3094Q255.70312 343.09064 256.07812 343.09064Q256.60938 343.09064 257.15625 343.41876L256.79688 344.40314Q256.40625 344.16876 256.03125 344.16876Q255.67188 344.16876 255.39062 344.3875Q255.125 344.59064 255.01562 344.96564Q254.82812 345.52814 254.82812 346.1844L254.82812 349.45L253.78125 349.45ZM260.40625 346.34064Q260.40625 344.60626 261.35938 343.77814Q262.15625 343.09064 263.3125 343.09064Q264.59375 343.09064 265.40625 343.9344Q266.23438 344.7625 266.23438 346.2469Q266.23438 347.45 265.875 348.1375Q265.51562 348.825 264.8125 349.21564Q264.125 349.59064 263.3125 349.59064Q262.01562 349.59064 261.20312 348.7625Q260.40625 347.91876 260.40625 346.34064ZM261.48438 346.34064Q261.48438 347.52814 262.0 348.1219Q262.53125 348.71564 263.3125 348.71564Q264.10938 348.71564 264.625 348.1219Q265.14062 347.52814 265.14062 346.3094Q265.14062 345.15314 264.60938 344.5594Q264.09375 343.96564 263.3125 343.96564Q262.53125 343.96564 262.0 344.5594Q261.48438 345.1375 261.48438 346.34064ZM268.04688 349.45L268.04688 344.04376L267.10938 344.04376L267.10938 343.23126L268.04688 343.23126L268.04688 342.5594Q268.04688 341.9344 268.15625 341.6375Q268.3125 341.21564 268.6875 340.96564Q269.07812 340.71564 269.76562 340.71564Q270.21875 340.71564 270.75 340.825L270.59375 341.73126Q270.26562 341.6844 269.96875 341.6844Q269.48438 341.6844 269.28125 341.8875Q269.09375 342.09064 269.09375 342.65314L269.09375 343.23126L270.3125 343.23126L270.3125 344.04376L269.09375 344.04376L269.09375 349.45L268.04688 349.45ZM274.76562 349.45L273.78125 349.45L273.78125 340.85626L274.84375 340.85626L274.84375 343.91876Q275.51562 343.09064 276.54688 343.09064Q277.125 343.09064 277.625 343.325Q278.14062 343.54376 278.46875 343.96564Q278.8125 344.3875 279.0 344.98126Q279.1875 345.575 279.1875 346.2469Q279.1875 347.84064 278.39062 348.71564Q277.59375 349.59064 276.5 349.59064Q275.39062 349.59064 274.76562 348.66876L274.76562 349.45ZM274.75 346.29376Q274.75 347.40314 275.0625 347.90314Q275.5625 348.71564 276.40625 348.71564Q277.09375 348.71564 277.59375 348.1219Q278.10938 347.52814 278.10938 346.325Q278.10938 345.10626 277.625 344.52814Q277.14062 343.95 276.45312 343.95Q275.76562 343.95 275.25 344.5594Q274.75 345.15314 274.75 346.29376ZM280.40625 346.34064Q280.40625 344.60626 281.35938 343.77814Q282.15625 343.09064 283.3125 343.09064Q284.59375 343.09064 285.40625 343.9344Q286.23438 344.7625 286.23438 346.2469Q286.23438 347.45 285.875 348.1375Q285.51562 348.825 284.8125 349.21564Q284.125 349.59064 283.3125 349.59064Q282.01562 349.59064 281.20312 348.7625Q280.40625 347.91876 280.40625 346.34064ZM281.48438 346.34064Q281.48438 347.52814 282.0 348.1219Q282.53125 348.71564 283.3125 348.71564Q284.10938 348.71564 284.625 348.1219Q285.14062 347.52814 285.14062 346.3094Q285.14062 345.15314 284.60938 344.5594Q284.09375 343.96564 283.3125 343.96564Q282.53125 343.96564 282.0 344.5594Q281.48438 345.1375 281.48438 346.34064ZM287.40625 346.34064Q287.40625 344.60626 288.35938 343.77814Q289.15625 343.09064 290.3125 343.09064Q291.59375 343.09064 292.40625 343.9344Q293.23438 344.7625 293.23438 346.2469Q293.23438 347.45 292.875 348.1375Q292.51562 348.825 291.8125 349.21564Q291.125 349.59064 290.3125 349.59064Q289.01562 349.59064 288.20312 348.7625Q287.40625 347.91876 287.40625 346.34064ZM288.48438 346.34064Q288.48438 347.52814 289.0 348.1219Q289.53125 348.71564 290.3125 348.71564Q291.10938 348.71564 291.625 348.1219Q292.14062 347.52814 292.14062 346.3094Q292.14062 345.15314 291.60938 344.5594Q291.09375 343.96564 290.3125 343.96564Q289.53125 343.96564 289.0 344.5594Q288.48438 345.1375 288.48438 346.34064ZM294.79688 349.45L294.79688 340.85626L295.85938 340.85626L295.85938 345.7625L298.34375 343.23126L299.71875 343.23126L297.32812 345.52814L299.95312 349.45L298.65625 349.45L296.59375 346.2625L295.85938 346.98126L295.85938 349.45L294.79688 349.45ZM300.375 347.59064L301.40625 347.4344Q301.5 348.0594 301.89062 348.3875Q302.29688 348.71564 303.03125 348.71564Q303.75 348.71564 304.09375 348.4344Q304.45312 348.1375 304.45312 347.73126Q304.45312 347.3719 304.14062 347.16876Q303.92188 347.02814 303.0625 346.8094Q301.90625 346.5125 301.45312 346.3094Q301.01562 346.09064 300.78125 345.71564Q300.54688 345.34064 300.54688 344.8719Q300.54688 344.46564 300.73438 344.10626Q300.92188 343.7469 301.25 343.5125Q301.5 343.34064 301.92188 343.21564Q302.34375 343.09064 302.84375 343.09064Q303.5625 343.09064 304.10938 343.3094Q304.67188 343.5125 304.9375 343.8719Q305.20312 344.23126 305.29688 344.825L304.26562 344.96564Q304.20312 344.4969 303.85938 344.23126Q303.53125 343.95 302.90625 343.95Q302.1875 343.95 301.875 344.2Q301.5625 344.4344 301.5625 344.7625Q301.5625 344.96564 301.6875 345.1219Q301.82812 345.29376 302.09375 345.40314Q302.25 345.46564 303.03125 345.66876Q304.15625 345.98126 304.59375 346.16876Q305.03125 346.35626 305.28125 346.71564Q305.53125 347.075 305.53125 347.6219Q305.53125 348.15314 305.21875 348.6219Q304.92188 349.075 304.34375 349.34064Q303.76562 349.59064 303.03125 349.59064Q301.8125 349.59064 301.17188 349.09064Q300.54688 348.575 300.375 347.59064ZM309.78125 349.45L309.78125 343.23126L310.73438 343.23126L310.73438 344.16876Q311.09375 343.5125 311.39062 343.3094Q311.70312 343.09064 312.07812 343.09064Q312.60938 343.09064 313.15625 343.41876L312.79688 344.40314Q312.40625 344.16876 312.03125 344.16876Q311.67188 344.16876 311.39062 344.3875Q311.125 344.59064 311.01562 344.96564Q310.82812 345.52814 310.82812 346.1844L310.82812 349.45L309.78125 349.45ZM318.04688 347.45L319.14062 347.575Q318.89062 348.52814 318.1875 349.0594Q317.48438 349.59064 316.40625 349.59064Q315.04688 349.59064 314.23438 348.7469Q313.4375 347.90314 313.4375 346.3875Q313.4375 344.825 314.25 343.96564Q315.0625 343.09064 316.34375 343.09064Q317.59375 343.09064 318.375 343.9344Q319.17188 344.77814 319.17188 346.325Q319.17188 346.41876 319.17188 346.60626L314.53125 346.60626Q314.59375 347.6375 315.10938 348.1844Q315.625 348.71564 316.40625 348.71564Q316.98438 348.71564 317.39062 348.41876Q317.8125 348.10626 318.04688 347.45ZM314.59375 345.7469L318.0625 345.7469Q318.0 344.95 317.67188 344.5594Q317.15625 343.95 316.35938 343.95Q315.625 343.95 315.125 344.4344Q314.64062 344.91876 314.59375 345.7469ZM324.85938 348.6844Q324.26562 349.1844 323.71875 349.3875Q323.1875 349.59064 322.5625 349.59064Q321.53125 349.59064 320.98438 349.09064Q320.4375 348.59064 320.4375 347.8094Q320.4375 347.35626 320.64062 346.98126Q320.84375 346.59064 321.1875 346.3719Q321.53125 346.1375 321.95312 346.02814Q322.25 345.9344 322.89062 345.85626Q324.15625 345.71564 324.76562 345.4969Q324.76562 345.27814 324.76562 345.23126Q324.76562 344.575 324.46875 344.3094Q324.0625 343.96564 323.26562 343.96564Q322.53125 343.96564 322.17188 344.23126Q321.8125 344.48126 321.64062 345.1375L320.60938 344.9969Q320.75 344.34064 321.07812 343.9344Q321.40625 343.52814 322.01562 343.3094Q322.625 343.09064 323.42188 343.09064Q324.21875 343.09064 324.71875 343.27814Q325.21875 343.46564 325.45312 343.7469Q325.6875 344.02814 325.78125 344.46564Q325.82812 344.73126 325.82812 345.4344L325.82812 346.84064Q325.82812 348.3094 325.89062 348.7Q325.96875 349.09064 326.17188 349.45L325.0625 349.45Q324.90625 349.1219 324.85938 348.6844ZM324.76562 346.325Q324.1875 346.5594 323.04688 346.73126Q322.39062 346.825 322.125 346.95Q321.85938 347.0594 321.70312 347.27814Q321.5625 347.4969 321.5625 347.77814Q321.5625 348.2 321.875 348.48126Q322.20312 348.7625 322.8125 348.7625Q323.42188 348.7625 323.89062 348.4969Q324.375 348.23126 324.59375 347.7625Q324.76562 347.40314 324.76562 346.71564L324.76562 346.325ZM331.82812 349.45L331.82812 348.66876Q331.23438 349.59064 330.09375 349.59064Q329.34375 349.59064 328.71875 349.1844Q328.09375 348.7625 327.75 348.02814Q327.40625 347.29376 327.40625 346.34064Q327.40625 345.41876 327.71875 344.65314Q328.03125 343.8875 328.65625 343.4969Q329.28125 343.09064 330.04688 343.09064Q330.60938 343.09064 331.04688 343.325Q331.48438 343.5594 331.76562 343.9344L331.76562 340.85626L332.8125 340.85626L332.8125 349.45L331.82812 349.45ZM328.5 346.34064Q328.5 347.54376 329.0 348.1375Q329.5 348.71564 330.1875 348.71564Q330.875 348.71564 331.35938 348.15314Q331.84375 347.59064 331.84375 346.4344Q331.84375 345.15314 331.34375 344.5594Q330.85938 343.96564 330.14062 343.96564Q329.4375 343.96564 328.96875 344.54376Q328.5 345.10626 328.5 346.34064ZM337.79688 342.075L337.79688 340.85626L338.85938 340.85626L338.85938 342.075L337.79688 342.075ZM337.79688 349.45L337.79688 343.23126L338.85938 343.23126L338.85938 349.45L337.79688 349.45ZM340.79688 349.45L340.79688 343.23126L341.73438 343.23126L341.73438 344.10626Q342.42188 343.09064 343.71875 343.09064Q344.28125 343.09064 344.75 343.29376Q345.23438 343.4969 345.46875 343.825Q345.70312 344.15314 345.79688 344.59064Q345.84375 344.8875 345.84375 345.6219L345.84375 349.45L344.79688 349.45L344.79688 345.66876Q344.79688 345.0125 344.67188 344.7Q344.54688 344.3875 344.23438 344.2Q343.92188 343.9969 343.5 343.9969Q342.82812 343.9969 342.32812 344.4344Q341.84375 344.85626 341.84375 346.04376L341.84375 349.45L340.79688 349.45ZM353.09375 348.5125L353.25 349.4344Q352.79688 349.52814 352.45312 349.52814Q351.875 349.52814 351.5625 349.35626Q351.25 349.16876 351.10938 348.8719Q350.98438 348.575 350.98438 347.6219L350.98438 344.04376L350.21875 344.04376L350.21875 343.23126L350.98438 343.23126L350.98438 341.6844L352.03125 341.0594L352.03125 343.23126L353.09375 343.23126L353.09375 344.04376L352.03125 344.04376L352.03125 347.6844Q352.03125 348.1375 352.07812 348.2625Q352.14062 348.3875 352.26562 348.46564Q352.39062 348.54376 352.625 348.54376Q352.8125 348.54376 353.09375 348.5125ZM353.79688 349.45L353.79688 340.85626L354.84375 340.85626L354.84375 343.9344Q355.57812 343.09064 356.70312 343.09064Q357.40625 343.09064 357.90625 343.3719Q358.42188 343.6375 358.64062 344.1219Q358.85938 344.59064 358.85938 345.5125L358.85938 349.45L357.8125 349.45L357.8125 345.5125Q357.8125 344.71564 357.46875 344.35626Q357.125 343.9969 356.5 343.9969Q356.03125 343.9969 355.60938 344.2469Q355.20312 344.48126 355.01562 344.90314Q354.84375 345.3094 354.84375 346.04376L354.84375 349.45L353.79688 349.45ZM365.04688 347.45L366.14062 347.575Q365.89062 348.52814 365.1875 349.0594Q364.48438 349.59064 363.40625 349.59064Q362.04688 349.59064 361.23438 348.7469Q360.4375 347.90314 360.4375 346.3875Q360.4375 344.825 361.25 343.96564Q362.0625 343.09064 363.34375 343.09064Q364.59375 343.09064 365.375 343.9344Q366.17188 344.77814 366.17188 346.325Q366.17188 346.41876 366.17188 346.60626L361.53125 346.60626Q361.59375 347.6375 362.10938 348.1844Q362.625 348.71564 363.40625 348.71564Q363.98438 348.71564 364.39062 348.41876Q364.8125 348.10626 365.04688 347.45ZM361.59375 345.7469L365.0625 345.7469Q365.0 344.95 364.67188 344.5594Q364.15625 343.95 363.35938 343.95Q362.625 343.95 362.125 344.4344Q361.64062 344.91876 361.59375 345.7469ZM370.76562 349.45L370.76562 340.85626L371.82812 340.85626L371.82812 349.45L370.76562 349.45ZM377.85938 348.6844Q377.26562 349.1844 376.71875 349.3875Q376.1875 349.59064 375.5625 349.59064Q374.53125 349.59064 373.98438 349.09064Q373.4375 348.59064 373.4375 347.8094Q373.4375 347.35626 373.64062 346.98126Q373.84375 346.59064 374.1875 346.3719Q374.53125 346.1375 374.95312 346.02814Q375.25 345.9344 375.89062 345.85626Q377.15625 345.71564 377.76562 345.4969Q377.76562 345.27814 377.76562 345.23126Q377.76562 344.575 377.46875 344.3094Q377.0625 343.96564 376.26562 343.96564Q375.53125 343.96564 375.17188 344.23126Q374.8125 344.48126 374.64062 345.1375L373.60938 344.9969Q373.75 344.34064 374.07812 343.9344Q374.40625 343.52814 375.01562 343.3094Q375.625 343.09064 376.42188 343.09064Q377.21875 343.09064 377.71875 343.27814Q378.21875 343.46564 378.45312 343.7469Q378.6875 344.02814 378.78125 344.46564Q378.82812 344.73126 378.82812 345.4344L378.82812 346.84064Q378.82812 348.3094 378.89062 348.7Q378.96875 349.09064 379.17188 349.45L378.0625 349.45Q377.90625 349.1219 377.85938 348.6844ZM377.76562 346.325Q377.1875 346.5594 376.04688 346.73126Q375.39062 346.825 375.125 346.95Q374.85938 347.0594 374.70312 347.27814Q374.5625 347.4969 374.5625 347.77814Q374.5625 348.2 374.875 348.48126Q375.20312 348.7625 375.8125 348.7625Q376.42188 348.7625 376.89062 348.4969Q377.375 348.23126 377.59375 347.7625Q377.76562 347.40314 377.76562 346.71564L377.76562 346.325ZM380.375 347.59064L381.40625 347.4344Q381.5 348.0594 381.89062 348.3875Q382.29688 348.71564 383.03125 348.71564Q383.75 348.71564 384.09375 348.4344Q384.45312 348.1375 384.45312 347.73126Q384.45312 347.3719 384.14062 347.16876Q383.92188 347.02814 383.0625 346.8094Q381.90625 346.5125 381.45312 346.3094Q381.01562 346.09064 380.78125 345.71564Q380.54688 345.34064 380.54688 344.8719Q380.54688 344.46564 380.73438 344.10626Q380.92188 343.7469 381.25 343.5125Q381.5 343.34064 381.92188 343.21564Q382.34375 343.09064 382.84375 343.09064Q383.5625 343.09064 384.10938 343.3094Q384.67188 343.5125 384.9375 343.8719Q385.20312 344.23126 385.29688 344.825L384.26562 344.96564Q384.20312 344.4969 383.85938 344.23126Q383.53125 343.95 382.90625 343.95Q382.1875 343.95 381.875 344.2Q381.5625 344.4344 381.5625 344.7625Q381.5625 344.96564 381.6875 345.1219Q381.82812 345.29376 382.09375 345.40314Q382.25 345.46564 383.03125 345.66876Q384.15625 345.98126 384.59375 346.16876Q385.03125 346.35626 385.28125 346.71564Q385.53125 347.075 385.53125 347.6219Q385.53125 348.15314 385.21875 348.6219Q384.92188 349.075 384.34375 349.34064Q383.76562 349.59064 383.03125 349.59064Q381.8125 349.59064 381.17188 349.09064Q380.54688 348.575 380.375 347.59064ZM389.09375 348.5125L389.25 349.4344Q388.79688 349.52814 388.45312 349.52814Q387.875 349.52814 387.5625 349.35626Q387.25 349.16876 387.10938 348.8719Q386.98438 348.575 386.98438 347.6219L386.98438 344.04376L386.21875 344.04376L386.21875 343.23126L386.98438 343.23126L386.98438 341.6844L388.03125 341.0594L388.03125 343.23126L389.09375 343.23126L389.09375 344.04376L388.03125 344.04376L388.03125 347.6844Q388.03125 348.1375 388.07812 348.2625Q388.14062 348.3875 388.26562 348.46564Q388.39062 348.54376 388.625 348.54376Q388.8125 348.54376 389.09375 348.5125ZM392.75 351.84064L392.625 350.85626Q392.96875 350.95 393.23438 350.95Q393.57812 350.95 393.78125 350.825Q394.0 350.71564 394.14062 350.5125Q394.23438 350.34064 394.46875 349.71564Q394.48438 349.6375 394.5625 349.46564L392.1875 343.23126L393.32812 343.23126L394.625 346.825Q394.875 347.5125 395.07812 348.27814Q395.26562 347.54376 395.51562 346.85626L396.84375 343.23126L397.89062 343.23126L395.53125 349.5594Q395.14062 350.575 394.9375 350.96564Q394.65625 351.4969 394.28125 351.73126Q393.92188 351.98126 393.42188 351.98126Q393.125 351.98126 392.75 351.84064ZM403.04688 347.45L404.14062 347.575Q403.89062 348.52814 403.1875 349.0594Q402.48438 349.59064 401.40625 349.59064Q400.04688 349.59064 399.23438 348.7469Q398.4375 347.90314 398.4375 346.3875Q398.4375 344.825 399.25 343.96564Q400.0625 343.09064 401.34375 343.09064Q402.59375 343.09064 403.375 343.9344Q404.17188 344.77814 404.17188 346.325Q404.17188 346.41876 404.17188 346.60626L399.53125 346.60626Q399.59375 347.6375 400.10938 348.1844Q400.625 348.71564 401.40625 348.71564Q401.98438 348.71564 402.39062 348.41876Q402.8125 348.10626 403.04688 347.45ZM399.59375 345.7469L403.0625 345.7469Q403.0 344.95 402.67188 344.5594Q402.15625 343.95 401.35938 343.95Q400.625 343.95 400.125 344.4344Q399.64062 344.91876 399.59375 345.7469ZM409.85938 348.6844Q409.26562 349.1844 408.71875 349.3875Q408.1875 349.59064 407.5625 349.59064Q406.53125 349.59064 405.98438 349.09064Q405.4375 348.59064 405.4375 347.8094Q405.4375 347.35626 405.64062 346.98126Q405.84375 346.59064 406.1875 346.3719Q406.53125 346.1375 406.95312 346.02814Q407.25 345.9344 407.89062 345.85626Q409.15625 345.71564 409.76562 345.4969Q409.76562 345.27814 409.76562 345.23126Q409.76562 344.575 409.46875 344.3094Q409.0625 343.96564 408.26562 343.96564Q407.53125 343.96564 407.17188 344.23126Q406.8125 344.48126 406.64062 345.1375L405.60938 344.9969Q405.75 344.34064 406.07812 343.9344Q406.40625 343.52814 407.01562 343.3094Q407.625 343.09064 408.42188 343.09064Q409.21875 343.09064 409.71875 343.27814Q410.21875 343.46564 410.45312 343.7469Q410.6875 344.02814 410.78125 344.46564Q410.82812 344.73126 410.82812 345.4344L410.82812 346.84064Q410.82812 348.3094 410.89062 348.7Q410.96875 349.09064 411.17188 349.45L410.0625 349.45Q409.90625 349.1219 409.85938 348.6844ZM409.76562 346.325Q409.1875 346.5594 408.04688 346.73126Q407.39062 346.825 407.125 346.95Q406.85938 347.0594 406.70312 347.27814Q406.5625 347.4969 406.5625 347.77814Q406.5625 348.2 406.875 348.48126Q407.20312 348.7625 407.8125 348.7625Q408.42188 348.7625 408.89062 348.4969Q409.375 348.23126 409.59375 347.7625Q409.76562 347.40314 409.76562 346.71564L409.76562 346.325ZM412.78125 349.45L412.78125 343.23126L413.73438 343.23126L413.73438 344.16876Q414.09375 343.5125 414.39062 343.3094Q414.70312 343.09064 415.07812 343.09064Q415.60938 343.09064 416.15625 343.41876L415.79688 344.40314Q415.40625 344.16876 415.03125 344.16876Q414.67188 344.16876 414.39062 344.3875Q414.125 344.59064 414.01562 344.96564Q413.82812 345.52814 413.82812 346.1844L413.82812 349.45L412.78125 349.45Z" fill-rule="nonzero"></path><path fill="#000000" d="M29.550013 197.51562L20.956263 197.51562L20.956263 191.71875L21.971888 191.71875L21.971888 196.375L24.628138 196.375L24.628138 192.34375L25.643763 192.34375L25.643763 196.375L29.550013 196.375L29.550013 197.51562ZM29.550013 190.71875L23.331263 190.71875L23.331263 189.76562L24.268763 189.76562Q23.612513 189.40625 23.409388 189.10938Q23.190638 188.79688 23.190638 188.42188Q23.190638 187.89062 23.518763 187.34375L24.503138 187.70312Q24.268763 188.09375 24.268763 188.46875Q24.268763 188.82812 24.487513 189.10938Q24.690638 189.375 25.065638 189.48438Q25.628138 189.67188 26.284388 189.67188L29.550013 189.67188L29.550013 190.71875ZM27.550013 182.45312L27.675013 181.35938Q28.628138 181.60938 29.159388 182.3125Q29.690638 183.01562 29.690638 184.09375Q29.690638 185.45312 28.846888 186.26562Q28.003138 187.0625 26.487513 187.0625Q24.925013 187.0625 24.065638 186.25Q23.190638 185.4375 23.190638 184.15625Q23.190638 182.90625 24.034388 182.125Q24.878138 181.32812 26.425013 181.32812Q26.518763 181.32812 26.706263 181.32812L26.706263 185.96875Q27.737513 185.90625 28.284388 185.39062Q28.815638 184.875 28.815638 184.09375Q28.815638 183.51562 28.518763 183.10938Q28.206263 182.6875 27.550013 182.45312ZM25.846888 185.90625L25.846888 182.4375Q25.050013 182.5 24.659388 182.82812Q24.050013 183.34375 24.050013 184.14062Q24.050013 184.875 24.534388 185.375Q25.018763 185.85938 25.846888 185.90625ZM31.940638 175.73438L28.893763 175.73438Q29.237513 175.98438 29.471888 176.4375Q29.690638 176.875 29.690638 177.375Q29.690638 178.48438 28.815638 179.28125Q27.925013 180.07812 26.378138 180.07812Q25.440638 180.07812 24.706263 179.75Q23.956263 179.42188 23.581263 178.8125Q23.190638 178.1875 23.190638 177.45312Q23.190638 176.29688 24.159388 175.64062L23.331263 175.64062L23.331263 174.6875L31.940638 174.6875L31.940638 175.73438ZM26.425013 179.0Q27.628138 179.0 28.221888 178.5Q28.815638 177.98438 28.815638 177.28125Q28.815638 176.60938 28.253138 176.125Q27.675013 175.64062 26.518763 175.64062Q25.268763 175.64062 24.643763 176.15625Q24.018763 176.65625 24.018763 177.35938Q24.018763 178.03125 24.612513 178.51562Q25.190638 179.0 26.425013 179.0ZM29.550013 168.625L28.628138 168.625Q29.690638 169.35938 29.690638 170.60938Q29.690638 171.15625 29.487513 171.64062Q29.268763 172.10938 28.956263 172.34375Q28.628138 172.57812 28.159388 172.67188Q27.862513 172.73438 27.175013 172.73438L23.331263 172.73438L23.331263 171.67188L26.784388 171.67188Q27.596888 171.67188 27.893763 171.60938Q28.300013 171.51562 28.550013 171.20312Q28.784388 170.875 28.784388 170.39062Q28.784388 169.92188 28.550013 169.51562Q28.300013 169.09375 27.878138 168.92188Q27.456263 168.73438 26.659388 168.73438L23.331263 168.73438L23.331263 167.6875L29.550013 167.6875L29.550013 168.625ZM27.550013 161.45312L27.675013 160.35938Q28.628138 160.60938 29.159388 161.3125Q29.690638 162.01562 29.690638 163.09375Q29.690638 164.45312 28.846888 165.26562Q28.003138 166.0625 26.487513 166.0625Q24.925013 166.0625 24.065638 165.25Q23.190638 164.4375 23.190638 163.15625Q23.190638 161.90625 24.034388 161.125Q24.878138 160.32812 26.425013 160.32812Q26.518763 160.32812 26.706263 160.32812L26.706263 164.96875Q27.737513 164.90625 28.284388 164.39062Q28.815638 163.875 28.815638 163.09375Q28.815638 162.51562 28.518763 162.10938Q28.206263 161.6875 27.550013 161.45312ZM25.846888 164.90625L25.846888 161.4375Q25.050013 161.5 24.659388 161.82812Q24.050013 162.34375 24.050013 163.14062Q24.050013 163.875 24.534388 164.375Q25.018763 164.85938 25.846888 164.90625ZM29.550013 158.70312L23.331263 158.70312L23.331263 157.76562L24.206263 157.76562Q23.190638 157.07812 23.190638 155.78125Q23.190638 155.21875 23.393763 154.75Q23.596888 154.26562 23.925013 154.03125Q24.253138 153.79688 24.690638 153.70312Q24.987513 153.65625 25.721888 153.65625L29.550013 153.65625L29.550013 154.70312L25.768763 154.70312Q25.112513 154.70312 24.800013 154.82812Q24.487513 154.95312 24.300013 155.26562Q24.096888 155.57812 24.096888 156.0Q24.096888 156.67188 24.534388 157.17188Q24.956263 157.65625 26.143763 157.65625L29.550013 157.65625L29.550013 158.70312ZM27.268763 147.64062L27.409388 146.60938Q28.471888 146.78125 29.081263 147.48438Q29.690638 148.1875 29.690638 149.20312Q29.690638 150.48438 28.862513 151.26562Q28.018763 152.03125 26.456263 152.03125Q25.456263 152.03125 24.706263 151.70312Q23.940638 151.35938 23.565638 150.6875Q23.190638 150.0 23.190638 149.1875Q23.190638 148.1875 23.706263 147.54688Q24.206263 146.89062 25.159388 146.70312L25.315638 147.73438Q24.690638 147.875 24.378138 148.25Q24.050013 148.625 24.050013 149.15625Q24.050013 149.95312 24.628138 150.45312Q25.190638 150.95312 26.425013 150.95312Q27.690638 150.95312 28.253138 150.46875Q28.815638 149.98438 28.815638 149.21875Q28.815638 148.59375 28.440638 148.1875Q28.065638 147.76562 27.268763 147.64062ZM31.940638 145.75L30.956263 145.875Q31.050013 145.53125 31.050013 145.26562Q31.050013 144.92188 30.925013 144.71875Q30.815638 144.5 30.612513 144.35938Q30.440638 144.26562 29.815638 144.03125Q29.737513 144.01562 29.565638 143.9375L23.331263 146.3125L23.331263 145.17188L26.925013 143.875Q27.612513 143.625 28.378138 143.42188Q27.643763 143.23438 26.956263 142.98438L23.331263 141.65625L23.331263 140.60938L29.659388 142.96875Q30.675013 143.35938 31.065638 143.5625Q31.596888 143.84375 31.831263 144.21875Q32.08126 144.57812 32.08126 145.07812Q32.08126 145.375 31.940638 145.75Z" fill-rule="nonzero"></path><path fill="#000000" d="M65.05 300.21564Q65.05 298.6844 65.3625 297.7625Q65.675 296.825 66.28438 296.325Q66.90938 295.825 67.84688 295.825Q68.53438 295.825 69.05 296.10626Q69.58125 296.3875 69.925 296.91876Q70.26875 297.4344 70.45625 298.1844Q70.64375 298.9344 70.64375 300.21564Q70.64375 301.73126 70.33125 302.65314Q70.03438 303.575 69.40938 304.09064Q68.8 304.59064 67.84688 304.59064Q66.6125 304.59064 65.89375 303.7Q65.05 302.6375 65.05 300.21564ZM66.12813 300.21564Q66.12813 302.325 66.62813 303.02814Q67.12813 303.73126 67.84688 303.73126Q68.58125 303.73126 69.06563 303.02814Q69.56563 302.325 69.56563 300.21564Q69.56563 298.09064 69.06563 297.40314Q68.58125 296.7 67.83125 296.7Q67.1125 296.7 66.675 297.3094Q66.12813 298.09064 66.12813 300.21564Z" fill-rule="nonzero"></path><path fill="#000000" d="M63.596874 272.88992L63.596874 273.90555L57.909374 273.90555Q57.909374 273.53055 58.034374 273.17117Q58.253124 272.59305 58.721874 272.03055Q59.20625 271.46805 60.1125 270.73367Q61.51875 269.57742 62.003124 268.90555Q62.503124 268.23367 62.503124 267.63992Q62.503124 267.01492 62.05 266.59305Q61.596874 266.15555 60.878124 266.15555Q60.1125 266.15555 59.659374 266.60867Q59.20625 267.0618 59.190624 267.8743L58.1125 267.76492Q58.221874 266.54617 58.940624 265.92117Q59.675 265.28055 60.909374 265.28055Q62.14375 265.28055 62.8625 265.96805Q63.58125 266.65555 63.58125 267.67117Q63.58125 268.1868 63.3625 268.6868Q63.159374 269.17117 62.659374 269.73367Q62.175 270.28055 61.05 271.23367Q60.096874 272.03055 59.815624 272.32742Q59.55 272.60867 59.378124 272.88992L63.596874 272.88992ZM65.05 269.67117Q65.05 268.13992 65.3625 267.21805Q65.675 266.28055 66.28438 265.78055Q66.90938 265.28055 67.84688 265.28055Q68.53438 265.28055 69.05 265.5618Q69.58125 265.84305 69.925 266.3743Q70.26875 266.88992 70.45625 267.63992Q70.64375 268.38992 70.64375 269.67117Q70.64375 271.1868 70.33125 272.10867Q70.03438 273.03055 69.40938 273.54617Q68.8 274.04617 67.84688 274.04617Q66.6125 274.04617 65.89375 273.15555Q65.05 272.09305 65.05 269.67117ZM66.12813 269.67117Q66.12813 271.78055 66.62813 272.48367Q67.12813 273.1868 67.84688 273.1868Q68.58125 273.1868 69.06563 272.48367Q69.56563 271.78055 69.56563 269.67117Q69.56563 267.54617 69.06563 266.85867Q68.58125 266.15555 67.83125 266.15555Q67.1125 266.15555 66.675 266.76492Q66.12813 267.54617 66.12813 269.67117Z" fill-rule="nonzero"></path><path fill="#000000" d="M61.425 243.36111L61.425 241.29861L57.70625 241.29861L57.70625 240.32986L61.628124 234.76736L62.4875 234.76736L62.4875 240.32986L63.64375 240.32986L63.64375 241.29861L62.4875 241.29861L62.4875 243.36111L61.425 243.36111ZM61.425 240.32986L61.425 236.47049L58.7375 240.32986L61.425 240.32986ZM65.05 239.12674Q65.05 237.59549 65.3625 236.67361Q65.675 235.73611 66.28438 235.23611Q66.90938 234.73611 67.84688 234.73611Q68.53438 234.73611 69.05 235.01736Q69.58125 235.29861 69.925 235.82986Q70.26875 236.34549 70.45625 237.09549Q70.64375 237.84549 70.64375 239.12674Q70.64375 240.64236 70.33125 241.56424Q70.03438 242.48611 69.40938 243.00174Q68.8 243.50174 67.84688 243.50174Q66.6125 243.50174 65.89375 242.61111Q65.05 241.54861 65.05 239.12674ZM66.12813 239.12674Q66.12813 241.23611 66.62813 241.93924Q67.12813 242.64236 67.84688 242.64236Q68.58125 242.64236 69.06563 241.93924Q69.56563 241.23611 69.56563 239.12674Q69.56563 237.00174 69.06563 236.31424Q68.58125 235.61111 67.83125 235.61111Q67.1125 235.61111 66.675 236.22049Q66.12813 237.00174 66.12813 239.12674Z" fill-rule="nonzero"></path><path fill="#000000" d="M63.51875 206.33229L62.471874 206.41042Q62.33125 205.78542 62.08125 205.50417Q61.64375 205.05104 61.01875 205.05104Q60.51875 205.05104 60.128124 205.33229Q59.64375 205.70729 59.346874 206.41042Q59.065624 207.09792 59.05 208.37917Q59.425 207.80104 59.971874 207.51979Q60.534374 207.23854 61.14375 207.23854Q62.190624 207.23854 62.925 208.01979Q63.675 208.80104 63.675 210.01979Q63.675 210.83229 63.315624 211.53542Q62.971874 212.22292 62.3625 212.59792Q61.753124 212.95729 60.9875 212.95729Q59.659374 212.95729 58.83125 211.98854Q58.003124 211.01979 58.003124 208.80104Q58.003124 206.30104 58.925 205.17604Q59.721874 204.19167 61.08125 204.19167Q62.096874 204.19167 62.7375 204.76979Q63.39375 205.33229 63.51875 206.33229ZM59.221874 210.03542Q59.221874 210.58229 59.440624 211.08229Q59.675 211.56667 60.08125 211.83229Q60.503124 212.09792 60.971874 212.09792Q61.628124 212.09792 62.1125 211.56667Q62.596874 211.01979 62.596874 210.09792Q62.596874 209.20729 62.1125 208.69167Q61.64375 208.17604 60.925 208.17604Q60.20625 208.17604 59.70625 208.69167Q59.221874 209.20729 59.221874 210.03542ZM65.05 208.58229Q65.05 207.05104 65.3625 206.12917Q65.675 205.19167 66.28438 204.69167Q66.90938 204.19167 67.84688 204.19167Q68.53438 204.19167 69.05 204.47292Q69.58125 204.75417 69.925 205.28542Q70.26875 205.80104 70.45625 206.55104Q70.64375 207.30104 70.64375 208.58229Q70.64375 210.09792 70.33125 211.01979Q70.03438 211.94167 69.40938 212.45729Q68.8 212.95729 67.84688 212.95729Q66.6125 212.95729 65.89375 212.06667Q65.05 211.00417 65.05 208.58229ZM66.12813 208.58229Q66.12813 210.69167 66.62813 211.39479Q67.12813 212.09792 67.84688 212.09792Q68.58125 212.09792 69.06563 211.39479Q69.56563 210.69167 69.56563 208.58229Q69.56563 206.45729 69.06563 205.76979Q68.58125 205.06667 67.83125 205.06667Q67.1125 205.06667 66.675 205.67604Q66.12813 206.45729 66.12813 208.58229Z" fill-rule="nonzero"></path><path fill="#000000" d="M59.675 177.61597Q59.01875 177.36597 58.690624 176.92847Q58.378124 176.47534 58.378124 175.86597Q58.378124 174.92847 59.05 174.28784Q59.7375 173.64722 60.846874 173.64722Q61.971874 173.64722 62.659374 174.30347Q63.346874 174.95972 63.346874 175.89722Q63.346874 176.49097 63.034374 176.92847Q62.721874 177.36597 62.08125 177.61597Q62.878124 177.86597 63.284374 178.44409Q63.690624 179.02222 63.690624 179.81909Q63.690624 180.91284 62.909374 181.66284Q62.14375 182.41284 60.8625 182.41284Q59.596874 182.41284 58.815624 181.66284Q58.034374 180.91284 58.034374 179.78784Q58.034374 178.94409 58.45625 178.38159Q58.89375 177.81909 59.675 177.61597ZM59.45625 175.81909Q59.45625 176.42847 59.846874 176.81909Q60.253124 177.20972 60.878124 177.20972Q61.4875 177.20972 61.878124 176.83472Q62.26875 176.44409 62.26875 175.88159Q62.26875 175.30347 61.8625 174.91284Q61.45625 174.50659 60.8625 174.50659Q60.253124 174.50659 59.846874 174.89722Q59.45625 175.28784 59.45625 175.81909ZM59.128124 179.78784Q59.128124 180.24097 59.33125 180.66284Q59.55 181.08472 59.971874 181.31909Q60.39375 181.55347 60.878124 181.55347Q61.628124 181.55347 62.1125 181.06909Q62.6125 180.58472 62.6125 179.83472Q62.6125 179.06909 62.1125 178.56909Q61.6125 178.06909 60.846874 178.06909Q60.096874 178.06909 59.6125 178.56909Q59.128124 179.05347 59.128124 179.78784ZM65.05 178.03784Q65.05 176.50659 65.3625 175.58472Q65.675 174.64722 66.28438 174.14722Q66.90938 173.64722 67.84688 173.64722Q68.53438 173.64722 69.05 173.92847Q69.58125 174.20972 69.925 174.74097Q70.26875 175.25659 70.45625 176.00659Q70.64375 176.75659 70.64375 178.03784Q70.64375 179.55347 70.33125 180.47534Q70.03438 181.39722 69.40938 181.91284Q68.8 182.41284 67.84688 182.41284Q66.6125 182.41284 65.89375 181.52222Q65.05 180.45972 65.05 178.03784ZM66.12813 178.03784Q66.12813 180.14722 66.62813 180.85034Q67.12813 181.55347 67.84688 181.55347Q68.58125 181.55347 69.06563 180.85034Q69.56563 180.14722 69.56563 178.03784Q69.56563 175.91284 69.06563 175.22534Q68.58125 174.52222 67.83125 174.52222Q67.1125 174.52222 66.675 175.13159Q66.12813 175.91284 66.12813 178.03784Z" fill-rule="nonzero"></path><path fill="#000000" d="M55.01875 151.72778L53.971874 151.72778L53.971874 145.00903Q53.58125 145.36841 52.95625 145.74341Q52.346874 146.10278 51.8625 146.27466L51.8625 145.25903Q52.7375 144.83716 53.39375 144.25903Q54.065624 143.66528 54.346874 143.10278L55.01875 143.10278L55.01875 151.72778ZM58.05 147.49341Q58.05 145.96216 58.3625 145.04028Q58.675 144.10278 59.284374 143.60278Q59.909374 143.10278 60.846874 143.10278Q61.534374 143.10278 62.05 143.38403Q62.58125 143.66528 62.925 144.19653Q63.26875 144.71216 63.45625 145.46216Q63.64375 146.21216 63.64375 147.49341Q63.64375 149.00903 63.33125 149.93091Q63.034374 150.85278 62.409374 151.36841Q61.8 151.86841 60.846874 151.86841Q59.6125 151.86841 58.89375 150.97778Q58.05 149.91528 58.05 147.49341ZM59.128124 147.49341Q59.128124 149.60278 59.628124 150.30591Q60.128124 151.00903 60.846874 151.00903Q61.58125 151.00903 62.065624 150.30591Q62.565624 149.60278 62.565624 147.49341Q62.565624 145.36841 62.065624 144.68091Q61.58125 143.97778 60.83125 143.97778Q60.1125 143.97778 59.675 144.58716Q59.128124 145.36841 59.128124 147.49341ZM65.05 147.49341Q65.05 145.96216 65.3625 145.04028Q65.675 144.10278 66.28438 143.60278Q66.90938 143.10278 67.84688 143.10278Q68.53438 143.10278 69.05 143.38403Q69.58125 143.66528 69.925 144.19653Q70.26875 144.71216 70.45625 145.46216Q70.64375 146.21216 70.64375 147.49341Q70.64375 149.00903 70.33125 149.93091Q70.03438 150.85278 69.40938 151.36841Q68.8 151.86841 67.84688 151.86841Q66.6125 151.86841 65.89375 150.97778Q65.05 149.91528 65.05 147.49341ZM66.12813 147.49341Q66.12813 149.60278 66.62813 150.30591Q67.12813 151.00903 67.84688 151.00903Q68.58125 151.00903 69.06563 150.30591Q69.56563 149.60278 69.56563 147.49341Q69.56563 145.36841 69.06563 144.68091Q68.58125 143.97778 67.83125 143.97778Q67.1125 143.97778 66.675 144.58716Q66.12813 145.36841 66.12813 147.49341Z" fill-rule="nonzero"></path><path fill="#000000" d="M55.01875 121.183334L53.971874 121.183334L53.971874 114.464584Q53.58125 114.82396 52.95625 115.19896Q52.346874 115.558334 51.8625 115.73021L51.8625 114.714584Q52.7375 114.29271 53.39375 113.714584Q54.065624 113.120834 54.346874 112.558334L55.01875 112.558334L55.01875 121.183334ZM63.596874 120.16771L63.596874 121.183334L57.909374 121.183334Q57.909374 120.808334 58.034374 120.44896Q58.253124 119.870834 58.721874 119.308334Q59.20625 118.745834 60.1125 118.01146Q61.51875 116.85521 62.003124 116.183334Q62.503124 115.51146 62.503124 114.91771Q62.503124 114.29271 62.05 113.870834Q61.596874 113.433334 60.878124 113.433334Q60.1125 113.433334 59.659374 113.88646Q59.20625 114.339584 59.190624 115.152084L58.1125 115.04271Q58.221874 113.82396 58.940624 113.19896Q59.675 112.558334 60.909374 112.558334Q62.14375 112.558334 62.8625 113.245834Q63.58125 113.933334 63.58125 114.94896Q63.58125 115.464584 63.3625 115.964584Q63.159374 116.44896 62.659374 117.01146Q62.175 117.558334 61.05 118.51146Q60.096874 119.308334 59.815624 119.60521Q59.55 119.88646 59.378124 120.16771L63.596874 120.16771ZM65.05 116.94896Q65.05 115.41771 65.3625 114.495834Q65.675 113.558334 66.28438 113.058334Q66.90938 112.558334 67.84688 112.558334Q68.53438 112.558334 69.05 112.839584Q69.58125 113.120834 69.925 113.652084Q70.26875 114.16771 70.45625 114.91771Q70.64375 115.66771 70.64375 116.94896Q70.64375 118.464584 70.33125 119.38646Q70.03438 120.308334 69.40938 120.82396Q68.8 121.32396 67.84688 121.32396Q66.6125 121.32396 65.89375 120.433334Q65.05 119.370834 65.05 116.94896ZM66.12813 116.94896Q66.12813 119.058334 66.62813 119.76146Q67.12813 120.464584 67.84688 120.464584Q68.58125 120.464584 69.06563 119.76146Q69.56563 119.058334 69.56563 116.94896Q69.56563 114.82396 69.06563 114.13646Q68.58125 113.433334 67.83125 113.433334Q67.1125 113.433334 66.675 114.04271Q66.12813 114.82396 66.12813 116.94896Z" fill-rule="nonzero"></path><path fill="#000000" d="M55.01875 90.638885L53.971874 90.638885L53.971874 83.920135Q53.58125 84.27951 52.95625 84.65451Q52.346874 85.013885 51.8625 85.18576L51.8625 84.170135Q52.7375 83.74826 53.39375 83.170135Q54.065624 82.576385 54.346874 82.013885L55.01875 82.013885L55.01875 90.638885ZM61.425 90.638885L61.425 88.576385L57.70625 88.576385L57.70625 87.607635L61.628124 82.045135L62.4875 82.045135L62.4875 87.607635L63.64375 87.607635L63.64375 88.576385L62.4875 88.576385L62.4875 90.638885L61.425 90.638885ZM61.425 87.607635L61.425 83.74826L58.7375 87.607635L61.425 87.607635ZM65.05 86.40451Q65.05 84.87326 65.3625 83.951385Q65.675 83.013885 66.28438 82.513885Q66.90938 82.013885 67.84688 82.013885Q68.53438 82.013885 69.05 82.295135Q69.58125 82.576385 69.925 83.107635Q70.26875 83.62326 70.45625 84.37326Q70.64375 85.12326 70.64375 86.40451Q70.64375 87.920135 70.33125 88.84201Q70.03438 89.763885 69.40938 90.27951Q68.8 90.77951 67.84688 90.77951Q66.6125 90.77951 65.89375 89.888885Q65.05 88.826385 65.05 86.40451ZM66.12813 86.40451Q66.12813 88.513885 66.62813 89.21701Q67.12813 89.920135 67.84688 89.920135Q68.58125 89.920135 69.06563 89.21701Q69.56563 88.513885 69.56563 86.40451Q69.56563 84.27951 69.06563 83.59201Q68.58125 82.888885 67.83125 82.888885Q67.1125 82.888885 66.675 83.49826Q66.12813 84.27951 66.12813 86.40451Z" fill-rule="nonzero"></path><path fill="#000000" d="M55.01875 60.094444L53.971874 60.094444L53.971874 53.375694Q53.58125 53.73507 52.95625 54.11007Q52.346874 54.469444 51.8625 54.64132L51.8625 53.625694Q52.7375 53.20382 53.39375 52.625694Q54.065624 52.031944 54.346874 51.469444L55.01875 51.469444L55.01875 60.094444ZM63.51875 53.61007L62.471874 53.688194Q62.33125 53.063194 62.08125 52.781944Q61.64375 52.32882 61.01875 52.32882Q60.51875 52.32882 60.128124 52.61007Q59.64375 52.98507 59.346874 53.688194Q59.065624 54.375694 59.05 55.656944Q59.425 55.07882 59.971874 54.79757Q60.534374 54.51632 61.14375 54.51632Q62.190624 54.51632 62.925 55.29757Q63.675 56.07882 63.675 57.29757Q63.675 58.11007 63.315624 58.813194Q62.971874 59.500694 62.3625 59.875694Q61.753124 60.23507 60.9875 60.23507Q59.659374 60.23507 58.83125 59.26632Q58.003124 58.29757 58.003124 56.07882Q58.003124 53.57882 58.925 52.45382Q59.721874 51.469444 61.08125 51.469444Q62.096874 51.469444 62.7375 52.04757Q63.39375 52.61007 63.51875 53.61007ZM59.221874 57.313194Q59.221874 57.86007 59.440624 58.36007Q59.675 58.844444 60.08125 59.11007Q60.503124 59.375694 60.971874 59.375694Q61.628124 59.375694 62.1125 58.844444Q62.596874 58.29757 62.596874 57.375694Q62.596874 56.48507 62.1125 55.969444Q61.64375 55.45382 60.925 55.45382Q60.20625 55.45382 59.70625 55.969444Q59.221874 56.48507 59.221874 57.313194ZM65.05 55.86007Q65.05 54.32882 65.3625 53.406944Q65.675 52.469444 66.28438 51.969444Q66.90938 51.469444 67.84688 51.469444Q68.53438 51.469444 69.05 51.750694Q69.58125 52.031944 69.925 52.563194Q70.26875 53.07882 70.45625 53.82882Q70.64375 54.57882 70.64375 55.86007Q70.64375 57.375694 70.33125 58.29757Q70.03438 59.219444 69.40938 59.73507Q68.8 60.23507 67.84688 60.23507Q66.6125 60.23507 65.89375 59.344444Q65.05 58.281944 65.05 55.86007ZM66.12813 55.86007Q66.12813 57.969444 66.62813 58.67257Q67.12813 59.375694 67.84688 59.375694Q68.58125 59.375694 69.06563 58.67257Q69.56563 57.969444 69.56563 55.86007Q69.56563 53.73507 69.06563 53.04757Q68.58125 52.344444 67.83125 52.344444Q67.1125 52.344444 66.675 52.95382Q66.12813 53.73507 66.12813 55.86007Z" fill-rule="nonzero"></path><path fill="#000000" d="M55.01875 29.55L53.971874 29.55L53.971874 22.83125Q53.58125 23.190624 52.95625 23.565624Q52.346874 23.925 51.8625 24.096874L51.8625 23.08125Q52.7375 22.659374 53.39375 22.08125Q54.065624 21.4875 54.346874 20.925L55.01875 20.925L55.01875 29.55ZM59.675 24.89375Q59.01875 24.64375 58.690624 24.20625Q58.378124 23.753124 58.378124 23.14375Q58.378124 22.20625 59.05 21.565624Q59.7375 20.925 60.846874 20.925Q61.971874 20.925 62.659374 21.58125Q63.346874 22.2375 63.346874 23.175Q63.346874 23.76875 63.034374 24.20625Q62.721874 24.64375 62.08125 24.89375Q62.878124 25.14375 63.284374 25.721874Q63.690624 26.3 63.690624 27.096874Q63.690624 28.190624 62.909374 28.940624Q62.14375 29.690624 60.8625 29.690624Q59.596874 29.690624 58.815624 28.940624Q58.034374 28.190624 58.034374 27.065624Q58.034374 26.221874 58.45625 25.659374Q58.89375 25.096874 59.675 24.89375ZM59.45625 23.096874Q59.45625 23.70625 59.846874 24.096874Q60.253124 24.4875 60.878124 24.4875Q61.4875 24.4875 61.878124 24.1125Q62.26875 23.721874 62.26875 23.159374Q62.26875 22.58125 61.8625 22.190624Q61.45625 21.784374 60.8625 21.784374Q60.253124 21.784374 59.846874 22.175Q59.45625 22.565624 59.45625 23.096874ZM59.128124 27.065624Q59.128124 27.51875 59.33125 27.940624Q59.55 28.3625 59.971874 28.596874Q60.39375 28.83125 60.878124 28.83125Q61.628124 28.83125 62.1125 28.346874Q62.6125 27.8625 62.6125 27.1125Q62.6125 26.346874 62.1125 25.846874Q61.6125 25.346874 60.846874 25.346874Q60.096874 25.346874 59.6125 25.846874Q59.128124 26.33125 59.128124 27.065624ZM65.05 25.315624Q65.05 23.784374 65.3625 22.8625Q65.675 21.925 66.28438 21.425Q66.90938 20.925 67.84688 20.925Q68.53438 20.925 69.05 21.20625Q69.58125 21.4875 69.925 22.01875Q70.26875 22.534374 70.45625 23.284374Q70.64375 24.034374 70.64375 25.315624Q70.64375 26.83125 70.33125 27.753124Q70.03438 28.675 69.40938 29.190624Q68.8 29.690624 67.84688 29.690624Q66.6125 29.690624 65.89375 28.8Q65.05 27.7375 65.05 25.315624ZM66.12813 25.315624Q66.12813 27.425 66.62813 28.128124Q67.12813 28.83125 67.84688 28.83125Q68.58125 28.83125 69.06563 28.128124Q69.56563 27.425 69.56563 25.315624Q69.56563 23.190624 69.06563 22.503124Q68.58125 21.8 67.83125 21.8Q67.1125 21.8 66.675 22.409374Q66.12813 23.190624 66.12813 25.315624Z" fill-rule="nonzero"></path><path fill="#ffffff" d="M557.95 300.21564Q557.95 298.6844 558.2625 297.7625Q558.575 296.825 559.1844 296.325Q559.8094 295.825 560.7469 295.825Q561.4344 295.825 561.95 296.10626Q562.48126 296.3875 562.825 296.91876Q563.16876 297.4344 563.35626 298.1844Q563.54376 298.9344 563.54376 300.21564Q563.54376 301.73126 563.23126 302.65314Q562.9344 303.575 562.3094 304.09064Q561.7 304.59064 560.7469 304.59064Q559.5125 304.59064 558.79376 303.7Q557.95 302.6375 557.95 300.21564ZM559.02814 300.21564Q559.02814 302.325 559.52814 303.02814Q560.02814 303.73126 560.7469 303.73126Q561.48126 303.73126 561.96564 303.02814Q562.46564 302.325 562.46564 300.21564Q562.46564 298.09064 561.96564 297.40314Q561.48126 296.7 560.73126 296.7Q560.0125 296.7 559.575 297.3094Q559.02814 298.09064 559.02814 300.21564ZM565.54376 304.45L565.54376 303.2469L566.7469 303.2469L566.7469 304.45L565.54376 304.45ZM567.95 300.21564Q567.95 298.6844 568.2625 297.7625Q568.575 296.825 569.1844 296.325Q569.8094 295.825 570.7469 295.825Q571.4344 295.825 571.95 296.10626Q572.48126 296.3875 572.825 296.91876Q573.16876 297.4344 573.35626 298.1844Q573.54376 298.9344 573.54376 300.21564Q573.54376 301.73126 573.23126 302.65314Q572.9344 303.575 572.3094 304.09064Q571.7 304.59064 570.7469 304.59064Q569.5125 304.59064 568.79376 303.7Q567.95 302.6375 567.95 300.21564ZM569.02814 300.21564Q569.02814 302.325 569.52814 303.02814Q570.02814 303.73126 570.7469 303.73126Q571.48126 303.73126 571.96564 303.02814Q572.46564 302.325 572.46564 300.21564Q572.46564 298.09064 571.96564 297.40314Q571.48126 296.7 570.73126 296.7Q570.0125 296.7 569.575 297.3094Q569.02814 298.09064 569.02814 300.21564ZM574.95 300.21564Q574.95 298.6844 575.2625 297.7625Q575.575 296.825 576.1844 296.325Q576.8094 295.825 577.7469 295.825Q578.4344 295.825 578.95 296.10626Q579.48126 296.3875 579.825 296.91876Q580.16876 297.4344 580.35626 298.1844Q580.54376 298.9344 580.54376 300.21564Q580.54376 301.73126 580.23126 302.65314Q579.9344 303.575 579.3094 304.09064Q578.7 304.59064 577.7469 304.59064Q576.5125 304.59064 575.79376 303.7Q574.95 302.6375 574.95 300.21564ZM576.02814 300.21564Q576.02814 302.325 576.52814 303.02814Q577.02814 303.73126 577.7469 303.73126Q578.48126 303.73126 578.96564 303.02814Q579.46564 302.325 579.46564 300.21564Q579.46564 298.09064 578.96564 297.40314Q578.48126 296.7 577.73126 296.7Q577.0125 296.7 576.575 297.3094Q576.02814 298.09064 576.02814 300.21564Z" fill-rule="nonzero"></path><path fill="#ffffff" d="M557.95 231.49063Q557.95 229.95938 558.2625 229.0375Q558.575 228.1 559.1844 227.6Q559.8094 227.1 560.7469 227.1Q561.4344 227.1 561.95 227.38126Q562.48126 227.6625 562.825 228.19376Q563.16876 228.70938 563.35626 229.45938Q563.54376 230.20938 563.54376 231.49063Q563.54376 233.00626 563.23126 233.92813Q562.9344 234.85 562.3094 235.36563Q561.7 235.86563 560.7469 235.86563Q559.5125 235.86563 558.79376 234.975Q557.95 233.9125 557.95 231.49063ZM559.02814 231.49063Q559.02814 233.6 559.52814 234.30313Q560.02814 235.00626 560.7469 235.00626Q561.48126 235.00626 561.96564 234.30313Q562.46564 233.6 562.46564 231.49063Q562.46564 229.36563 561.96564 228.67813Q561.48126 227.975 560.73126 227.975Q560.0125 227.975 559.575 228.58438Q559.02814 229.36563 559.02814 231.49063ZM565.54376 235.725L565.54376 234.52188L566.7469 234.52188L566.7469 235.725L565.54376 235.725ZM573.4969 234.70938L573.4969 235.725L567.8094 235.725Q567.8094 235.35 567.9344 234.99063Q568.15314 234.4125 568.6219 233.85Q569.10626 233.2875 570.0125 232.55313Q571.41876 231.39688 571.90314 230.725Q572.40314 230.05313 572.40314 229.45938Q572.40314 228.83438 571.95 228.4125Q571.4969 227.975 570.77814 227.975Q570.0125 227.975 569.5594 228.42813Q569.10626 228.88126 569.09064 229.69376L568.0125 229.58438Q568.1219 228.36563 568.84064 227.74063Q569.575 227.1 570.8094 227.1Q572.04376 227.1 572.7625 227.7875Q573.48126 228.475 573.48126 229.49063Q573.48126 230.00626 573.2625 230.50626Q573.0594 230.99063 572.5594 231.55313Q572.075 232.1 570.95 233.05313Q569.9969 233.85 569.71564 234.14688Q569.45 234.42813 569.27814 234.70938L573.4969 234.70938ZM574.95 233.475L576.0594 233.38126Q576.1844 234.19376 576.6219 234.6Q577.075 235.00626 577.71564 235.00626Q578.46564 235.00626 578.9969 234.42813Q579.52814 233.85 579.52814 232.9125Q579.52814 232.00626 579.0125 231.49063Q578.5125 230.95938 577.6844 230.95938Q577.1844 230.95938 576.7625 231.19376Q576.35626 231.42813 576.1219 231.7875L575.1375 231.6625L575.96564 227.25626L580.2469 227.25626L580.2469 228.25626L576.8094 228.25626L576.35626 230.56876Q577.1219 230.02188 577.96564 230.02188Q579.09064 230.02188 579.85626 230.80313Q580.6375 231.58438 580.6375 232.81876Q580.6375 233.975 579.96564 234.83438Q579.1375 235.86563 577.71564 235.86563Q576.54376 235.86563 575.79376 235.20938Q575.0594 234.55313 574.95 233.475Z" fill-rule="nonzero"></path><path fill="#ffffff" d="M557.95 162.76562Q557.95 161.23438 558.2625 160.3125Q558.575 159.375 559.1844 158.875Q559.8094 158.375 560.7469 158.375Q561.4344 158.375 561.95 158.65625Q562.48126 158.9375 562.825 159.46875Q563.16876 159.98438 563.35626 160.73438Q563.54376 161.48438 563.54376 162.76562Q563.54376 164.28125 563.23126 165.20312Q562.9344 166.125 562.3094 166.64062Q561.7 167.14062 560.7469 167.14062Q559.5125 167.14062 558.79376 166.25Q557.95 165.1875 557.95 162.76562ZM559.02814 162.76562Q559.02814 164.875 559.52814 165.57812Q560.02814 166.28125 560.7469 166.28125Q561.48126 166.28125 561.96564 165.57812Q562.46564 164.875 562.46564 162.76562Q562.46564 160.64062 561.96564 159.95312Q561.48126 159.25 560.73126 159.25Q560.0125 159.25 559.575 159.85938Q559.02814 160.64062 559.02814 162.76562ZM565.54376 167.0L565.54376 165.79688L566.7469 165.79688L566.7469 167.0L565.54376 167.0ZM567.95 164.75L569.0594 164.65625Q569.1844 165.46875 569.6219 165.875Q570.075 166.28125 570.71564 166.28125Q571.46564 166.28125 571.9969 165.70312Q572.52814 165.125 572.52814 164.1875Q572.52814 163.28125 572.0125 162.76562Q571.5125 162.23438 570.6844 162.23438Q570.1844 162.23438 569.7625 162.46875Q569.35626 162.70312 569.1219 163.0625L568.1375 162.9375L568.96564 158.53125L573.2469 158.53125L573.2469 159.53125L569.8094 159.53125L569.35626 161.84375Q570.1219 161.29688 570.96564 161.29688Q572.09064 161.29688 572.85626 162.07812Q573.6375 162.85938 573.6375 164.09375Q573.6375 165.25 572.96564 166.10938Q572.1375 167.14062 570.71564 167.14062Q569.54376 167.14062 568.79376 166.48438Q568.0594 165.82812 567.95 164.75ZM574.95 162.76562Q574.95 161.23438 575.2625 160.3125Q575.575 159.375 576.1844 158.875Q576.8094 158.375 577.7469 158.375Q578.4344 158.375 578.95 158.65625Q579.48126 158.9375 579.825 159.46875Q580.16876 159.98438 580.35626 160.73438Q580.54376 161.48438 580.54376 162.76562Q580.54376 164.28125 580.23126 165.20312Q579.9344 166.125 579.3094 166.64062Q578.7 167.14062 577.7469 167.14062Q576.5125 167.14062 575.79376 166.25Q574.95 165.1875 574.95 162.76562ZM576.02814 162.76562Q576.02814 164.875 576.52814 165.57812Q577.02814 166.28125 577.7469 166.28125Q578.48126 166.28125 578.96564 165.57812Q579.46564 164.875 579.46564 162.76562Q579.46564 160.64062 578.96564 159.95312Q578.48126 159.25 577.73126 159.25Q577.0125 159.25 576.575 159.85938Q576.02814 160.64062 576.02814 162.76562Z" fill-rule="nonzero"></path><path fill="#ffffff" d="M557.95 94.04063Q557.95 92.50938 558.2625 91.5875Q558.575 90.65 559.1844 90.15Q559.8094 89.65 560.7469 89.65Q561.4344 89.65 561.95 89.93125Q562.48126 90.2125 562.825 90.74375Q563.16876 91.25938 563.35626 92.00938Q563.54376 92.75938 563.54376 94.04063Q563.54376 95.55625 563.23126 96.47813Q562.9344 97.4 562.3094 97.91563Q561.7 98.41563 560.7469 98.41563Q559.5125 98.41563 558.79376 97.525Q557.95 96.4625 557.95 94.04063ZM559.02814 94.04063Q559.02814 96.15 559.52814 96.85313Q560.02814 97.55625 560.7469 97.55625Q561.48126 97.55625 561.96564 96.85313Q562.46564 96.15 562.46564 94.04063Q562.46564 91.91563 561.96564 91.22813Q561.48126 90.525 560.73126 90.525Q560.0125 90.525 559.575 91.13438Q559.02814 91.91563 559.02814 94.04063ZM565.54376 98.275L565.54376 97.07188L566.7469 97.07188L566.7469 98.275L565.54376 98.275ZM568.0125 90.80625L568.0125 89.79063L573.575 89.79063L573.575 90.61875Q572.7625 91.49375 571.95 92.94688Q571.15314 94.38438 570.71564 95.91563Q570.3875 96.99375 570.3094 98.275L569.21564 98.275Q569.23126 97.25938 569.60626 95.82188Q569.9969 94.38438 570.7 93.05625Q571.41876 91.72813 572.23126 90.80625L568.0125 90.80625ZM574.95 96.025L576.0594 95.93125Q576.1844 96.74375 576.6219 97.15Q577.075 97.55625 577.71564 97.55625Q578.46564 97.55625 578.9969 96.97813Q579.52814 96.4 579.52814 95.4625Q579.52814 94.55625 579.0125 94.04063Q578.5125 93.50938 577.6844 93.50938Q577.1844 93.50938 576.7625 93.74375Q576.35626 93.97813 576.1219 94.3375L575.1375 94.2125L575.96564 89.80625L580.2469 89.80625L580.2469 90.80625L576.8094 90.80625L576.35626 93.11875Q577.1219 92.57188 577.96564 92.57188Q579.09064 92.57188 579.85626 93.35313Q580.6375 94.13438 580.6375 95.36875Q580.6375 96.525 579.96564 97.38438Q579.1375 98.41563 577.71564 98.41563Q576.54376 98.41563 575.79376 97.75938Q575.0594 97.10313 574.95 96.025Z" fill-rule="nonzero"></path><path fill="#ffffff" d="M561.91876 29.55L560.8719 29.55L560.8719 22.83125Q560.48126 23.190624 559.85626 23.565624Q559.2469 23.925 558.7625 24.096874L558.7625 23.08125Q559.6375 22.659374 560.29376 22.08125Q560.96564 21.4875 561.2469 20.925L561.91876 20.925L561.91876 29.55ZM565.54376 29.55L565.54376 28.346874L566.7469 28.346874L566.7469 29.55L565.54376 29.55ZM567.95 25.315624Q567.95 23.784374 568.2625 22.8625Q568.575 21.925 569.1844 21.425Q569.8094 20.925 570.7469 20.925Q571.4344 20.925 571.95 21.20625Q572.48126 21.4875 572.825 22.01875Q573.16876 22.534374 573.35626 23.284374Q573.54376 24.034374 573.54376 25.315624Q573.54376 26.83125 573.23126 27.753124Q572.9344 28.675 572.3094 29.190624Q571.7 29.690624 570.7469 29.690624Q569.5125 29.690624 568.79376 28.8Q567.95 27.7375 567.95 25.315624ZM569.02814 25.315624Q569.02814 27.425 569.52814 28.128124Q570.02814 28.83125 570.7469 28.83125Q571.48126 28.83125 571.96564 28.128124Q572.46564 27.425 572.46564 25.315624Q572.46564 23.190624 571.96564 22.503124Q571.48126 21.8 570.73126 21.8Q570.0125 21.8 569.575 22.409374Q569.02814 23.190624 569.02814 25.315624ZM574.95 25.315624Q574.95 23.784374 575.2625 22.8625Q575.575 21.925 576.1844 21.425Q576.8094 20.925 577.7469 20.925Q578.4344 20.925 578.95 21.20625Q579.48126 21.4875 579.825 22.01875Q580.16876 22.534374 580.35626 23.284374Q580.54376 24.034374 580.54376 25.315624Q580.54376 26.83125 580.23126 27.753124Q579.9344 28.675 579.3094 29.190624Q578.7 29.690624 577.7469 29.690624Q576.5125 29.690624 575.79376 28.8Q574.95 27.7375 574.95 25.315624ZM576.02814 25.315624Q576.02814 27.425 576.52814 28.128124Q577.02814 28.83125 577.7469 28.83125Q578.48126 28.83125 578.96564 28.128124Q579.46564 27.425 579.46564 25.315624Q579.46564 23.190624 578.96564 22.503124Q578.48126 21.8 577.73126 21.8Q577.0125 21.8 576.575 22.409374Q576.02814 23.190624 576.02814 25.315624Z" fill-rule="nonzero"></path><path fill="#000000" d="M102.73348 315.1844L103.79598 315.04376Q103.96786 315.9344 104.40536 316.34064Q104.84286 316.73126 105.46786 316.73126Q106.21786 316.73126 106.73348 316.21564Q107.24911 315.7 107.24911 314.9344Q107.24911 314.21564 106.76473 313.7469Q106.29598 313.2625 105.56161 313.2625Q105.26473 313.2625 104.81161 313.3875L104.93661 312.45Q105.04598 312.46564 105.10848 312.46564Q105.78036 312.46564 106.31161 312.1219Q106.85848 311.7625 106.85848 311.02814Q106.85848 310.45 106.46786 310.075Q106.07723 309.6844 105.45223 309.6844Q104.84286 309.6844 104.42098 310.075Q104.01473 310.46564 103.90536 311.23126L102.84286 311.04376Q103.03036 309.9969 103.71786 309.41876Q104.40536 308.825 105.42098 308.825Q106.12411 308.825 106.71786 309.1375Q107.31161 309.4344 107.62411 309.95Q107.93661 310.46564 107.93661 311.0594Q107.93661 311.60626 107.63973 312.075Q107.34286 312.52814 106.76473 312.79376Q107.51473 312.96564 107.93661 313.52814Q108.35848 314.075 108.35848 314.91876Q108.35848 316.04376 107.53036 316.825Q106.71786 317.60626 105.46786 317.60626Q104.34286 317.60626 103.59286 316.9344Q102.84286 316.2469 102.73348 315.1844Z" fill-rule="nonzero"></path><path fill="#000000" d="M147.86179 317.45L147.86179 315.3875L144.14304 315.3875L144.14304 314.41876L148.06491 308.85626L148.92429 308.85626L148.92429 314.41876L150.08054 314.41876L150.08054 315.3875L148.92429 315.3875L148.92429 317.45L147.86179 317.45ZM147.86179 314.41876L147.86179 310.5594L145.17429 314.41876L147.86179 314.41876Z" fill-rule="nonzero"></path><path fill="#000000" d="M186.24008 315.2L187.34946 315.10626Q187.47446 315.91876 187.91196 316.325Q188.36508 316.73126 189.0057 316.73126Q189.7557 316.73126 190.28696 316.15314Q190.8182 315.575 190.8182 314.6375Q190.8182 313.73126 190.30258 313.21564Q189.80258 312.6844 188.97446 312.6844Q188.47446 312.6844 188.05258 312.91876Q187.64633 313.15314 187.41196 313.5125L186.42758 313.3875L187.2557 308.98126L191.53696 308.98126L191.53696 309.98126L188.09946 309.98126L187.64633 312.29376Q188.41196 311.7469 189.2557 311.7469Q190.3807 311.7469 191.14633 312.52814Q191.92758 313.3094 191.92758 314.54376Q191.92758 315.7 191.2557 316.5594Q190.42758 317.59064 189.0057 317.59064Q187.83383 317.59064 187.08383 316.9344Q186.34946 316.27814 186.24008 315.2Z" fill-rule="nonzero"></path><path fill="#000000" d="M233.46214 310.96564L232.41527 311.04376Q232.27464 310.41876 232.02464 310.1375Q231.58714 309.6844 230.96214 309.6844Q230.46214 309.6844 230.07152 309.96564Q229.58714 310.34064 229.29027 311.04376Q229.00902 311.73126 228.9934 313.0125Q229.3684 312.4344 229.91527 312.15314Q230.47777 311.8719 231.08714 311.8719Q232.13402 311.8719 232.8684 312.65314Q233.6184 313.4344 233.6184 314.65314Q233.6184 315.46564 233.25902 316.16876Q232.91527 316.85626 232.3059 317.23126Q231.69652 317.59064 230.9309 317.59064Q229.60277 317.59064 228.77464 316.6219Q227.94652 315.65314 227.94652 313.4344Q227.94652 310.9344 228.8684 309.8094Q229.66527 308.825 231.02464 308.825Q232.04027 308.825 232.6809 309.40314Q233.33714 309.96564 233.46214 310.96564ZM229.16527 314.66876Q229.16527 315.21564 229.38402 315.71564Q229.6184 316.2 230.02464 316.46564Q230.44652 316.73126 230.91527 316.73126Q231.57152 316.73126 232.0559 316.2Q232.54027 315.65314 232.54027 314.73126Q232.54027 313.84064 232.0559 313.325Q231.58714 312.8094 230.8684 312.8094Q230.14964 312.8094 229.64964 313.325Q229.16527 313.84064 229.16527 314.66876Z" fill-rule="nonzero"></path><path fill="#000000" d="M269.8092 309.98126L269.8092 308.96564L275.3717 308.96564L275.3717 309.79376Q274.5592 310.66876 273.7467 312.1219Q272.94983 313.5594 272.51233 315.09064Q272.1842 316.16876 272.10608 317.45L271.01233 317.45Q271.02795 316.4344 271.40295 314.9969Q271.79358 313.5594 272.4967 312.23126Q273.21545 310.90314 274.02795 309.98126L269.8092 309.98126Z" fill-rule="nonzero"></path><path fill="#000000" d="M313.125 312.79376Q312.46875 312.54376 312.14062 312.10626Q311.82812 311.65314 311.82812 311.04376Q311.82812 310.10626 312.5 309.46564Q313.1875 308.825 314.29688 308.825Q315.42188 308.825 316.10938 309.48126Q316.79688 310.1375 316.79688 311.075Q316.79688 311.66876 316.48438 312.10626Q316.17188 312.54376 315.53125 312.79376Q316.32812 313.04376 316.73438 313.6219Q317.14062 314.2 317.14062 314.9969Q317.14062 316.09064 316.35938 316.84064Q315.59375 317.59064 314.3125 317.59064Q313.04688 317.59064 312.26562 316.84064Q311.48438 316.09064 311.48438 314.96564Q311.48438 314.1219 311.90625 313.5594Q312.34375 312.9969 313.125 312.79376ZM312.90625 310.9969Q312.90625 311.60626 313.29688 311.9969Q313.70312 312.3875 314.32812 312.3875Q314.9375 312.3875 315.32812 312.0125Q315.71875 311.6219 315.71875 311.0594Q315.71875 310.48126 315.3125 310.09064Q314.90625 309.6844 314.3125 309.6844Q313.70312 309.6844 313.29688 310.075Q312.90625 310.46564 312.90625 310.9969ZM312.57812 314.96564Q312.57812 315.41876 312.78125 315.84064Q313.0 316.2625 313.42188 316.4969Q313.84375 316.73126 314.32812 316.73126Q315.07812 316.73126 315.5625 316.2469Q316.0625 315.7625 316.0625 315.0125Q316.0625 314.2469 315.5625 313.7469Q315.0625 313.2469 314.29688 313.2469Q313.54688 313.2469 313.0625 313.7469Q312.57812 314.23126 312.57812 314.96564Z" fill-rule="nonzero"></path><path fill="#000000" d="M353.40955 315.46564L354.42517 315.3719Q354.55017 316.09064 354.90955 316.41876Q355.28455 316.73126 355.84705 316.73126Q356.33142 316.73126 356.6908 316.5125Q357.0658 316.27814 357.30017 315.91876Q357.53455 315.54376 357.6908 314.91876Q357.84705 314.27814 357.84705 313.6219Q357.84705 313.54376 357.84705 313.40314Q357.53455 313.90314 356.98767 314.23126Q356.4408 314.54376 355.80017 314.54376Q354.72205 314.54376 353.98767 313.77814Q353.2533 312.9969 353.2533 311.73126Q353.2533 310.41876 354.01892 309.6219Q354.80017 308.825 355.95642 308.825Q356.78455 308.825 357.47205 309.27814Q358.17517 309.73126 358.53455 310.575Q358.89392 311.40314 358.89392 312.98126Q358.89392 314.6219 358.53455 315.60626Q358.1908 316.575 357.47205 317.09064Q356.76892 317.59064 355.83142 317.59064Q354.8158 317.59064 354.17517 317.04376Q353.53455 316.48126 353.40955 315.46564ZM357.72205 311.66876Q357.72205 310.7625 357.23767 310.23126Q356.76892 309.7 356.08142 309.7Q355.3783 309.7 354.84705 310.27814Q354.33142 310.84064 354.33142 311.7625Q354.33142 312.575 354.83142 313.09064Q355.33142 313.60626 356.05017 313.60626Q356.78455 313.60626 357.2533 313.09064Q357.72205 312.575 357.72205 311.66876Z" fill-rule="nonzero"></path><path fill="#000000" d="M395.47537 317.45L394.4285 317.45L394.4285 310.73126Q394.03787 311.09064 393.41287 311.46564Q392.8035 311.825 392.31912 311.9969L392.31912 310.98126Q393.19412 310.5594 393.85037 309.98126Q394.52225 309.3875 394.8035 308.825L395.47537 308.825L395.47537 317.45ZM398.50662 313.21564Q398.50662 311.6844 398.81912 310.7625Q399.13162 309.825 399.741 309.325Q400.366 308.825 401.3035 308.825Q401.991 308.825 402.50662 309.10626Q403.03787 309.3875 403.38162 309.91876Q403.72537 310.4344 403.91287 311.1844Q404.10037 311.9344 404.10037 313.21564Q404.10037 314.73126 403.78787 315.65314Q403.491 316.575 402.866 317.09064Q402.25662 317.59064 401.3035 317.59064Q400.06912 317.59064 399.35037 316.7Q398.50662 315.6375 398.50662 313.21564ZM399.58475 313.21564Q399.58475 315.325 400.08475 316.02814Q400.58475 316.73126 401.3035 316.73126Q402.03787 316.73126 402.52225 316.02814Q403.02225 315.325 403.02225 313.21564Q403.02225 311.09064 402.52225 310.40314Q402.03787 309.7 401.28787 309.7Q400.56912 309.7 400.13162 310.3094Q399.58475 311.09064 399.58475 313.21564Z" fill-rule="nonzero"></path><path fill="#000000" d="M437.22867 317.45L436.1818 317.45L436.1818 310.73126Q435.79117 311.09064 435.16617 311.46564Q434.5568 311.825 434.07242 311.9969L434.07242 310.98126Q434.94742 310.5594 435.60367 309.98126Q436.27554 309.3875 436.5568 308.825L437.22867 308.825L437.22867 317.45ZM444.22867 317.45L443.1818 317.45L443.1818 310.73126Q442.79117 311.09064 442.16617 311.46564Q441.5568 311.825 441.07242 311.9969L441.07242 310.98126Q441.94742 310.5594 442.60367 309.98126Q443.27554 309.3875 443.5568 308.825L444.22867 308.825L444.22867 317.45Z" fill-rule="nonzero"></path><path fill="#000000" d="M478.98196 317.45L477.9351 317.45L477.9351 310.73126Q477.54446 311.09064 476.91946 311.46564Q476.3101 311.825 475.8257 311.9969L475.8257 310.98126Q476.7007 310.5594 477.35696 309.98126Q478.02884 309.3875 478.3101 308.825L478.98196 308.825L478.98196 317.45ZM487.5601 316.4344L487.5601 317.45L481.8726 317.45Q481.8726 317.075 481.9976 316.71564Q482.21634 316.1375 482.6851 315.575Q483.16946 315.0125 484.0757 314.27814Q485.48196 313.1219 485.96634 312.45Q486.46634 311.77814 486.46634 311.1844Q486.46634 310.5594 486.0132 310.1375Q485.5601 309.7 484.84134 309.7Q484.0757 309.7 483.6226 310.15314Q483.16946 310.60626 483.15384 311.41876L482.0757 311.3094Q482.1851 310.09064 482.90384 309.46564Q483.6382 308.825 484.8726 308.825Q486.10696 308.825 486.8257 309.5125Q487.54446 310.2 487.54446 311.21564Q487.54446 311.73126 487.3257 312.23126Q487.1226 312.71564 486.6226 313.27814Q486.1382 313.825 485.0132 314.77814Q484.0601 315.575 483.77884 315.8719Q483.5132 316.15314 483.34134 316.4344L487.5601 316.4344Z" fill-rule="nonzero"></path><path fill="#000000" d="M520.7353 317.45L519.6884 317.45L519.6884 310.73126Q519.2978 311.09064 518.6728 311.46564Q518.0634 311.825 517.57904 311.9969L517.57904 310.98126Q518.45404 310.5594 519.1103 309.98126Q519.78217 309.3875 520.0634 308.825L520.7353 308.825L520.7353 317.45ZM523.76654 315.1844L524.82904 315.04376Q525.0009 315.9344 525.4384 316.34064Q525.8759 316.73126 526.5009 316.73126Q527.2509 316.73126 527.76654 316.21564Q528.28217 315.7 528.28217 314.9344Q528.28217 314.21564 527.7978 313.7469Q527.32904 313.2625 526.59467 313.2625Q526.2978 313.2625 525.84467 313.3875L525.96967 312.45Q526.07904 312.46564 526.14154 312.46564Q526.8134 312.46564 527.34467 312.1219Q527.89154 311.7625 527.89154 311.02814Q527.89154 310.45 527.5009 310.075Q527.1103 309.6844 526.4853 309.6844Q525.8759 309.6844 525.45404 310.075Q525.0478 310.46564 524.9384 311.23126L523.8759 311.04376Q524.0634 309.9969 524.7509 309.41876Q525.4384 308.825 526.45404 308.825Q527.15717 308.825 527.7509 309.1375Q528.34467 309.4344 528.65717 309.95Q528.96967 310.46564 528.96967 311.0594Q528.96967 311.60626 528.6728 312.075Q528.3759 312.52814 527.7978 312.79376Q528.5478 312.96564 528.96967 313.52814Q529.39154 314.075 529.39154 314.91876Q529.39154 316.04376 528.5634 316.825Q527.7509 317.60626 526.5009 317.60626Q525.3759 317.60626 524.6259 316.9344Q523.8759 316.2469 523.76654 315.1844Z" fill-rule="nonzero"></path></svg> 