<?xml version="1.0" encoding="UTF-8"?> <svg xmlns:xlink="http://www.w3.org/1999/xlink" xmlns="http://www.w3.org/2000/svg" version="1.1" viewBox="0.0 0.0 600.0 371.0" fill="none" stroke="none" stroke-linecap="square" stroke-miterlimit="10" width="600" height="371"><path fill="#ffffff" d="M0 0L600.0 0L600.0 371.0L0 371.0L0 0Z" fill-rule="nonzero"></path><path stroke="#333333" stroke-width="1.0" stroke-linecap="butt" d="M77.5 300.5L581.5 300.5" fill-rule="nonzero"></path><path stroke="#ffffff" stroke-width="1.0" stroke-linecap="butt" d="M77.5 208.5L581.5 208.5" fill-rule="nonzero"></path><path stroke="#ffffff" stroke-width="1.0" stroke-linecap="butt" d="M77.5 117.5L581.5 117.5" fill-rule="nonzero"></path><path stroke="#ffffff" stroke-width="1.0" stroke-linecap="butt" d="M77.5 25.5L581.5 25.5" fill-rule="nonzero"></path><path stroke="#000000" stroke-width="1.0" stroke-linecap="butt" d="M77.5 300.5L77.5 25.5" fill-rule="nonzero"></path><clipPath id="id_0"><path d="M77.55 25.55L581.45 25.55L581.45 300.45L77.55 300.45L77.55 25.55Z" clip-rule="nonzero"></path></clipPath><path stroke="#000000" stroke-width="0.0" stroke-linecap="butt" stroke-opacity="0.0" clip-path="url(#id_0)" d="M108.0 300.0L88.0 300.0L88.0 295.0C88.0 293.89542 88.89543 293.0 90.0 293.0L106.0 293.0C107.10457 293.0 108.0 293.89542 108.0 295.0Z" fill-rule="nonzero"></path><path fill="#4285f4" clip-path="url(#id_0)" d="M108.0 300.0L88.0 300.0L88.0 295.0C88.0 293.89542 88.89543 293.0 90.0 293.0L106.0 293.0C107.10457 293.0 108.0 293.89542 108.0 295.0Z" fill-rule="nonzero"></path><path stroke="#000000" stroke-width="0.0" stroke-linecap="butt" stroke-opacity="0.0" clip-path="url(#id_0)" d="M139.0 300.0L119.0 300.0L119.0 288.0C119.0 286.89542 119.89543 286.0 121.0 286.0L137.0 286.0C138.10457 286.0 139.0 286.89542 139.0 288.0Z" fill-rule="nonzero"></path><path fill="#4285f4" clip-path="url(#id_0)" d="M139.0 300.0L119.0 300.0L119.0 288.0C119.0 286.89542 119.89543 286.0 121.0 286.0L137.0 286.0C138.10457 286.0 139.0 286.89542 139.0 288.0Z" fill-rule="nonzero"></path><path stroke="#000000" stroke-width="0.0" stroke-linecap="butt" stroke-opacity="0.0" clip-path="url(#id_0)" d="M170.0 300.0L150.0 300.0L150.0 247.0C150.0 245.89543 150.89543 245.0 152.0 245.0L168.0 245.0C169.10457 245.0 170.0 245.89543 170.0 247.0Z" fill-rule="nonzero"></path><path fill="#4285f4" clip-path="url(#id_0)" d="M170.0 300.0L150.0 300.0L150.0 247.0C150.0 245.89543 150.89543 245.0 152.0 245.0L168.0 245.0C169.10457 245.0 170.0 245.89543 170.0 247.0Z" fill-rule="nonzero"></path><path stroke="#000000" stroke-width="0.0" stroke-linecap="butt" stroke-opacity="0.0" clip-path="url(#id_0)" d="M201.0 300.0L181.0 300.0L181.0 200.0C181.0 198.89543 181.89543 198.0 183.0 198.0L199.0 198.0C200.10457 198.0 201.0 198.89543 201.0 200.0Z" fill-rule="nonzero"></path><path fill="#4285f4" clip-path="url(#id_0)" d="M201.0 300.0L181.0 300.0L181.0 200.0C181.0 198.89543 181.89543 198.0 183.0 198.0L199.0 198.0C200.10457 198.0 201.0 198.89543 201.0 200.0Z" fill-rule="nonzero"></path><path stroke="#000000" stroke-width="0.0" stroke-linecap="butt" stroke-opacity="0.0" clip-path="url(#id_0)" d="M232.0 300.0L212.0 300.0L212.0 138.0C212.0 136.89543 212.89543 136.0 214.0 136.0L230.0 136.0C231.10457 136.0 232.0 136.89543 232.0 138.0Z" fill-rule="nonzero"></path><path fill="#4285f4" clip-path="url(#id_0)" d="M232.0 300.0L212.0 300.0L212.0 138.0C212.0 136.89543 212.89543 136.0 214.0 136.0L230.0 136.0C231.10457 136.0 232.0 136.89543 232.0 138.0Z" fill-rule="nonzero"></path><path stroke="#000000" stroke-width="0.0" stroke-linecap="butt" stroke-opacity="0.0" clip-path="url(#id_0)" d="M262.0 300.0L242.0 300.0L242.0 90.0C242.0 88.89543 242.89543 88.0 244.0 88.0L260.0 88.0C261.10458 88.0 262.0 88.89543 262.0 90.0Z" fill-rule="nonzero"></path><path fill="#4285f4" clip-path="url(#id_0)" d="M262.0 300.0L242.0 300.0L242.0 90.0C242.0 88.89543 242.89543 88.0 244.0 88.0L260.0 88.0C261.10458 88.0 262.0 88.89543 262.0 90.0Z" fill-rule="nonzero"></path><path stroke="#000000" stroke-width="0.0" stroke-linecap="butt" stroke-opacity="0.0" clip-path="url(#id_0)" d="M293.0 300.0L273.0 300.0L273.0 101.0C273.0 99.89543 273.89542 99.0 275.0 99.0L291.0 99.0C292.10458 99.0 293.0 99.89543 293.0 101.0Z" fill-rule="nonzero"></path><path fill="#4285f4" clip-path="url(#id_0)" d="M293.0 300.0L273.0 300.0L273.0 101.0C273.0 99.89543 273.89542 99.0 275.0 99.0L291.0 99.0C292.10458 99.0 293.0 99.89543 293.0 101.0Z" fill-rule="nonzero"></path><path stroke="#000000" stroke-width="0.0" stroke-linecap="butt" stroke-opacity="0.0" clip-path="url(#id_0)" d="M324.0 300.0L304.0 300.0L304.0 130.0C304.0 128.89543 304.89542 128.0 306.0 128.0L322.0 128.0C323.10458 128.0 324.0 128.89543 324.0 130.0Z" fill-rule="nonzero"></path><path fill="#4285f4" clip-path="url(#id_0)" d="M324.0 300.0L304.0 300.0L304.0 130.0C304.0 128.89543 304.89542 128.0 306.0 128.0L322.0 128.0C323.10458 128.0 324.0 128.89543 324.0 130.0Z" fill-rule="nonzero"></path><path stroke="#000000" stroke-width="0.0" stroke-linecap="butt" stroke-opacity="0.0" clip-path="url(#id_0)" d="M355.0 300.0L335.0 300.0L335.0 160.0C335.0 158.89543 335.89542 158.0 337.0 158.0L353.0 158.0C354.10458 158.0 355.0 158.89543 355.0 160.0Z" fill-rule="nonzero"></path><path fill="#4285f4" clip-path="url(#id_0)" d="M355.0 300.0L335.0 300.0L335.0 160.0C335.0 158.89543 335.89542 158.0 337.0 158.0L353.0 158.0C354.10458 158.0 355.0 158.89543 355.0 160.0Z" fill-rule="nonzero"></path><path stroke="#000000" stroke-width="0.0" stroke-linecap="butt" stroke-opacity="0.0" clip-path="url(#id_0)" d="M386.0 300.0L366.0 300.0L366.0 185.0C366.0 183.89543 366.89542 183.0 368.0 183.0L384.0 183.0C385.10458 183.0 386.0 183.89543 386.0 185.0Z" fill-rule="nonzero"></path><path fill="#4285f4" clip-path="url(#id_0)" d="M386.0 300.0L366.0 300.0L366.0 185.0C366.0 183.89543 366.89542 183.0 368.0 183.0L384.0 183.0C385.10458 183.0 386.0 183.89543 386.0 185.0Z" fill-rule="nonzero"></path><path stroke="#000000" stroke-width="0.0" stroke-linecap="butt" stroke-opacity="0.0" clip-path="url(#id_0)" d="M417.0 300.0L397.0 300.0L397.0 211.0C397.0 209.89543 397.89542 209.0 399.0 209.0L415.0 209.0C416.10458 209.0 417.0 209.89543 417.0 211.0Z" fill-rule="nonzero"></path><path fill="#4285f4" clip-path="url(#id_0)" d="M417.0 300.0L397.0 300.0L397.0 211.0C397.0 209.89543 397.89542 209.0 399.0 209.0L415.0 209.0C416.10458 209.0 417.0 209.89543 417.0 211.0Z" fill-rule="nonzero"></path><path stroke="#000000" stroke-width="0.0" stroke-linecap="butt" stroke-opacity="0.0" clip-path="url(#id_0)" d="M447.0 300.0L427.0 300.0L427.0 229.0C427.0 227.89543 427.89542 227.0 429.0 227.0L445.0 227.0C446.10458 227.0 447.0 227.89543 447.0 229.0Z" fill-rule="nonzero"></path><path fill="#4285f4" clip-path="url(#id_0)" d="M447.0 300.0L427.0 300.0L427.0 229.0C427.0 227.89543 427.89542 227.0 429.0 227.0L445.0 227.0C446.10458 227.0 447.0 227.89543 447.0 229.0Z" fill-rule="nonzero"></path><path stroke="#000000" stroke-width="0.0" stroke-linecap="butt" stroke-opacity="0.0" clip-path="url(#id_0)" d="M478.0 300.0L458.0 300.0L458.0 247.0C458.0 245.89543 458.89542 245.0 460.0 245.0L476.0 245.0C477.10458 245.0 478.0 245.89543 478.0 247.0Z" fill-rule="nonzero"></path><path fill="#4285f4" clip-path="url(#id_0)" d="M478.0 300.0L458.0 300.0L458.0 247.0C458.0 245.89543 458.89542 245.0 460.0 245.0L476.0 245.0C477.10458 245.0 478.0 245.89543 478.0 247.0Z" fill-rule="nonzero"></path><path stroke="#000000" stroke-width="0.0" stroke-linecap="butt" stroke-opacity="0.0" clip-path="url(#id_0)" d="M509.0 300.0L489.0 300.0L489.0 262.0C489.0 260.89542 489.89542 260.0 491.0 260.0L507.0 260.0C508.10458 260.0 509.0 260.89542 509.0 262.0Z" fill-rule="nonzero"></path><path fill="#4285f4" clip-path="url(#id_0)" d="M509.0 300.0L489.0 300.0L489.0 262.0C489.0 260.89542 489.89542 260.0 491.0 260.0L507.0 260.0C508.10458 260.0 509.0 260.89542 509.0 262.0Z" fill-rule="nonzero"></path><path stroke="#000000" stroke-width="0.0" stroke-linecap="butt" stroke-opacity="0.0" clip-path="url(#id_0)" d="M540.0 300.0L520.0 300.0L520.0 273.0C520.0 271.89542 520.89545 271.0 522.0 271.0L538.0 271.0C539.10455 271.0 540.0 271.89542 540.0 273.0Z" fill-rule="nonzero"></path><path fill="#4285f4" clip-path="url(#id_0)" d="M540.0 300.0L520.0 300.0L520.0 273.0C520.0 271.89542 520.89545 271.0 522.0 271.0L538.0 271.0C539.10455 271.0 540.0 271.89542 540.0 273.0Z" fill-rule="nonzero"></path><path stroke="#000000" stroke-width="0.0" stroke-linecap="butt" stroke-opacity="0.0" clip-path="url(#id_0)" d="M571.0 300.0L551.0 300.0L551.0 277.0C551.0 275.89542 551.89545 275.0 553.0 275.0L569.0 275.0C570.10455 275.0 571.0 275.89542 571.0 277.0Z" fill-rule="nonzero"></path><path fill="#4285f4" clip-path="url(#id_0)" d="M571.0 300.0L551.0 300.0L551.0 277.0C551.0 275.89542 551.89545 275.0 553.0 275.0L569.0 275.0C570.10455 275.0 571.0 275.89542 571.0 277.0Z" fill-rule="nonzero"></path><path stroke="#6aa84f" stroke-width="3.0" stroke-linecap="butt" clip-path="url(#id_0)" d="M98.35321 293.11932C98.35321 293.11932 118.89959 293.73022 129.17278 285.78867C139.44597 277.8471 149.71916 260.13135 159.99236 245.47C170.26555 230.80867 180.53874 216.14734 190.81192 197.82066C201.08511 179.494 211.3583 153.83667 221.6315 135.51C231.9047 117.183334 242.17789 93.96956 252.45107 87.860664C262.72427 81.75178 272.99744 92.13689 283.27063 98.85667C293.54382 105.57645 303.81702 118.40511 314.0902 128.17934C324.3634 137.95355 334.6366 148.33867 344.9098 157.502C355.18298 166.66533 365.45618 174.60689 375.72937 183.15933C386.00256 191.71178 396.27573 201.486 406.54892 208.81667C416.8221 216.14734 427.0953 221.03444 437.3685 227.14333C447.6417 233.25223 457.9149 239.972 468.18808 245.47C478.46127 250.968 488.73447 255.85512 499.00766 260.13135C509.28082 264.40756 519.554 268.68378 529.8272 271.12732C540.1004 273.5709 560.6468 274.79266 560.6468 274.79266" fill-rule="nonzero"></path><path stroke="#ffffff" stroke-width="1.0" stroke-linecap="butt" stroke-dasharray="1.0,2.0" clip-path="url(#id_0)" d="M252.45107 80.53C252.45107 80.53 272.99744 80.53 283.27063 80.53C293.54382 80.53 314.0902 80.53 314.0902 80.53" fill-rule="nonzero"></path><path fill="#000000" fill-opacity="0.0" clip-path="url(#id_0)" d="M101.35321 293.11932C101.35321 294.77618 100.01006 296.11932 98.35321 296.11932C96.69636 296.11932 95.35321 294.77618 95.35321 293.11932C95.35321 291.4625 96.69636 290.11932 98.35321 290.11932C100.01006 290.11932 101.35321 291.4625 101.35321 293.11932Z" fill-rule="nonzero"></path><path fill="#000000" fill-opacity="0.0" clip-path="url(#id_0)" d="M132.17278 285.78867C132.17278 287.44553 130.82964 288.78867 129.17278 288.78867C127.51593 288.78867 126.17278 287.44553 126.17278 285.78867C126.17278 284.1318 127.51593 282.78867 129.17278 282.78867C130.82964 282.78867 132.17278 284.1318 132.17278 285.78867Z" fill-rule="nonzero"></path><path fill="#000000" fill-opacity="0.0" clip-path="url(#id_0)" d="M162.99236 245.47C162.99236 247.12686 161.64922 248.47 159.99236 248.47C158.3355 248.47 156.99236 247.12686 156.99236 245.47C156.99236 243.81314 158.3355 242.47 159.99236 242.47C161.64922 242.47 162.99236 243.81314 162.99236 245.47Z" fill-rule="nonzero"></path><path fill="#000000" fill-opacity="0.0" clip-path="url(#id_0)" d="M193.81192 197.82066C193.81192 199.47752 192.46878 200.82066 190.81192 200.82066C189.15508 200.82066 187.81192 199.47752 187.81192 197.82066C187.81192 196.16382 189.15508 194.82066 190.81192 194.82066C192.46878 194.82066 193.81192 196.16382 193.81192 197.82066Z" fill-rule="nonzero"></path><path fill="#000000" fill-opacity="0.0" clip-path="url(#id_0)" d="M224.6315 135.51C224.6315 137.16685 223.28835 138.51 221.6315 138.51C219.97464 138.51 218.6315 137.16685 218.6315 135.51C218.6315 133.85315 219.97464 132.51 221.6315 132.51C223.28835 132.51 224.6315 133.85315 224.6315 135.51Z" fill-rule="nonzero"></path><path fill="#000000" fill-opacity="0.0" clip-path="url(#id_0)" d="M255.45107 87.860664C255.45107 89.517525 254.10793 90.860664 252.45107 90.860664C250.79422 90.860664 249.45107 89.517525 249.45107 87.860664C249.45107 86.20381 250.79422 84.860664 252.45107 84.860664C254.10793 84.860664 255.45107 86.20381 255.45107 87.860664Z" fill-rule="nonzero"></path><path fill="#000000" fill-opacity="0.0" clip-path="url(#id_0)" d="M286.27063 98.85667C286.27063 100.51352 284.9275 101.85667 283.27063 101.85667C281.6138 101.85667 280.27063 100.51352 280.27063 98.85667C280.27063 97.199814 281.6138 95.85667 283.27063 95.85667C284.9275 95.85667 286.27063 97.199814 286.27063 98.85667Z" fill-rule="nonzero"></path><path fill="#000000" fill-opacity="0.0" clip-path="url(#id_0)" d="M317.0902 128.17934C317.0902 129.83618 315.74707 131.17934 314.0902 131.17934C312.43335 131.17934 311.0902 129.83618 311.0902 128.17934C311.0902 126.52248 312.43335 125.17934 314.0902 125.17934C315.74707 125.17934 317.0902 126.52248 317.0902 128.17934Z" fill-rule="nonzero"></path><path fill="#000000" fill-opacity="0.0" clip-path="url(#id_0)" d="M347.9098 157.502C347.9098 159.15886 346.56665 160.502 344.9098 160.502C343.25293 160.502 341.9098 159.15886 341.9098 157.502C341.9098 155.84514 343.25293 154.502 344.9098 154.502C346.56665 154.502 347.9098 155.84514 347.9098 157.502Z" fill-rule="nonzero"></path><path fill="#000000" fill-opacity="0.0" clip-path="url(#id_0)" d="M378.72937 183.15933C378.72937 184.8162 377.3862 186.15933 375.72937 186.15933C374.0725 186.15933 372.72937 184.8162 372.72937 183.15933C372.72937 181.50247 374.0725 180.15933 375.72937 180.15933C377.3862 180.15933 378.72937 181.50247 378.72937 183.15933Z" fill-rule="nonzero"></path><path fill="#000000" fill-opacity="0.0" clip-path="url(#id_0)" d="M409.54892 208.81667C409.54892 210.47353 408.20578 211.81667 406.54892 211.81667C404.8921 211.81667 403.54892 210.47353 403.54892 208.81667C403.54892 207.1598 404.8921 205.81667 406.54892 205.81667C408.20578 205.81667 409.54892 207.1598 409.54892 208.81667Z" fill-rule="nonzero"></path><path fill="#000000" fill-opacity="0.0" clip-path="url(#id_0)" d="M440.3685 227.14333C440.3685 228.80019 439.02536 230.14333 437.3685 230.14333C435.71164 230.14333 434.3685 228.80019 434.3685 227.14333C434.3685 225.48648 435.71164 224.14333 437.3685 224.14333C439.02536 224.14333 440.3685 225.48648 440.3685 227.14333Z" fill-rule="nonzero"></path><path fill="#000000" fill-opacity="0.0" clip-path="url(#id_0)" d="M471.18808 245.47C471.18808 247.12686 469.84494 248.47 468.18808 248.47C466.53122 248.47 465.18808 247.12686 465.18808 245.47C465.18808 243.81314 466.53122 242.47 468.18808 242.47C469.84494 242.47 471.18808 243.81314 471.18808 245.47Z" fill-rule="nonzero"></path><path fill="#000000" fill-opacity="0.0" clip-path="url(#id_0)" d="M502.00766 260.13135C502.00766 261.78818 500.6645 263.13135 499.00766 263.13135C497.3508 263.13135 496.00766 261.78818 496.00766 260.13135C496.00766 258.4745 497.3508 257.13135 499.00766 257.13135C500.6645 257.13135 502.00766 258.4745 502.00766 260.13135Z" fill-rule="nonzero"></path><path fill="#000000" fill-opacity="0.0" clip-path="url(#id_0)" d="M532.8272 271.12732C532.8272 272.78418 531.4841 274.12732 529.8272 274.12732C528.17035 274.12732 526.8272 272.78418 526.8272 271.12732C526.8272 269.4705 528.17035 268.12732 529.8272 268.12732C531.4841 268.12732 532.8272 269.4705 532.8272 271.12732Z" fill-rule="nonzero"></path><path fill="#000000" fill-opacity="0.0" clip-path="url(#id_0)" d="M563.6468 274.79266C563.6468 276.44952 562.30365 277.79266 560.6468 277.79266C558.9899 277.79266 557.6468 276.44952 557.6468 274.79266C557.6468 273.1358 558.9899 271.79266 560.6468 271.79266C562.30365 271.79266 563.6468 273.1358 563.6468 274.79266Z" fill-rule="nonzero"></path><path fill="#ffffff" clip-path="url(#id_0)" d="M252.45107 80.53C252.45107 80.53 252.45107 80.53 252.45107 80.53C252.45107 80.53 252.45107 80.53 252.45107 80.53C252.45107 80.53 252.45107 80.53 252.45107 80.53C252.45107 80.53 252.45107 80.53 252.45107 80.53Z" fill-rule="nonzero"></path><path fill="#ffffff" clip-path="url(#id_0)" d="M283.27063 80.53C283.27063 80.53 283.27063 80.53 283.27063 80.53C283.27063 80.53 283.27063 80.53 283.27063 80.53C283.27063 80.53 283.27063 80.53 283.27063 80.53C283.27063 80.53 283.27063 80.53 283.27063 80.53Z" fill-rule="nonzero"></path><path fill="#ffffff" clip-path="url(#id_0)" d="M314.0902 80.53C314.0902 80.53 314.0902 80.53 314.0902 80.53C314.0902 80.53 314.0902 80.53 314.0902 80.53C314.0902 80.53 314.0902 80.53 314.0902 80.53C314.0902 80.53 314.0902 80.53 314.0902 80.53Z" fill-rule="nonzero"></path><path stroke="#ffffff" stroke-width="3.0" stroke-linejoin="round" stroke-linecap="round" d="M239.75537 37.249054L242.55225 44.20218L245.3335 37.249054L246.80225 37.249054L246.80225 45.780304L245.67725 45.780304L245.67725 42.45218L245.78662 38.874054L242.97412 45.780304L242.11475 45.780304L239.31787 38.88968L239.42725 42.45218L239.42725 45.780304L238.30225 45.780304L238.30225 37.249054L239.75537 37.249054ZM247.84912 42.54593Q247.84912 41.624054 248.2085 40.874054Q248.5835 40.124054 249.23975 39.73343Q249.896 39.32718 250.72412 39.32718Q252.021 39.32718 252.81787 40.217804Q253.63037 41.10843 253.63037 42.60843L253.63037 42.686554Q253.63037 43.60843 253.271 44.342804Q252.91162 45.07718 252.25537 45.499054Q251.59912 45.905304 250.73975 45.905304Q249.4585 45.905304 248.646 45.01468Q247.84912 44.10843 247.84912 42.624054L247.84912 42.54593ZM248.94287 42.686554Q248.94287 43.73343 249.42725 44.374054Q249.92725 45.01468 250.73975 45.01468Q251.56787 45.01468 252.05225 44.374054Q252.53662 43.717804 252.53662 42.54593Q252.53662 41.51468 252.03662 40.874054Q251.55225 40.217804 250.72412 40.217804Q249.92725 40.217804 249.42725 40.85843Q248.94287 41.48343 248.94287 42.686554ZM254.88037 42.561554Q254.88037 41.092804 255.56787 40.217804Q256.25537 39.32718 257.38037 39.32718Q258.48975 39.32718 259.146 40.07718L259.146 36.780304L260.22412 36.780304L260.22412 45.780304L259.22412 45.780304L259.17725 45.092804Q258.521 45.905304 257.36475 45.905304Q256.271 45.905304 255.56787 44.999054Q254.88037 44.092804 254.88037 42.63968L254.88037 42.561554ZM255.9585 42.686554Q255.9585 43.76468 256.396 44.374054Q256.84912 44.98343 257.63037 44.98343Q258.66162 44.98343 259.146 44.04593L259.146 41.13968Q258.66162 40.249054 257.646 40.249054Q256.84912 40.249054 256.396 40.85843Q255.9585 41.467804 255.9585 42.686554ZM264.771 45.905304Q263.47412 45.905304 262.66162 45.061554Q261.86475 44.20218 261.86475 42.780304L261.86475 42.592804Q261.86475 41.63968 262.22412 40.905304Q262.5835 40.155304 263.22412 39.749054Q263.88037 39.32718 264.63037 39.32718Q265.86475 39.32718 266.55225 40.13968Q267.23975 40.95218 267.23975 42.467804L267.23975 42.92093L262.94287 42.92093Q262.97412 43.85843 263.48975 44.436554Q264.021 45.01468 264.8335 45.01468Q265.396 45.01468 265.78662 44.780304Q266.19287 44.54593 266.50537 44.155304L267.16162 44.67093Q266.36475 45.905304 264.771 45.905304ZM264.63037 40.217804Q263.97412 40.217804 263.521 40.70218Q263.0835 41.17093 262.98975 42.030304L266.16162 42.030304L266.16162 41.95218Q266.11475 41.124054 265.7085 40.67093Q265.31787 40.217804 264.63037 40.217804Z" fill-rule="nonzero"></path><path fill="#000000" d="M239.75537 37.249054L242.55225 44.20218L245.3335 37.249054L246.80225 37.249054L246.80225 45.780304L245.67725 45.780304L245.67725 42.45218L245.78662 38.874054L242.97412 45.780304L242.11475 45.780304L239.31787 38.88968L239.42725 42.45218L239.42725 45.780304L238.30225 45.780304L238.30225 37.249054L239.75537 37.249054ZM247.84912 42.54593Q247.84912 41.624054 248.2085 40.874054Q248.5835 40.124054 249.23975 39.73343Q249.896 39.32718 250.72412 39.32718Q252.021 39.32718 252.81787 40.217804Q253.63037 41.10843 253.63037 42.60843L253.63037 42.686554Q253.63037 43.60843 253.271 44.342804Q252.91162 45.07718 252.25537 45.499054Q251.59912 45.905304 250.73975 45.905304Q249.4585 45.905304 248.646 45.01468Q247.84912 44.10843 247.84912 42.624054L247.84912 42.54593ZM248.94287 42.686554Q248.94287 43.73343 249.42725 44.374054Q249.92725 45.01468 250.73975 45.01468Q251.56787 45.01468 252.05225 44.374054Q252.53662 43.717804 252.53662 42.54593Q252.53662 41.51468 252.03662 40.874054Q251.55225 40.217804 250.72412 40.217804Q249.92725 40.217804 249.42725 40.85843Q248.94287 41.48343 248.94287 42.686554ZM254.88037 42.561554Q254.88037 41.092804 255.56787 40.217804Q256.25537 39.32718 257.38037 39.32718Q258.48975 39.32718 259.146 40.07718L259.146 36.780304L260.22412 36.780304L260.22412 45.780304L259.22412 45.780304L259.17725 45.092804Q258.521 45.905304 257.36475 45.905304Q256.271 45.905304 255.56787 44.999054Q254.88037 44.092804 254.88037 42.63968L254.88037 42.561554ZM255.9585 42.686554Q255.9585 43.76468 256.396 44.374054Q256.84912 44.98343 257.63037 44.98343Q258.66162 44.98343 259.146 44.04593L259.146 41.13968Q258.66162 40.249054 257.646 40.249054Q256.84912 40.249054 256.396 40.85843Q255.9585 41.467804 255.9585 42.686554ZM264.771 45.905304Q263.47412 45.905304 262.66162 45.061554Q261.86475 44.20218 261.86475 42.780304L261.86475 42.592804Q261.86475 41.63968 262.22412 40.905304Q262.5835 40.155304 263.22412 39.749054Q263.88037 39.32718 264.63037 39.32718Q265.86475 39.32718 266.55225 40.13968Q267.23975 40.95218 267.23975 42.467804L267.23975 42.92093L262.94287 42.92093Q262.97412 43.85843 263.48975 44.436554Q264.021 45.01468 264.8335 45.01468Q265.396 45.01468 265.78662 44.780304Q266.19287 44.54593 266.50537 44.155304L267.16162 44.67093Q266.36475 45.905304 264.771 45.905304ZM264.63037 40.217804Q263.97412 40.217804 263.521 40.70218Q263.0835 41.17093 262.98975 42.030304L266.16162 42.030304L266.16162 41.95218Q266.11475 41.124054 265.7085 40.67093Q265.31787 40.217804 264.63037 40.217804Z" fill-rule="nonzero"></path><path stroke="#ffffff" stroke-width="3.0" stroke-linejoin="round" stroke-linecap="round" d="M265.99362 62.784603L268.7905 69.737724L271.57175 62.784603L273.0405 62.784603L273.0405 71.31585L271.9155 71.31585L271.9155 67.987724L272.02487 64.4096L269.21237 71.31585L268.353 71.31585L265.55612 64.425224L265.6655 67.987724L265.6655 71.31585L264.5405 71.31585L264.5405 62.784603L265.99362 62.784603ZM277.00925 71.44085Q275.71237 71.44085 274.89987 70.5971Q274.103 69.737724 274.103 68.31585L274.103 68.12835Q274.103 67.175224 274.46237 66.44085Q274.82175 65.69085 275.46237 65.2846Q276.11862 64.862724 276.86862 64.862724Q278.103 64.862724 278.7905 65.675224Q279.478 66.487724 279.478 68.00335L279.478 68.456474L275.18112 68.456474Q275.21237 69.393974 275.728 69.9721Q276.25925 70.550224 277.07175 70.550224Q277.63425 70.550224 278.02487 70.31585Q278.43112 70.081474 278.74362 69.69085L279.39987 70.206474Q278.603 71.44085 277.00925 71.44085ZM276.86862 65.75335Q276.21237 65.75335 275.75925 66.237724Q275.32175 66.706474 275.228 67.56585L278.39987 67.56585L278.39987 67.487724Q278.353 66.6596 277.94675 66.206474Q277.55612 65.75335 276.86862 65.75335ZM280.11862 68.0971Q280.11862 66.62835 280.80612 65.75335Q281.49362 64.862724 282.61862 64.862724Q283.728 64.862724 284.38425 65.612724L284.38425 62.315853L285.46237 62.315853L285.46237 71.31585L284.46237 71.31585L284.4155 70.62835Q283.75925 71.44085 282.603 71.44085Q281.50925 71.44085 280.80612 70.5346Q280.11862 69.62835 280.11862 68.175224L280.11862 68.0971ZM281.19675 68.2221Q281.19675 69.300224 281.63425 69.9096Q282.08737 70.518974 282.86862 70.518974Q283.89987 70.518974 284.38425 69.581474L284.38425 66.675224Q283.89987 65.7846 282.88425 65.7846Q282.08737 65.7846 281.63425 66.393974Q281.19675 67.00335 281.19675 68.2221ZM288.55612 71.31585L287.478 71.31585L287.478 64.9721L288.55612 64.9721L288.55612 71.31585ZM287.38425 63.30023Q287.38425 63.034603 287.5405 62.847103Q287.71237 62.659603 288.02487 62.659603Q288.33737 62.659603 288.49362 62.847103Q288.6655 63.034603 288.6655 63.30023Q288.6655 63.55023 288.49362 63.73773Q288.33737 63.909603 288.02487 63.909603Q287.71237 63.909603 287.5405 63.73773Q287.38425 63.55023 287.38425 63.30023ZM294.2905 71.31585Q294.19675 71.12835 294.13425 70.643974Q293.38425 71.44085 292.33737 71.44085Q291.39987 71.44085 290.7905 70.9096Q290.19675 70.37835 290.19675 69.550224Q290.19675 68.56585 290.94675 68.018974Q291.69675 67.4721 293.07175 67.4721L294.11862 67.4721L294.11862 66.9721Q294.11862 66.4096 293.77487 66.081474Q293.44675 65.737724 292.77487 65.737724Q292.19675 65.737724 291.80612 66.0346Q291.4155 66.31585 291.4155 66.737724L290.32175 66.737724Q290.32175 66.25335 290.64987 65.81585Q290.99362 65.37835 291.57175 65.12835Q292.14987 64.862724 292.83737 64.862724Q293.94675 64.862724 294.55612 65.4096Q295.18112 65.956474 295.21237 66.9096L295.21237 69.831474Q295.21237 70.706474 295.43112 71.2221L295.43112 71.31585L294.2905 71.31585ZM292.49362 70.487724Q293.00925 70.487724 293.46237 70.2221Q293.9155 69.956474 294.11862 69.5346L294.11862 68.237724L293.27487 68.237724Q291.27487 68.237724 291.27487 69.4096Q291.27487 69.9096 291.61862 70.206474Q291.96237 70.487724 292.49362 70.487724ZM298.39987 64.9721L298.43112 65.768974Q299.1655 64.862724 300.33737 64.862724Q302.353 64.862724 302.36862 67.12835L302.36862 71.31585L301.27487 71.31585L301.27487 67.112724Q301.27487 66.44085 300.96237 66.112724Q300.6655 65.7846 300.00925 65.7846Q299.478 65.7846 299.07175 66.06585Q298.68112 66.3471 298.46237 66.800224L298.46237 71.31585L297.38425 71.31585L297.38425 64.9721L298.39987 64.9721Z" fill-rule="nonzero"></path><path fill="#000000" d="M265.99362 62.7846L268.7905 69.737724L271.57175 62.7846L273.0405 62.7846L273.0405 71.31585L271.9155 71.31585L271.9155 67.987724L272.02487 64.4096L269.21237 71.31585L268.353 71.31585L265.55612 64.425224L265.6655 67.987724L265.6655 71.31585L264.5405 71.31585L264.5405 62.7846L265.99362 62.7846ZM277.00925 71.44085Q275.71237 71.44085 274.89987 70.5971Q274.103 69.737724 274.103 68.31585L274.103 68.12835Q274.103 67.175224 274.46237 66.44085Q274.82175 65.69085 275.46237 65.2846Q276.11862 64.862724 276.86862 64.862724Q278.103 64.862724 278.7905 65.675224Q279.478 66.487724 279.478 68.00335L279.478 68.456474L275.18112 68.456474Q275.21237 69.393974 275.728 69.9721Q276.25925 70.550224 277.07175 70.550224Q277.63425 70.550224 278.02487 70.31585Q278.43112 70.081474 278.74362 69.69085L279.39987 70.206474Q278.603 71.44085 277.00925 71.44085ZM276.86862 65.75335Q276.21237 65.75335 275.75925 66.237724Q275.32175 66.706474 275.228 67.56585L278.39987 67.56585L278.39987 67.487724Q278.353 66.6596 277.94675 66.206474Q277.55612 65.75335 276.86862 65.75335ZM280.11862 68.0971Q280.11862 66.62835 280.80612 65.75335Q281.49362 64.862724 282.61862 64.862724Q283.728 64.862724 284.38425 65.612724L284.38425 62.31585L285.46237 62.31585L285.46237 71.31585L284.46237 71.31585L284.4155 70.62835Q283.75925 71.44085 282.603 71.44085Q281.50925 71.44085 280.80612 70.5346Q280.11862 69.62835 280.11862 68.175224L280.11862 68.0971ZM281.19675 68.2221Q281.19675 69.300224 281.63425 69.9096Q282.08737 70.518974 282.86862 70.518974Q283.89987 70.518974 284.38425 69.581474L284.38425 66.675224Q283.89987 65.7846 282.88425 65.7846Q282.08737 65.7846 281.63425 66.393974Q281.19675 67.00335 281.19675 68.2221ZM288.55612 71.31585L287.478 71.31585L287.478 64.9721L288.55612 64.9721L288.55612 71.31585ZM287.38425 63.300224Q287.38425 63.0346 287.5405 62.8471Q287.71237 62.6596 288.02487 62.6596Q288.33737 62.6596 288.49362 62.8471Q288.6655 63.0346 288.6655 63.300224Q288.6655 63.550224 288.49362 63.737724Q288.33737 63.9096 288.02487 63.9096Q287.71237 63.9096 287.5405 63.737724Q287.38425 63.550224 287.38425 63.300224ZM294.2905 71.31585Q294.19675 71.12835 294.13425 70.643974Q293.38425 71.44085 292.33737 71.44085Q291.39987 71.44085 290.7905 70.9096Q290.19675 70.37835 290.19675 69.550224Q290.19675 68.56585 290.94675 68.018974Q291.69675 67.4721 293.07175 67.4721L294.11862 67.4721L294.11862 66.9721Q294.11862 66.4096 293.77487 66.081474Q293.44675 65.737724 292.77487 65.737724Q292.19675 65.737724 291.80612 66.0346Q291.4155 66.31585 291.4155 66.737724L290.32175 66.737724Q290.32175 66.25335 290.64987 65.81585Q290.99362 65.37835 291.57175 65.12835Q292.14987 64.862724 292.83737 64.862724Q293.94675 64.862724 294.55612 65.4096Q295.18112 65.956474 295.21237 66.9096L295.21237 69.831474Q295.21237 70.706474 295.43112 71.2221L295.43112 71.31585L294.2905 71.31585ZM292.49362 70.487724Q293.00925 70.487724 293.46237 70.2221Q293.9155 69.956474 294.11862 69.5346L294.11862 68.237724L293.27487 68.237724Q291.27487 68.237724 291.27487 69.4096Q291.27487 69.9096 291.61862 70.206474Q291.96237 70.487724 292.49362 70.487724ZM298.39987 64.9721L298.43112 65.768974Q299.1655 64.862724 300.33737 64.862724Q302.353 64.862724 302.36862 67.12835L302.36862 71.31585L301.27487 71.31585L301.27487 67.112724Q301.27487 66.44085 300.96237 66.112724Q300.6655 65.7846 300.00925 65.7846Q299.478 65.7846 299.07175 66.06585Q298.68112 66.3471 298.46237 66.800224L298.46237 71.31585L297.38425 71.31585L297.38425 64.9721L298.39987 64.9721Z" fill-rule="nonzero"></path><path stroke="#ffffff" stroke-width="3.0" stroke-linejoin="round" stroke-linecap="round" d="M301.6246 85.37374L304.42148 92.326866L307.20273 85.37374L308.67148 85.37374L308.67148 93.90499L307.54648 93.90499L307.54648 90.576866L307.65585 86.99874L304.84335 93.90499L303.98398 93.90499L301.1871 87.014366L301.29648 90.576866L301.29648 93.90499L300.17148 93.90499L300.17148 85.37374L301.6246 85.37374ZM312.64023 94.02999Q311.34335 94.02999 310.53085 93.18624Q309.73398 92.326866 309.73398 90.90499L309.73398 90.71749Q309.73398 89.764366 310.09335 89.02999Q310.45273 88.27999 311.09335 87.87374Q311.7496 87.451866 312.4996 87.451866Q313.73398 87.451866 314.42148 88.264366Q315.10898 89.076866 315.10898 90.59249L315.10898 91.045616L310.8121 91.045616Q310.84335 91.983116 311.35898 92.56124Q311.89023 93.139366 312.70273 93.139366Q313.26523 93.139366 313.65585 92.90499Q314.0621 92.670616 314.3746 92.27999L315.03085 92.795616Q314.23398 94.02999 312.64023 94.02999ZM312.4996 88.34249Q311.84335 88.34249 311.39023 88.826866Q310.95273 89.295616 310.85898 90.15499L314.03085 90.15499L314.03085 90.076866Q313.98398 89.24874 313.57773 88.795616Q313.1871 88.34249 312.4996 88.34249ZM319.92148 93.90499Q319.82773 93.71749 319.76523 93.233116Q319.01523 94.02999 317.96835 94.02999Q317.03085 94.02999 316.42148 93.49874Q315.82773 92.96749 315.82773 92.139366Q315.82773 91.15499 316.57773 90.608116Q317.32773 90.06124 318.70273 90.06124L319.7496 90.06124L319.7496 89.56124Q319.7496 88.99874 319.40585 88.670616Q319.07773 88.326866 318.40585 88.326866Q317.82773 88.326866 317.4371 88.62374Q317.04648 88.90499 317.04648 89.326866L315.95273 89.326866Q315.95273 88.84249 316.28085 88.40499Q316.6246 87.96749 317.20273 87.71749Q317.78085 87.451866 318.46835 87.451866Q319.57773 87.451866 320.1871 87.99874Q320.8121 88.545616 320.84335 89.49874L320.84335 92.420616Q320.84335 93.295616 321.0621 93.81124L321.0621 93.90499L319.92148 93.90499ZM318.1246 93.076866Q318.64023 93.076866 319.09335 92.81124Q319.54648 92.545616 319.7496 92.12374L319.7496 90.826866L318.90585 90.826866Q316.90585 90.826866 316.90585 91.99874Q316.90585 92.49874 317.2496 92.795616Q317.59335 93.076866 318.1246 93.076866ZM324.03085 87.56124L324.0621 88.358116Q324.79648 87.451866 325.96835 87.451866Q327.98398 87.451866 327.9996 89.71749L327.9996 93.90499L326.90585 93.90499L326.90585 89.701866Q326.90585 89.02999 326.59335 88.701866Q326.29648 88.37374 325.64023 88.37374Q325.10898 88.37374 324.70273 88.65499Q324.3121 88.93624 324.09335 89.389366L324.09335 93.90499L323.01523 93.90499L323.01523 87.56124L324.03085 87.56124Z" fill-rule="nonzero"></path><path fill="#000000" d="M301.6246 85.37374L304.42148 92.326866L307.20273 85.37374L308.67148 85.37374L308.67148 93.90499L307.54648 93.90499L307.54648 90.576866L307.65585 86.99874L304.84335 93.90499L303.98398 93.90499L301.1871 87.014366L301.29648 90.576866L301.29648 93.90499L300.17148 93.90499L300.17148 85.37374L301.6246 85.37374ZM312.64023 94.02999Q311.34335 94.02999 310.53085 93.18624Q309.73398 92.326866 309.73398 90.90499L309.73398 90.71749Q309.73398 89.764366 310.09335 89.02999Q310.45273 88.27999 311.09335 87.87374Q311.7496 87.451866 312.4996 87.451866Q313.73398 87.451866 314.42148 88.264366Q315.10898 89.076866 315.10898 90.59249L315.10898 91.045616L310.8121 91.045616Q310.84335 91.983116 311.35898 92.56124Q311.89023 93.139366 312.70273 93.139366Q313.26523 93.139366 313.65585 92.90499Q314.0621 92.670616 314.3746 92.27999L315.03085 92.795616Q314.23398 94.02999 312.64023 94.02999ZM312.4996 88.34249Q311.84335 88.34249 311.39023 88.826866Q310.95273 89.295616 310.85898 90.15499L314.03085 90.15499L314.03085 90.076866Q313.98398 89.24874 313.57773 88.795616Q313.1871 88.34249 312.4996 88.34249ZM319.92148 93.90499Q319.82773 93.71749 319.76523 93.233116Q319.01523 94.02999 317.96835 94.02999Q317.03085 94.02999 316.42148 93.49874Q315.82773 92.96749 315.82773 92.139366Q315.82773 91.15499 316.57773 90.608116Q317.32773 90.06124 318.70273 90.06124L319.7496 90.06124L319.7496 89.56124Q319.7496 88.99874 319.40585 88.670616Q319.07773 88.326866 318.40585 88.326866Q317.82773 88.326866 317.4371 88.62374Q317.04648 88.90499 317.04648 89.326866L315.95273 89.326866Q315.95273 88.84249 316.28085 88.40499Q316.6246 87.96749 317.20273 87.71749Q317.78085 87.451866 318.46835 87.451866Q319.57773 87.451866 320.1871 87.99874Q320.8121 88.545616 320.84335 89.49874L320.84335 92.420616Q320.84335 93.295616 321.0621 93.81124L321.0621 93.90499L319.92148 93.90499ZM318.1246 93.076866Q318.64023 93.076866 319.09335 92.81124Q319.54648 92.545616 319.7496 92.12374L319.7496 90.826866L318.90585 90.826866Q316.90585 90.826866 316.90585 91.99874Q316.90585 92.49874 317.2496 92.795616Q317.59335 93.076866 318.1246 93.076866ZM324.03085 87.56124L324.0621 88.358116Q324.79648 87.451866 325.96835 87.451866Q327.98398 87.451866 327.9996 89.71749L327.9996 93.90499L326.90585 93.90499L326.90585 89.701866Q326.90585 89.02999 326.59335 88.701866Q326.29648 88.37374 325.64023 88.37374Q325.10898 88.37374 324.70273 88.65499Q324.3121 88.93624 324.09335 89.389366L324.09335 93.90499L323.01523 93.90499L323.01523 87.56124L324.03085 87.56124Z" fill-rule="nonzero"></path><path fill="#000000" d="M228.92188 349.45L228.92188 340.85626L230.07812 340.85626L234.59375 347.60626L234.59375 340.85626L235.6875 340.85626L235.6875 349.45L234.51562 349.45L230.0 342.7L230.0 349.45L228.92188 349.45ZM241.875 349.45L241.875 348.52814Q241.14062 349.59064 239.89062 349.59064Q239.34375 349.59064 238.85938 349.3875Q238.39062 349.16876 238.15625 348.85626Q237.92188 348.52814 237.82812 348.0594Q237.76562 347.7625 237.76562 347.075L237.76562 343.23126L238.82812 343.23126L238.82812 346.6844Q238.82812 347.4969 238.89062 347.79376Q238.98438 348.2 239.29688 348.45Q239.625 348.6844 240.10938 348.6844Q240.57812 348.6844 240.98438 348.45Q241.40625 348.2 241.57812 347.77814Q241.76562 347.35626 241.76562 346.5594L241.76562 343.23126L242.8125 343.23126L242.8125 349.45L241.875 349.45ZM244.79688 349.45L244.79688 343.23126L245.73438 343.23126L245.73438 344.10626Q246.03125 343.6375 246.51562 343.3719Q247.0 343.09064 247.625 343.09064Q248.3125 343.09064 248.75 343.3719Q249.20312 343.65314 249.375 344.16876Q250.125 343.09064 251.29688 343.09064Q252.23438 343.09064 252.71875 343.60626Q253.21875 344.10626 253.21875 345.1844L253.21875 349.45L252.17188 349.45L252.17188 345.52814Q252.17188 344.90314 252.0625 344.6219Q251.96875 344.34064 251.70312 344.16876Q251.4375 343.9969 251.0625 343.9969Q250.40625 343.9969 249.96875 344.4344Q249.54688 344.8719 249.54688 345.84064L249.54688 349.45L248.48438 349.45L248.48438 345.40314Q248.48438 344.7 248.21875 344.35626Q247.96875 343.9969 247.39062 343.9969Q246.9375 343.9969 246.5625 344.23126Q246.1875 344.46564 246.01562 344.91876Q245.84375 345.3719 245.84375 346.21564L245.84375 349.45L244.79688 349.45ZM255.76562 349.45L254.78125 349.45L254.78125 340.85626L255.84375 340.85626L255.84375 343.91876Q256.51562 343.09064 257.54688 343.09064Q258.125 343.09064 258.625 343.325Q259.14062 343.54376 259.46875 343.96564Q259.8125 344.3875 260.0 344.98126Q260.1875 345.575 260.1875 346.2469Q260.1875 347.84064 259.39062 348.71564Q258.59375 349.59064 257.5 349.59064Q256.39062 349.59064 255.76562 348.66876L255.76562 349.45ZM255.75 346.29376Q255.75 347.40314 256.0625 347.90314Q256.5625 348.71564 257.40625 348.71564Q258.09375 348.71564 258.59375 348.1219Q259.10938 347.52814 259.10938 346.325Q259.10938 345.10626 258.625 344.52814Q258.14062 343.95 257.45312 343.95Q256.76562 343.95 256.25 344.5594Q255.75 345.15314 255.75 346.29376ZM266.04688 347.45L267.14062 347.575Q266.89062 348.52814 266.1875 349.0594Q265.48438 349.59064 264.40625 349.59064Q263.04688 349.59064 262.23438 348.7469Q261.4375 347.90314 261.4375 346.3875Q261.4375 344.825 262.25 343.96564Q263.0625 343.09064 264.34375 343.09064Q265.59375 343.09064 266.375 343.9344Q267.17188 344.77814 267.17188 346.325Q267.17188 346.41876 267.17188 346.60626L262.53125 346.60626Q262.59375 347.6375 263.10938 348.1844Q263.625 348.71564 264.40625 348.71564Q264.98438 348.71564 265.39062 348.41876Q265.8125 348.10626 266.04688 347.45ZM262.59375 345.7469L266.0625 345.7469Q266.0 344.95 265.67188 344.5594Q265.15625 343.95 264.35938 343.95Q263.625 343.95 263.125 344.4344Q262.64062 344.91876 262.59375 345.7469ZM268.78125 349.45L268.78125 343.23126L269.73438 343.23126L269.73438 344.16876Q270.09375 343.5125 270.39062 343.3094Q270.70312 343.09064 271.07812 343.09064Q271.60938 343.09064 272.15625 343.41876L271.79688 344.40314Q271.40625 344.16876 271.03125 344.16876Q270.67188 344.16876 270.39062 344.3875Q270.125 344.59064 270.01562 344.96564Q269.82812 345.52814 269.82812 346.1844L269.82812 349.45L268.78125 349.45ZM275.40625 346.34064Q275.40625 344.60626 276.35938 343.77814Q277.15625 343.09064 278.3125 343.09064Q279.59375 343.09064 280.40625 343.9344Q281.23438 344.7625 281.23438 346.2469Q281.23438 347.45 280.875 348.1375Q280.51562 348.825 279.8125 349.21564Q279.125 349.59064 278.3125 349.59064Q277.01562 349.59064 276.20312 348.7625Q275.40625 347.91876 275.40625 346.34064ZM276.48438 346.34064Q276.48438 347.52814 277.0 348.1219Q277.53125 348.71564 278.3125 348.71564Q279.10938 348.71564 279.625 348.1219Q280.14062 347.52814 280.14062 346.3094Q280.14062 345.15314 279.60938 344.5594Q279.09375 343.96564 278.3125 343.96564Q277.53125 343.96564 277.0 344.5594Q276.48438 345.1375 276.48438 346.34064ZM283.04688 349.45L283.04688 344.04376L282.10938 344.04376L282.10938 343.23126L283.04688 343.23126L283.04688 342.5594Q283.04688 341.9344 283.15625 341.6375Q283.3125 341.21564 283.6875 340.96564Q284.07812 340.71564 284.76562 340.71564Q285.21875 340.71564 285.75 340.825L285.59375 341.73126Q285.26562 341.6844 284.96875 341.6844Q284.48438 341.6844 284.28125 341.8875Q284.09375 342.09064 284.09375 342.65314L284.09375 343.23126L285.3125 343.23126L285.3125 344.04376L284.09375 344.04376L284.09375 349.45L283.04688 349.45ZM289.76562 349.45L288.78125 349.45L288.78125 340.85626L289.84375 340.85626L289.84375 343.91876Q290.51562 343.09064 291.54688 343.09064Q292.125 343.09064 292.625 343.325Q293.14062 343.54376 293.46875 343.96564Q293.8125 344.3875 294.0 344.98126Q294.1875 345.575 294.1875 346.2469Q294.1875 347.84064 293.39062 348.71564Q292.59375 349.59064 291.5 349.59064Q290.39062 349.59064 289.76562 348.66876L289.76562 349.45ZM289.75 346.29376Q289.75 347.40314 290.0625 347.90314Q290.5625 348.71564 291.40625 348.71564Q292.09375 348.71564 292.59375 348.1219Q293.10938 347.52814 293.10938 346.325Q293.10938 345.10626 292.625 344.52814Q292.14062 343.95 291.45312 343.95Q290.76562 343.95 290.25 344.5594Q289.75 345.15314 289.75 346.29376ZM295.40625 346.34064Q295.40625 344.60626 296.35938 343.77814Q297.15625 343.09064 298.3125 343.09064Q299.59375 343.09064 300.40625 343.9344Q301.23438 344.7625 301.23438 346.2469Q301.23438 347.45 300.875 348.1375Q300.51562 348.825 299.8125 349.21564Q299.125 349.59064 298.3125 349.59064Q297.01562 349.59064 296.20312 348.7625Q295.40625 347.91876 295.40625 346.34064ZM296.48438 346.34064Q296.48438 347.52814 297.0 348.1219Q297.53125 348.71564 298.3125 348.71564Q299.10938 348.71564 299.625 348.1219Q300.14062 347.52814 300.14062 346.3094Q300.14062 345.15314 299.60938 344.5594Q299.09375 343.96564 298.3125 343.96564Q297.53125 343.96564 297.0 344.5594Q296.48438 345.1375 296.48438 346.34064ZM302.40625 346.34064Q302.40625 344.60626 303.35938 343.77814Q304.15625 343.09064 305.3125 343.09064Q306.59375 343.09064 307.40625 343.9344Q308.23438 344.7625 308.23438 346.2469Q308.23438 347.45 307.875 348.1375Q307.51562 348.825 306.8125 349.21564Q306.125 349.59064 305.3125 349.59064Q304.01562 349.59064 303.20312 348.7625Q302.40625 347.91876 302.40625 346.34064ZM303.48438 346.34064Q303.48438 347.52814 304.0 348.1219Q304.53125 348.71564 305.3125 348.71564Q306.10938 348.71564 306.625 348.1219Q307.14062 347.52814 307.14062 346.3094Q307.14062 345.15314 306.60938 344.5594Q306.09375 343.96564 305.3125 343.96564Q304.53125 343.96564 304.0 344.5594Q303.48438 345.1375 303.48438 346.34064ZM309.79688 349.45L309.79688 340.85626L310.85938 340.85626L310.85938 345.7625L313.34375 343.23126L314.71875 343.23126L312.32812 345.52814L314.95312 349.45L313.65625 349.45L311.59375 346.2625L310.85938 346.98126L310.85938 349.45L309.79688 349.45ZM315.375 347.59064L316.40625 347.4344Q316.5 348.0594 316.89062 348.3875Q317.29688 348.71564 318.03125 348.71564Q318.75 348.71564 319.09375 348.4344Q319.45312 348.1375 319.45312 347.73126Q319.45312 347.3719 319.14062 347.16876Q318.92188 347.02814 318.0625 346.8094Q316.90625 346.5125 316.45312 346.3094Q316.01562 346.09064 315.78125 345.71564Q315.54688 345.34064 315.54688 344.8719Q315.54688 344.46564 315.73438 344.10626Q315.92188 343.7469 316.25 343.5125Q316.5 343.34064 316.92188 343.21564Q317.34375 343.09064 317.84375 343.09064Q318.5625 343.09064 319.10938 343.3094Q319.67188 343.5125 319.9375 343.8719Q320.20312 344.23126 320.29688 344.825L319.26562 344.96564Q319.20312 344.4969 318.85938 344.23126Q318.53125 343.95 317.90625 343.95Q317.1875 343.95 316.875 344.2Q316.5625 344.4344 316.5625 344.7625Q316.5625 344.96564 316.6875 345.1219Q316.82812 345.29376 317.09375 345.40314Q317.25 345.46564 318.03125 345.66876Q319.15625 345.98126 319.59375 346.16876Q320.03125 346.35626 320.28125 346.71564Q320.53125 347.075 320.53125 347.6219Q320.53125 348.15314 320.21875 348.6219Q319.92188 349.075 319.34375 349.34064Q318.76562 349.59064 318.03125 349.59064Q316.8125 349.59064 316.17188 349.09064Q315.54688 348.575 315.375 347.59064ZM324.78125 349.45L324.78125 343.23126L325.73438 343.23126L325.73438 344.16876Q326.09375 343.5125 326.39062 343.3094Q326.70312 343.09064 327.07812 343.09064Q327.60938 343.09064 328.15625 343.41876L327.79688 344.40314Q327.40625 344.16876 327.03125 344.16876Q326.67188 344.16876 326.39062 344.3875Q326.125 344.59064 326.01562 344.96564Q325.82812 345.52814 325.82812 346.1844L325.82812 349.45L324.78125 349.45ZM333.04688 347.45L334.14062 347.575Q333.89062 348.52814 333.1875 349.0594Q332.48438 349.59064 331.40625 349.59064Q330.04688 349.59064 329.23438 348.7469Q328.4375 347.90314 328.4375 346.3875Q328.4375 344.825 329.25 343.96564Q330.0625 343.09064 331.34375 343.09064Q332.59375 343.09064 333.375 343.9344Q334.17188 344.77814 334.17188 346.325Q334.17188 346.41876 334.17188 346.60626L329.53125 346.60626Q329.59375 347.6375 330.10938 348.1844Q330.625 348.71564 331.40625 348.71564Q331.98438 348.71564 332.39062 348.41876Q332.8125 348.10626 333.04688 347.45ZM329.59375 345.7469L333.0625 345.7469Q333.0 344.95 332.67188 344.5594Q332.15625 343.95 331.35938 343.95Q330.625 343.95 330.125 344.4344Q329.64062 344.91876 329.59375 345.7469ZM339.85938 348.6844Q339.26562 349.1844 338.71875 349.3875Q338.1875 349.59064 337.5625 349.59064Q336.53125 349.59064 335.98438 349.09064Q335.4375 348.59064 335.4375 347.8094Q335.4375 347.35626 335.64062 346.98126Q335.84375 346.59064 336.1875 346.3719Q336.53125 346.1375 336.95312 346.02814Q337.25 345.9344 337.89062 345.85626Q339.15625 345.71564 339.76562 345.4969Q339.76562 345.27814 339.76562 345.23126Q339.76562 344.575 339.46875 344.3094Q339.0625 343.96564 338.26562 343.96564Q337.53125 343.96564 337.17188 344.23126Q336.8125 344.48126 336.64062 345.1375L335.60938 344.9969Q335.75 344.34064 336.07812 343.9344Q336.40625 343.52814 337.01562 343.3094Q337.625 343.09064 338.42188 343.09064Q339.21875 343.09064 339.71875 343.27814Q340.21875 343.46564 340.45312 343.7469Q340.6875 344.02814 340.78125 344.46564Q340.82812 344.73126 340.82812 345.4344L340.82812 346.84064Q340.82812 348.3094 340.89062 348.7Q340.96875 349.09064 341.17188 349.45L340.0625 349.45Q339.90625 349.1219 339.85938 348.6844ZM339.76562 346.325Q339.1875 346.5594 338.04688 346.73126Q337.39062 346.825 337.125 346.95Q336.85938 347.0594 336.70312 347.27814Q336.5625 347.4969 336.5625 347.77814Q336.5625 348.2 336.875 348.48126Q337.20312 348.7625 337.8125 348.7625Q338.42188 348.7625 338.89062 348.4969Q339.375 348.23126 339.59375 347.7625Q339.76562 347.40314 339.76562 346.71564L339.76562 346.325ZM346.82812 349.45L346.82812 348.66876Q346.23438 349.59064 345.09375 349.59064Q344.34375 349.59064 343.71875 349.1844Q343.09375 348.7625 342.75 348.02814Q342.40625 347.29376 342.40625 346.34064Q342.40625 345.41876 342.71875 344.65314Q343.03125 343.8875 343.65625 343.4969Q344.28125 343.09064 345.04688 343.09064Q345.60938 343.09064 346.04688 343.325Q346.48438 343.5594 346.76562 343.9344L346.76562 340.85626L347.8125 340.85626L347.8125 349.45L346.82812 349.45ZM343.5 346.34064Q343.5 347.54376 344.0 348.1375Q344.5 348.71564 345.1875 348.71564Q345.875 348.71564 346.35938 348.15314Q346.84375 347.59064 346.84375 346.4344Q346.84375 345.15314 346.34375 344.5594Q345.85938 343.96564 345.14062 343.96564Q344.4375 343.96564 343.96875 344.54376Q343.5 345.10626 343.5 346.34064ZM352.79688 342.075L352.79688 340.85626L353.85938 340.85626L353.85938 342.075L352.79688 342.075ZM352.79688 349.45L352.79688 343.23126L353.85938 343.23126L353.85938 349.45L352.79688 349.45ZM355.79688 349.45L355.79688 343.23126L356.73438 343.23126L356.73438 344.10626Q357.42188 343.09064 358.71875 343.09064Q359.28125 343.09064 359.75 343.29376Q360.23438 343.4969 360.46875 343.825Q360.70312 344.15314 360.79688 344.59064Q360.84375 344.8875 360.84375 345.6219L360.84375 349.45L359.79688 349.45L359.79688 345.66876Q359.79688 345.0125 359.67188 344.7Q359.54688 344.3875 359.23438 344.2Q358.92188 343.9969 358.5 343.9969Q357.82812 343.9969 357.32812 344.4344Q356.84375 344.85626 356.84375 346.04376L356.84375 349.45L355.79688 349.45ZM368.09375 348.5125L368.25 349.4344Q367.79688 349.52814 367.45312 349.52814Q366.875 349.52814 366.5625 349.35626Q366.25 349.16876 366.10938 348.8719Q365.98438 348.575 365.98438 347.6219L365.98438 344.04376L365.21875 344.04376L365.21875 343.23126L365.98438 343.23126L365.98438 341.6844L367.03125 341.0594L367.03125 343.23126L368.09375 343.23126L368.09375 344.04376L367.03125 344.04376L367.03125 347.6844Q367.03125 348.1375 367.07812 348.2625Q367.14062 348.3875 367.26562 348.46564Q367.39062 348.54376 367.625 348.54376Q367.8125 348.54376 368.09375 348.5125ZM368.79688 349.45L368.79688 340.85626L369.84375 340.85626L369.84375 343.9344Q370.57812 343.09064 371.70312 343.09064Q372.40625 343.09064 372.90625 343.3719Q373.42188 343.6375 373.64062 344.1219Q373.85938 344.59064 373.85938 345.5125L373.85938 349.45L372.8125 349.45L372.8125 345.5125Q372.8125 344.71564 372.46875 344.35626Q372.125 343.9969 371.5 343.9969Q371.03125 343.9969 370.60938 344.2469Q370.20312 344.48126 370.01562 344.90314Q369.84375 345.3094 369.84375 346.04376L369.84375 349.45L368.79688 349.45ZM380.04688 347.45L381.14062 347.575Q380.89062 348.52814 380.1875 349.0594Q379.48438 349.59064 378.40625 349.59064Q377.04688 349.59064 376.23438 348.7469Q375.4375 347.90314 375.4375 346.3875Q375.4375 344.825 376.25 343.96564Q377.0625 343.09064 378.34375 343.09064Q379.59375 343.09064 380.375 343.9344Q381.17188 344.77814 381.17188 346.325Q381.17188 346.41876 381.17188 346.60626L376.53125 346.60626Q376.59375 347.6375 377.10938 348.1844Q377.625 348.71564 378.40625 348.71564Q378.98438 348.71564 379.39062 348.41876Q379.8125 348.10626 380.04688 347.45ZM376.59375 345.7469L380.0625 345.7469Q380.0 344.95 379.67188 344.5594Q379.15625 343.95 378.35938 343.95Q377.625 343.95 377.125 344.4344Q376.64062 344.91876 376.59375 345.7469ZM385.76562 349.45L385.76562 340.85626L386.82812 340.85626L386.82812 349.45L385.76562 349.45ZM392.85938 348.6844Q392.26562 349.1844 391.71875 349.3875Q391.1875 349.59064 390.5625 349.59064Q389.53125 349.59064 388.98438 349.09064Q388.4375 348.59064 388.4375 347.8094Q388.4375 347.35626 388.64062 346.98126Q388.84375 346.59064 389.1875 346.3719Q389.53125 346.1375 389.95312 346.02814Q390.25 345.9344 390.89062 345.85626Q392.15625 345.71564 392.76562 345.4969Q392.76562 345.27814 392.76562 345.23126Q392.76562 344.575 392.46875 344.3094Q392.0625 343.96564 391.26562 343.96564Q390.53125 343.96564 390.17188 344.23126Q389.8125 344.48126 389.64062 345.1375L388.60938 344.9969Q388.75 344.34064 389.07812 343.9344Q389.40625 343.52814 390.01562 343.3094Q390.625 343.09064 391.42188 343.09064Q392.21875 343.09064 392.71875 343.27814Q393.21875 343.46564 393.45312 343.7469Q393.6875 344.02814 393.78125 344.46564Q393.82812 344.73126 393.82812 345.4344L393.82812 346.84064Q393.82812 348.3094 393.89062 348.7Q393.96875 349.09064 394.17188 349.45L393.0625 349.45Q392.90625 349.1219 392.85938 348.6844ZM392.76562 346.325Q392.1875 346.5594 391.04688 346.73126Q390.39062 346.825 390.125 346.95Q389.85938 347.0594 389.70312 347.27814Q389.5625 347.4969 389.5625 347.77814Q389.5625 348.2 389.875 348.48126Q390.20312 348.7625 390.8125 348.7625Q391.42188 348.7625 391.89062 348.4969Q392.375 348.23126 392.59375 347.7625Q392.76562 347.40314 392.76562 346.71564L392.76562 346.325ZM395.375 347.59064L396.40625 347.4344Q396.5 348.0594 396.89062 348.3875Q397.29688 348.71564 398.03125 348.71564Q398.75 348.71564 399.09375 348.4344Q399.45312 348.1375 399.45312 347.73126Q399.45312 347.3719 399.14062 347.16876Q398.92188 347.02814 398.0625 346.8094Q396.90625 346.5125 396.45312 346.3094Q396.01562 346.09064 395.78125 345.71564Q395.54688 345.34064 395.54688 344.8719Q395.54688 344.46564 395.73438 344.10626Q395.92188 343.7469 396.25 343.5125Q396.5 343.34064 396.92188 343.21564Q397.34375 343.09064 397.84375 343.09064Q398.5625 343.09064 399.10938 343.3094Q399.67188 343.5125 399.9375 343.8719Q400.20312 344.23126 400.29688 344.825L399.26562 344.96564Q399.20312 344.4969 398.85938 344.23126Q398.53125 343.95 397.90625 343.95Q397.1875 343.95 396.875 344.2Q396.5625 344.4344 396.5625 344.7625Q396.5625 344.96564 396.6875 345.1219Q396.82812 345.29376 397.09375 345.40314Q397.25 345.46564 398.03125 345.66876Q399.15625 345.98126 399.59375 346.16876Q400.03125 346.35626 400.28125 346.71564Q400.53125 347.075 400.53125 347.6219Q400.53125 348.15314 400.21875 348.6219Q399.92188 349.075 399.34375 349.34064Q398.76562 349.59064 398.03125 349.59064Q396.8125 349.59064 396.17188 349.09064Q395.54688 348.575 395.375 347.59064ZM404.09375 348.5125L404.25 349.4344Q403.79688 349.52814 403.45312 349.52814Q402.875 349.52814 402.5625 349.35626Q402.25 349.16876 402.10938 348.8719Q401.98438 348.575 401.98438 347.6219L401.98438 344.04376L401.21875 344.04376L401.21875 343.23126L401.98438 343.23126L401.98438 341.6844L403.03125 341.0594L403.03125 343.23126L404.09375 343.23126L404.09375 344.04376L403.03125 344.04376L403.03125 347.6844Q403.03125 348.1375 403.07812 348.2625Q403.14062 348.3875 403.26562 348.46564Q403.39062 348.54376 403.625 348.54376Q403.8125 348.54376 404.09375 348.5125ZM407.75 351.84064L407.625 350.85626Q407.96875 350.95 408.23438 350.95Q408.57812 350.95 408.78125 350.825Q409.0 350.71564 409.14062 350.5125Q409.23438 350.34064 409.46875 349.71564Q409.48438 349.6375 409.5625 349.46564L407.1875 343.23126L408.32812 343.23126L409.625 346.825Q409.875 347.5125 410.07812 348.27814Q410.26562 347.54376 410.51562 346.85626L411.84375 343.23126L412.89062 343.23126L410.53125 349.5594Q410.14062 350.575 409.9375 350.96564Q409.65625 351.4969 409.28125 351.73126Q408.92188 351.98126 408.42188 351.98126Q408.125 351.98126 407.75 351.84064ZM418.04688 347.45L419.14062 347.575Q418.89062 348.52814 418.1875 349.0594Q417.48438 349.59064 416.40625 349.59064Q415.04688 349.59064 414.23438 348.7469Q413.4375 347.90314 413.4375 346.3875Q413.4375 344.825 414.25 343.96564Q415.0625 343.09064 416.34375 343.09064Q417.59375 343.09064 418.375 343.9344Q419.17188 344.77814 419.17188 346.325Q419.17188 346.41876 419.17188 346.60626L414.53125 346.60626Q414.59375 347.6375 415.10938 348.1844Q415.625 348.71564 416.40625 348.71564Q416.98438 348.71564 417.39062 348.41876Q417.8125 348.10626 418.04688 347.45ZM414.59375 345.7469L418.0625 345.7469Q418.0 344.95 417.67188 344.5594Q417.15625 343.95 416.35938 343.95Q415.625 343.95 415.125 344.4344Q414.64062 344.91876 414.59375 345.7469ZM424.85938 348.6844Q424.26562 349.1844 423.71875 349.3875Q423.1875 349.59064 422.5625 349.59064Q421.53125 349.59064 420.98438 349.09064Q420.4375 348.59064 420.4375 347.8094Q420.4375 347.35626 420.64062 346.98126Q420.84375 346.59064 421.1875 346.3719Q421.53125 346.1375 421.95312 346.02814Q422.25 345.9344 422.89062 345.85626Q424.15625 345.71564 424.76562 345.4969Q424.76562 345.27814 424.76562 345.23126Q424.76562 344.575 424.46875 344.3094Q424.0625 343.96564 423.26562 343.96564Q422.53125 343.96564 422.17188 344.23126Q421.8125 344.48126 421.64062 345.1375L420.60938 344.9969Q420.75 344.34064 421.07812 343.9344Q421.40625 343.52814 422.01562 343.3094Q422.625 343.09064 423.42188 343.09064Q424.21875 343.09064 424.71875 343.27814Q425.21875 343.46564 425.45312 343.7469Q425.6875 344.02814 425.78125 344.46564Q425.82812 344.73126 425.82812 345.4344L425.82812 346.84064Q425.82812 348.3094 425.89062 348.7Q425.96875 349.09064 426.17188 349.45L425.0625 349.45Q424.90625 349.1219 424.85938 348.6844ZM424.76562 346.325Q424.1875 346.5594 423.04688 346.73126Q422.39062 346.825 422.125 346.95Q421.85938 347.0594 421.70312 347.27814Q421.5625 347.4969 421.5625 347.77814Q421.5625 348.2 421.875 348.48126Q422.20312 348.7625 422.8125 348.7625Q423.42188 348.7625 423.89062 348.4969Q424.375 348.23126 424.59375 347.7625Q424.76562 347.40314 424.76562 346.71564L424.76562 346.325ZM427.78125 349.45L427.78125 343.23126L428.73438 343.23126L428.73438 344.16876Q429.09375 343.5125 429.39062 343.3094Q429.70312 343.09064 430.07812 343.09064Q430.60938 343.09064 431.15625 343.41876L430.79688 344.40314Q430.40625 344.16876 430.03125 344.16876Q429.67188 344.16876 429.39062 344.3875Q429.125 344.59064 429.01562 344.96564Q428.82812 345.52814 428.82812 346.1844L428.82812 349.45L427.78125 349.45Z" fill-rule="nonzero"></path><path fill="#000000" d="M29.550013 197.51562L20.956263 197.51562L20.956263 191.71875L21.971888 191.71875L21.971888 196.375L24.628138 196.375L24.628138 192.34375L25.643763 192.34375L25.643763 196.375L29.550013 196.375L29.550013 197.51562ZM29.550013 190.71875L23.331263 190.71875L23.331263 189.76562L24.268763 189.76562Q23.612513 189.40625 23.409388 189.10938Q23.190638 188.79688 23.190638 188.42188Q23.190638 187.89062 23.518763 187.34375L24.503138 187.70312Q24.268763 188.09375 24.268763 188.46875Q24.268763 188.82812 24.487513 189.10938Q24.690638 189.375 25.065638 189.48438Q25.628138 189.67188 26.284388 189.67188L29.550013 189.67188L29.550013 190.71875ZM27.550013 182.45312L27.675013 181.35938Q28.628138 181.60938 29.159388 182.3125Q29.690638 183.01562 29.690638 184.09375Q29.690638 185.45312 28.846888 186.26562Q28.003138 187.0625 26.487513 187.0625Q24.925013 187.0625 24.065638 186.25Q23.190638 185.4375 23.190638 184.15625Q23.190638 182.90625 24.034388 182.125Q24.878138 181.32812 26.425013 181.32812Q26.518763 181.32812 26.706263 181.32812L26.706263 185.96875Q27.737513 185.90625 28.284388 185.39062Q28.815638 184.875 28.815638 184.09375Q28.815638 183.51562 28.518763 183.10938Q28.206263 182.6875 27.550013 182.45312ZM25.846888 185.90625L25.846888 182.4375Q25.050013 182.5 24.659388 182.82812Q24.050013 183.34375 24.050013 184.14062Q24.050013 184.875 24.534388 185.375Q25.018763 185.85938 25.846888 185.90625ZM31.940638 175.73438L28.893763 175.73438Q29.237513 175.98438 29.471888 176.4375Q29.690638 176.875 29.690638 177.375Q29.690638 178.48438 28.815638 179.28125Q27.925013 180.07812 26.378138 180.07812Q25.440638 180.07812 24.706263 179.75Q23.956263 179.42188 23.581263 178.8125Q23.190638 178.1875 23.190638 177.45312Q23.190638 176.29688 24.159388 175.64062L23.331263 175.64062L23.331263 174.6875L31.940638 174.6875L31.940638 175.73438ZM26.425013 179.0Q27.628138 179.0 28.221888 178.5Q28.815638 177.98438 28.815638 177.28125Q28.815638 176.60938 28.253138 176.125Q27.675013 175.64062 26.518763 175.64062Q25.268763 175.64062 24.643763 176.15625Q24.018763 176.65625 24.018763 177.35938Q24.018763 178.03125 24.612513 178.51562Q25.190638 179.0 26.425013 179.0ZM29.550013 168.625L28.628138 168.625Q29.690638 169.35938 29.690638 170.60938Q29.690638 171.15625 29.487513 171.64062Q29.268763 172.10938 28.956263 172.34375Q28.628138 172.57812 28.159388 172.67188Q27.862513 172.73438 27.175013 172.73438L23.331263 172.73438L23.331263 171.67188L26.784388 171.67188Q27.596888 171.67188 27.893763 171.60938Q28.300013 171.51562 28.550013 171.20312Q28.784388 170.875 28.784388 170.39062Q28.784388 169.92188 28.550013 169.51562Q28.300013 169.09375 27.878138 168.92188Q27.456263 168.73438 26.659388 168.73438L23.331263 168.73438L23.331263 167.6875L29.550013 167.6875L29.550013 168.625ZM27.550013 161.45312L27.675013 160.35938Q28.628138 160.60938 29.159388 161.3125Q29.690638 162.01562 29.690638 163.09375Q29.690638 164.45312 28.846888 165.26562Q28.003138 166.0625 26.487513 166.0625Q24.925013 166.0625 24.065638 165.25Q23.190638 164.4375 23.190638 163.15625Q23.190638 161.90625 24.034388 161.125Q24.878138 160.32812 26.425013 160.32812Q26.518763 160.32812 26.706263 160.32812L26.706263 164.96875Q27.737513 164.90625 28.284388 164.39062Q28.815638 163.875 28.815638 163.09375Q28.815638 162.51562 28.518763 162.10938Q28.206263 161.6875 27.550013 161.45312ZM25.846888 164.90625L25.846888 161.4375Q25.050013 161.5 24.659388 161.82812Q24.050013 162.34375 24.050013 163.14062Q24.050013 163.875 24.534388 164.375Q25.018763 164.85938 25.846888 164.90625ZM29.550013 158.70312L23.331263 158.70312L23.331263 157.76562L24.206263 157.76562Q23.190638 157.07812 23.190638 155.78125Q23.190638 155.21875 23.393763 154.75Q23.596888 154.26562 23.925013 154.03125Q24.253138 153.79688 24.690638 153.70312Q24.987513 153.65625 25.721888 153.65625L29.550013 153.65625L29.550013 154.70312L25.768763 154.70312Q25.112513 154.70312 24.800013 154.82812Q24.487513 154.95312 24.300013 155.26562Q24.096888 155.57812 24.096888 156.0Q24.096888 156.67188 24.534388 157.17188Q24.956263 157.65625 26.143763 157.65625L29.550013 157.65625L29.550013 158.70312ZM27.268763 147.64062L27.409388 146.60938Q28.471888 146.78125 29.081263 147.48438Q29.690638 148.1875 29.690638 149.20312Q29.690638 150.48438 28.862513 151.26562Q28.018763 152.03125 26.456263 152.03125Q25.456263 152.03125 24.706263 151.70312Q23.940638 151.35938 23.565638 150.6875Q23.190638 150.0 23.190638 149.1875Q23.190638 148.1875 23.706263 147.54688Q24.206263 146.89062 25.159388 146.70312L25.315638 147.73438Q24.690638 147.875 24.378138 148.25Q24.050013 148.625 24.050013 149.15625Q24.050013 149.95312 24.628138 150.45312Q25.190638 150.95312 26.425013 150.95312Q27.690638 150.95312 28.253138 150.46875Q28.815638 149.98438 28.815638 149.21875Q28.815638 148.59375 28.440638 148.1875Q28.065638 147.76562 27.268763 147.64062ZM31.940638 145.75L30.956263 145.875Q31.050013 145.53125 31.050013 145.26562Q31.050013 144.92188 30.925013 144.71875Q30.815638 144.5 30.612513 144.35938Q30.440638 144.26562 29.815638 144.03125Q29.737513 144.01562 29.565638 143.9375L23.331263 146.3125L23.331263 145.17188L26.925013 143.875Q27.612513 143.625 28.378138 143.42188Q27.643763 143.23438 26.956263 142.98438L23.331263 141.65625L23.331263 140.60938L29.659388 142.96875Q30.675013 143.35938 31.065638 143.5625Q31.596888 143.84375 31.831263 144.21875Q32.08126 144.57812 32.08126 145.07812Q32.08126 145.375 31.940638 145.75Z" fill-rule="nonzero"></path><path fill="#000000" d="M65.05 300.21564Q65.05 298.6844 65.3625 297.7625Q65.675 296.825 66.28438 296.325Q66.90938 295.825 67.84688 295.825Q68.53438 295.825 69.05 296.10626Q69.58125 296.3875 69.925 296.91876Q70.26875 297.4344 70.45625 298.1844Q70.64375 298.9344 70.64375 300.21564Q70.64375 301.73126 70.33125 302.65314Q70.03438 303.575 69.40938 304.09064Q68.8 304.59064 67.84688 304.59064Q66.6125 304.59064 65.89375 303.7Q65.05 302.6375 65.05 300.21564ZM66.12813 300.21564Q66.12813 302.325 66.62813 303.02814Q67.12813 303.73126 67.84688 303.73126Q68.58125 303.73126 69.06563 303.02814Q69.56563 302.325 69.56563 300.21564Q69.56563 298.09064 69.06563 297.40314Q68.58125 296.7 67.83125 296.7Q67.1125 296.7 66.675 297.3094Q66.12813 298.09064 66.12813 300.21564Z" fill-rule="nonzero"></path><path fill="#000000" d="M63.596874 211.80104L63.596874 212.81667L57.909374 212.81667Q57.909374 212.44167 58.034374 212.08229Q58.253124 211.50417 58.721874 210.94167Q59.20625 210.37917 60.1125 209.64479Q61.51875 208.48854 62.003124 207.81667Q62.503124 207.14479 62.503124 206.55104Q62.503124 205.92604 62.05 205.50417Q61.596874 205.06667 60.878124 205.06667Q60.1125 205.06667 59.659374 205.51979Q59.20625 205.97292 59.190624 206.78542L58.1125 206.67604Q58.221874 205.45729 58.940624 204.83229Q59.675 204.19167 60.909374 204.19167Q62.14375 204.19167 62.8625 204.87917Q63.58125 205.56667 63.58125 206.58229Q63.58125 207.09792 63.3625 207.59792Q63.159374 208.08229 62.659374 208.64479Q62.175 209.19167 61.05 210.14479Q60.096874 210.94167 59.815624 211.23854Q59.55 211.51979 59.378124 211.80104L63.596874 211.80104ZM65.05 210.56667L66.15938 210.47292Q66.28438 211.28542 66.72188 211.69167Q67.175 212.09792 67.81563 212.09792Q68.56563 212.09792 69.09688 211.51979Q69.62813 210.94167 69.62813 210.00417Q69.62813 209.09792 69.1125 208.58229Q68.6125 208.05104 67.78438 208.05104Q67.28438 208.05104 66.8625 208.28542Q66.45625 208.51979 66.22188 208.87917L65.2375 208.75417L66.06563 204.34792L70.34688 204.34792L70.34688 205.34792L66.90938 205.34792L66.45625 207.66042Q67.22188 207.11354 68.06563 207.11354Q69.19063 207.11354 69.95625 207.89479Q70.7375 208.67604 70.7375 209.91042Q70.7375 211.06667 70.06563 211.92604Q69.2375 212.95729 67.81563 212.95729Q66.64375 212.95729 65.89375 212.30104Q65.15938 211.64479 65.05 210.56667Z" fill-rule="nonzero"></path><path fill="#000000" d="M58.05 118.933334L59.159374 118.839584Q59.284374 119.652084 59.721874 120.058334Q60.175 120.464584 60.815624 120.464584Q61.565624 120.464584 62.096874 119.88646Q62.628124 119.308334 62.628124 118.370834Q62.628124 117.464584 62.1125 116.94896Q61.6125 116.41771 60.784374 116.41771Q60.284374 116.41771 59.8625 116.652084Q59.45625 116.88646 59.221874 117.245834L58.2375 117.120834L59.065624 112.714584L63.346874 112.714584L63.346874 113.714584L59.909374 113.714584L59.45625 116.027084Q60.221874 115.48021 61.065624 115.48021Q62.190624 115.48021 62.95625 116.26146Q63.7375 117.04271 63.7375 118.277084Q63.7375 119.433334 63.065624 120.29271Q62.2375 121.32396 60.815624 121.32396Q59.64375 121.32396 58.89375 120.66771Q58.159374 120.01146 58.05 118.933334ZM65.05 116.94896Q65.05 115.41771 65.3625 114.495834Q65.675 113.558334 66.28438 113.058334Q66.90938 112.558334 67.84688 112.558334Q68.53438 112.558334 69.05 112.839584Q69.58125 113.120834 69.925 113.652084Q70.26875 114.16771 70.45625 114.91771Q70.64375 115.66771 70.64375 116.94896Q70.64375 118.464584 70.33125 119.38646Q70.03438 120.308334 69.40938 120.82396Q68.8 121.32396 67.84688 121.32396Q66.6125 121.32396 65.89375 120.433334Q65.05 119.370834 65.05 116.94896ZM66.12813 116.94896Q66.12813 119.058334 66.62813 119.76146Q67.12813 120.464584 67.84688 120.464584Q68.58125 120.464584 69.06563 119.76146Q69.56563 119.058334 69.56563 116.94896Q69.56563 114.82396 69.06563 114.13646Q68.58125 113.433334 67.83125 113.433334Q67.1125 113.433334 66.675 114.04271Q66.12813 114.82396 66.12813 116.94896Z" fill-rule="nonzero"></path><path fill="#000000" d="M58.1125 22.08125L58.1125 21.065624L63.675 21.065624L63.675 21.89375Q62.8625 22.76875 62.05 24.221874Q61.253124 25.659374 60.815624 27.190624Q60.4875 28.26875 60.409374 29.55L59.315624 29.55Q59.33125 28.534374 59.70625 27.096874Q60.096874 25.659374 60.8 24.33125Q61.51875 23.003124 62.33125 22.08125L58.1125 22.08125ZM65.05 27.3L66.15938 27.20625Q66.28438 28.01875 66.72188 28.425Q67.175 28.83125 67.81563 28.83125Q68.56563 28.83125 69.09688 28.253124Q69.62813 27.675 69.62813 26.7375Q69.62813 25.83125 69.1125 25.315624Q68.6125 24.784374 67.78438 24.784374Q67.28438 24.784374 66.8625 25.01875Q66.45625 25.253124 66.22188 25.6125L65.2375 25.4875L66.06563 21.08125L70.34688 21.08125L70.34688 22.08125L66.90938 22.08125L66.45625 24.39375Q67.22188 23.846874 68.06563 23.846874Q69.19063 23.846874 69.95625 24.628124Q70.7375 25.409374 70.7375 26.64375Q70.7375 27.8 70.06563 28.659374Q69.2375 29.690624 67.81563 29.690624Q66.64375 29.690624 65.89375 29.034374Q65.15938 28.378124 65.05 27.3Z" fill-rule="nonzero"></path><path fill="#000000" d="M99.32196 317.45L98.275085 317.45L98.275085 310.73126Q97.88446 311.09064 97.25946 311.46564Q96.650085 311.825 96.16571 311.9969L96.16571 310.98126Q97.04071 310.5594 97.69696 309.98126Q98.368835 309.3875 98.650085 308.825L99.32196 308.825L99.32196 317.45Z" fill-rule="nonzero"></path><path fill="#000000" d="M131.71967 316.4344L131.71967 317.45L126.03216 317.45Q126.03216 317.075 126.15716 316.71564Q126.37591 316.1375 126.84466 315.575Q127.32903 315.0125 128.23529 314.27814Q129.64154 313.1219 130.12592 312.45Q130.62592 311.77814 130.62592 311.1844Q130.62592 310.5594 130.17279 310.1375Q129.71967 309.7 129.00092 309.7Q128.23529 309.7 127.78216 310.15314Q127.32903 310.60626 127.31341 311.41876L126.23528 311.3094Q126.34466 310.09064 127.06341 309.46564Q127.79778 308.825 129.03217 308.825Q130.26654 308.825 130.98529 309.5125Q131.70404 310.2 131.70404 311.21564Q131.70404 311.73126 131.48529 312.23126Q131.28217 312.71564 130.78217 313.27814Q130.29779 313.825 129.17279 314.77814Q128.21967 315.575 127.93841 315.8719Q127.67278 316.15314 127.50091 316.4344L131.71967 316.4344Z" fill-rule="nonzero"></path><path fill="#000000" d="M156.99236 315.1844L158.05486 315.04376Q158.22673 315.9344 158.66423 316.34064Q159.10173 316.73126 159.72673 316.73126Q160.47673 316.73126 160.99236 316.21564Q161.50798 315.7 161.50798 314.9344Q161.50798 314.21564 161.0236 313.7469Q160.55486 313.2625 159.82048 313.2625Q159.5236 313.2625 159.07048 313.3875L159.19548 312.45Q159.30486 312.46564 159.36736 312.46564Q160.03923 312.46564 160.57048 312.1219Q161.11736 311.7625 161.11736 311.02814Q161.11736 310.45 160.72673 310.075Q160.3361 309.6844 159.7111 309.6844Q159.10173 309.6844 158.67986 310.075Q158.2736 310.46564 158.16423 311.23126L157.10173 311.04376Q157.28923 309.9969 157.97673 309.41876Q158.66423 308.825 159.67986 308.825Q160.38298 308.825 160.97673 309.1375Q161.57048 309.4344 161.88298 309.95Q162.19548 310.46564 162.19548 311.0594Q162.19548 311.60626 161.8986 312.075Q161.60173 312.52814 161.0236 312.79376Q161.7736 312.96564 162.19548 313.52814Q162.61736 314.075 162.61736 314.91876Q162.61736 316.04376 161.78923 316.825Q160.97673 317.60626 159.72673 317.60626Q158.60173 317.60626 157.85173 316.9344Q157.10173 316.2469 156.99236 315.1844Z" fill-rule="nonzero"></path><path fill="#000000" d="M191.18692 317.45L191.18692 315.3875L187.46817 315.3875L187.46817 314.41876L191.39005 308.85626L192.24942 308.85626L192.24942 314.41876L193.40567 314.41876L193.40567 315.3875L192.24942 315.3875L192.24942 317.45L191.18692 317.45ZM191.18692 314.41876L191.18692 310.5594L188.49942 314.41876L191.18692 314.41876Z" fill-rule="nonzero"></path><path fill="#000000" d="M218.6315 315.2L219.74088 315.10626Q219.86588 315.91876 220.30338 316.325Q220.7565 316.73126 221.39713 316.73126Q222.14713 316.73126 222.67838 316.15314Q223.20963 315.575 223.20963 314.6375Q223.20963 313.73126 222.694 313.21564Q222.194 312.6844 221.36588 312.6844Q220.86588 312.6844 220.444 312.91876Q220.03775 313.15314 219.80338 313.5125L218.819 313.3875L219.64713 308.98126L223.92838 308.98126L223.92838 309.98126L220.49088 309.98126L220.03775 312.29376Q220.80338 311.7469 221.64713 311.7469Q222.77213 311.7469 223.53775 312.52814Q224.319 313.3094 224.319 314.54376Q224.319 315.7 223.64713 316.5594Q222.819 317.59064 221.39713 317.59064Q220.22525 317.59064 219.47525 316.9344Q218.74088 316.27814 218.6315 315.2Z" fill-rule="nonzero"></path><path fill="#000000" d="M254.91982 310.96564L253.87294 311.04376Q253.73232 310.41876 253.48232 310.1375Q253.04482 309.6844 252.41982 309.6844Q251.91982 309.6844 251.52919 309.96564Q251.04482 310.34064 250.74794 311.04376Q250.46669 311.73126 250.45107 313.0125Q250.82607 312.4344 251.37294 312.15314Q251.93544 311.8719 252.54482 311.8719Q253.59169 311.8719 254.32607 312.65314Q255.07607 313.4344 255.07607 314.65314Q255.07607 315.46564 254.71669 316.16876Q254.37294 316.85626 253.76357 317.23126Q253.15419 317.59064 252.38857 317.59064Q251.06044 317.59064 250.23232 316.6219Q249.40419 315.65314 249.40419 313.4344Q249.40419 310.9344 250.32607 309.8094Q251.12294 308.825 252.48232 308.825Q253.49794 308.825 254.13857 309.40314Q254.79482 309.96564 254.91982 310.96564ZM250.62294 314.66876Q250.62294 315.21564 250.84169 315.71564Q251.07607 316.2 251.48232 316.46564Q251.90419 316.73126 252.37294 316.73126Q253.02919 316.73126 253.51357 316.2Q253.99794 315.65314 253.99794 314.73126Q253.99794 313.84064 253.51357 313.325Q253.04482 312.8094 252.32607 312.8094Q251.60732 312.8094 251.10732 313.325Q250.62294 313.84064 250.62294 314.66876Z" fill-rule="nonzero"></path><path fill="#000000" d="M280.33313 309.98126L280.33313 308.96564L285.89563 308.96564L285.89563 309.79376Q285.08313 310.66876 284.27063 312.1219Q283.47375 313.5594 283.03625 315.09064Q282.70813 316.16876 282.63 317.45L281.53625 317.45Q281.55188 316.4344 281.92688 314.9969Q282.3175 313.5594 283.02063 312.23126Q283.73938 310.90314 284.55188 309.98126L280.33313 309.98126Z" fill-rule="nonzero"></path><path fill="#000000" d="M312.7152 312.79376Q312.05896 312.54376 311.73083 312.10626Q311.41833 311.65314 311.41833 311.04376Q311.41833 310.10626 312.0902 309.46564Q312.7777 308.825 313.8871 308.825Q315.0121 308.825 315.6996 309.48126Q316.3871 310.1375 316.3871 311.075Q316.3871 311.66876 316.0746 312.10626Q315.7621 312.54376 315.12146 312.79376Q315.91833 313.04376 316.3246 313.6219Q316.73083 314.2 316.73083 314.9969Q316.73083 316.09064 315.9496 316.84064Q315.18396 317.59064 313.9027 317.59064Q312.6371 317.59064 311.85583 316.84064Q311.0746 316.09064 311.0746 314.96564Q311.0746 314.1219 311.49646 313.5594Q311.93396 312.9969 312.7152 312.79376ZM312.49646 310.9969Q312.49646 311.60626 312.8871 311.9969Q313.29333 312.3875 313.91833 312.3875Q314.5277 312.3875 314.91833 312.0125Q315.30896 311.6219 315.30896 311.0594Q315.30896 310.48126 314.9027 310.09064Q314.49646 309.6844 313.9027 309.6844Q313.29333 309.6844 312.8871 310.075Q312.49646 310.46564 312.49646 310.9969ZM312.16833 314.96564Q312.16833 315.41876 312.37146 315.84064Q312.5902 316.2625 313.0121 316.4969Q313.43396 316.73126 313.91833 316.73126Q314.66833 316.73126 315.1527 316.2469Q315.6527 315.7625 315.6527 315.0125Q315.6527 314.2469 315.1527 313.7469Q314.6527 313.2469 313.8871 313.2469Q313.1371 313.2469 312.6527 313.7469Q312.16833 314.23126 312.16833 314.96564Z" fill-rule="nonzero"></path><path fill="#000000" d="M342.06604 315.46564L343.08167 315.3719Q343.20667 316.09064 343.56604 316.41876Q343.94104 316.73126 344.50354 316.73126Q344.9879 316.73126 345.3473 316.5125Q345.7223 316.27814 345.95667 315.91876Q346.19104 315.54376 346.3473 314.91876Q346.50354 314.27814 346.50354 313.6219Q346.50354 313.54376 346.50354 313.40314Q346.19104 313.90314 345.64417 314.23126Q345.0973 314.54376 344.45667 314.54376Q343.37854 314.54376 342.64417 313.77814Q341.9098 312.9969 341.9098 311.73126Q341.9098 310.41876 342.6754 309.6219Q343.45667 308.825 344.6129 308.825Q345.44104 308.825 346.12854 309.27814Q346.83167 309.73126 347.19104 310.575Q347.5504 311.40314 347.5504 312.98126Q347.5504 314.6219 347.19104 315.60626Q346.8473 316.575 346.12854 317.09064Q345.4254 317.59064 344.4879 317.59064Q343.4723 317.59064 342.83167 317.04376Q342.19104 316.48126 342.06604 315.46564ZM346.37854 311.66876Q346.37854 310.7625 345.89417 310.23126Q345.4254 309.7 344.7379 309.7Q344.0348 309.7 343.50354 310.27814Q342.9879 310.84064 342.9879 311.7625Q342.9879 312.575 343.4879 313.09064Q343.9879 313.60626 344.70667 313.60626Q345.44104 313.60626 345.9098 313.09064Q346.37854 312.575 346.37854 311.66876Z" fill-rule="nonzero"></path><path fill="#000000" d="M373.19812 317.45L372.15125 317.45L372.15125 310.73126Q371.76062 311.09064 371.13562 311.46564Q370.52625 311.825 370.04187 311.9969L370.04187 310.98126Q370.91687 310.5594 371.57312 309.98126Q372.245 309.3875 372.52625 308.825L373.19812 308.825L373.19812 317.45ZM376.22937 313.21564Q376.22937 311.6844 376.54187 310.7625Q376.85437 309.825 377.46375 309.325Q378.08875 308.825 379.02625 308.825Q379.71375 308.825 380.22937 309.10626Q380.76062 309.3875 381.10437 309.91876Q381.44812 310.4344 381.63562 311.1844Q381.82312 311.9344 381.82312 313.21564Q381.82312 314.73126 381.51062 315.65314Q381.21375 316.575 380.58875 317.09064Q379.97937 317.59064 379.02625 317.59064Q377.79187 317.59064 377.07312 316.7Q376.22937 315.6375 376.22937 313.21564ZM377.3075 313.21564Q377.3075 315.325 377.8075 316.02814Q378.3075 316.73126 379.02625 316.73126Q379.76062 316.73126 380.245 316.02814Q380.745 315.325 380.745 313.21564Q380.745 311.09064 380.245 310.40314Q379.76062 309.7 379.01062 309.7Q378.29187 309.7 377.85437 310.3094Q377.3075 311.09064 377.3075 313.21564Z" fill-rule="nonzero"></path><path fill="#000000" d="M404.01767 317.45L402.9708 317.45L402.9708 310.73126Q402.58017 311.09064 401.95517 311.46564Q401.3458 311.825 400.86142 311.9969L400.86142 310.98126Q401.73642 310.5594 402.39267 309.98126Q403.06454 309.3875 403.3458 308.825L404.01767 308.825L404.01767 317.45ZM411.01767 317.45L409.9708 317.45L409.9708 310.73126Q409.58017 311.09064 408.95517 311.46564Q408.3458 311.825 407.86142 311.9969L407.86142 310.98126Q408.73642 310.5594 409.39267 309.98126Q410.06454 309.3875 410.3458 308.825L411.01767 308.825L411.01767 317.45Z" fill-rule="nonzero"></path><path fill="#000000" d="M434.83725 317.45L433.79037 317.45L433.79037 310.73126Q433.39975 311.09064 432.77475 311.46564Q432.16537 311.825 431.681 311.9969L431.681 310.98126Q432.556 310.5594 433.21225 309.98126Q433.88412 309.3875 434.16537 308.825L434.83725 308.825L434.83725 317.45ZM443.41537 316.4344L443.41537 317.45L437.72787 317.45Q437.72787 317.075 437.85287 316.71564Q438.07162 316.1375 438.54037 315.575Q439.02475 315.0125 439.931 314.27814Q441.33725 313.1219 441.82162 312.45Q442.32162 311.77814 442.32162 311.1844Q442.32162 310.5594 441.8685 310.1375Q441.41537 309.7 440.69662 309.7Q439.931 309.7 439.47787 310.15314Q439.02475 310.60626 439.00912 311.41876L437.931 311.3094Q438.04037 310.09064 438.75912 309.46564Q439.4935 308.825 440.72787 308.825Q441.96225 308.825 442.681 309.5125Q443.39975 310.2 443.39975 311.21564Q443.39975 311.73126 443.181 312.23126Q442.97787 312.71564 442.47787 313.27814Q441.9935 313.825 440.8685 314.77814Q439.91537 315.575 439.63412 315.8719Q439.3685 316.15314 439.19662 316.4344L443.41537 316.4344Z" fill-rule="nonzero"></path><path fill="#000000" d="M465.65683 317.45L464.60995 317.45L464.60995 310.73126Q464.21933 311.09064 463.59433 311.46564Q462.98495 311.825 462.50058 311.9969L462.50058 310.98126Q463.37558 310.5594 464.03183 309.98126Q464.7037 309.3875 464.98495 308.825L465.65683 308.825L465.65683 317.45ZM468.68808 315.1844L469.75058 315.04376Q469.92245 315.9344 470.35995 316.34064Q470.79745 316.73126 471.42245 316.73126Q472.17245 316.73126 472.68808 316.21564Q473.2037 315.7 473.2037 314.9344Q473.2037 314.21564 472.71933 313.7469Q472.25058 313.2625 471.5162 313.2625Q471.21933 313.2625 470.7662 313.3875L470.8912 312.45Q471.00058 312.46564 471.06308 312.46564Q471.73495 312.46564 472.2662 312.1219Q472.81308 311.7625 472.81308 311.02814Q472.81308 310.45 472.42245 310.075Q472.03183 309.6844 471.40683 309.6844Q470.79745 309.6844 470.37558 310.075Q469.96933 310.46564 469.85995 311.23126L468.79745 311.04376Q468.98495 309.9969 469.67245 309.41876Q470.35995 308.825 471.37558 308.825Q472.0787 308.825 472.67245 309.1375Q473.2662 309.4344 473.5787 309.95Q473.8912 310.46564 473.8912 311.0594Q473.8912 311.60626 473.59433 312.075Q473.29745 312.52814 472.71933 312.79376Q473.46933 312.96564 473.8912 313.52814Q474.31308 314.075 474.31308 314.91876Q474.31308 316.04376 473.48495 316.825Q472.67245 317.60626 471.42245 317.60626Q470.29745 317.60626 469.54745 316.9344Q468.79745 316.2469 468.68808 315.1844Z" fill-rule="nonzero"></path><path fill="#000000" d="M496.4764 317.45L495.42953 317.45L495.42953 310.73126Q495.0389 311.09064 494.4139 311.46564Q493.80453 311.825 493.32016 311.9969L493.32016 310.98126Q494.19516 310.5594 494.8514 309.98126Q495.5233 309.3875 495.80453 308.825L496.4764 308.825L496.4764 317.45ZM502.88266 317.45L502.88266 315.3875L499.1639 315.3875L499.1639 314.41876L503.0858 308.85626L503.94516 308.85626L503.94516 314.41876L505.1014 314.41876L505.1014 315.3875L503.94516 315.3875L503.94516 317.45L502.88266 317.45ZM502.88266 314.41876L502.88266 310.5594L500.19516 314.41876L502.88266 314.41876Z" fill-rule="nonzero"></path><path fill="#000000" d="M527.29596 317.45L526.2491 317.45L526.2491 310.73126Q525.85846 311.09064 525.23346 311.46564Q524.6241 311.825 524.1397 311.9969L524.1397 310.98126Q525.0147 310.5594 525.67096 309.98126Q526.34283 309.3875 526.6241 308.825L527.29596 308.825L527.29596 317.45ZM530.3272 315.2L531.4366 315.10626Q531.5616 315.91876 531.9991 316.325Q532.4522 316.73126 533.09283 316.73126Q533.84283 316.73126 534.3741 316.15314Q534.90533 315.575 534.90533 314.6375Q534.90533 313.73126 534.3897 313.21564Q533.8897 312.6844 533.0616 312.6844Q532.5616 312.6844 532.1397 312.91876Q531.73346 313.15314 531.4991 313.5125L530.5147 313.3875L531.34283 308.98126L535.6241 308.98126L535.6241 309.98126L532.1866 309.98126L531.73346 312.29376Q532.4991 311.7469 533.34283 311.7469Q534.46783 311.7469 535.23346 312.52814Q536.0147 313.3094 536.0147 314.54376Q536.0147 315.7 535.34283 316.5594Q534.5147 317.59064 533.09283 317.59064Q531.92096 317.59064 531.17096 316.9344Q530.4366 316.27814 530.3272 315.2Z" fill-rule="nonzero"></path><path fill="#000000" d="M558.11554 317.45L557.06866 317.45L557.06866 310.73126Q556.67804 311.09064 556.05304 311.46564Q555.44366 311.825 554.9593 311.9969L554.9593 310.98126Q555.8343 310.5594 556.49054 309.98126Q557.1624 309.3875 557.44366 308.825L558.11554 308.825L558.11554 317.45ZM566.61554 310.96564L565.56866 311.04376Q565.42804 310.41876 565.17804 310.1375Q564.74054 309.6844 564.11554 309.6844Q563.61554 309.6844 563.2249 309.96564Q562.74054 310.34064 562.44366 311.04376Q562.1624 311.73126 562.1468 313.0125Q562.5218 312.4344 563.06866 312.15314Q563.63116 311.8719 564.24054 311.8719Q565.2874 311.8719 566.0218 312.65314Q566.7718 313.4344 566.7718 314.65314Q566.7718 315.46564 566.4124 316.16876Q566.06866 316.85626 565.4593 317.23126Q564.8499 317.59064 564.0843 317.59064Q562.75616 317.59064 561.92804 316.6219Q561.0999 315.65314 561.0999 313.4344Q561.0999 310.9344 562.0218 309.8094Q562.81866 308.825 564.17804 308.825Q565.19366 308.825 565.8343 309.40314Q566.49054 309.96564 566.61554 310.96564ZM562.31866 314.66876Q562.31866 315.21564 562.5374 315.71564Q562.7718 316.2 563.17804 316.46564Q563.5999 316.73126 564.06866 316.73126Q564.7249 316.73126 565.2093 316.2Q565.69366 315.65314 565.69366 314.73126Q565.69366 313.84064 565.2093 313.325Q564.74054 312.8094 564.0218 312.8094Q563.30304 312.8094 562.80304 313.325Q562.31866 313.84064 562.31866 314.66876Z" fill-rule="nonzero"></path></svg> 